<svg xmlns="http://www.w3.org/2000/svg" xmlns:xlink="http://www.w3.org/1999/xlink" width="500" zoomAndPan="magnify" viewBox="0 0 375 374.999991" height="500" preserveAspectRatio="xMidYMid meet" version="1.0"><path stroke-linecap="round" transform="matrix(0.236873, -0.211418, 0.211418, 0.236873, 268.946999, 90.430996)" fill-opacity="1" fill="#ffffff" fill-rule="nonzero" stroke-linejoin="round" d="M 73.504084 -16.327265 C 73.504084 -16.327265 58.28797 -47.66892 58.28797 -47.66892 C 58.28797 -47.66892 41.659337 -39.588221 41.659337 -39.588221 C 39.407178 -41.961156 36.966592 -44.122978 34.374295 -46.040917 C 34.374295 -46.040917 40.430874 -63.524582 40.430874 -63.524582 C 40.430874 -63.524582 7.516781 -74.92653 7.516781 -74.92653 C 7.516781 -74.92653 1.460203 -57.442864 1.460203 -57.442864 C -1.76927 -57.538324 -5.008524 -57.345677 -8.249367 -56.874103 C -8.249367 -56.874103 -16.339245 -73.510928 -16.339245 -73.510928 C -16.339245 -73.510928 -47.663528 -58.295799 -47.663528 -58.295799 C -47.663528 -58.295799 -39.591022 -41.657988 -39.591022 -41.657988 C -41.963957 -39.405829 -44.125779 -36.965243 -46.043717 -34.372946 C -46.043717 -34.372946 -63.527383 -40.429524 -63.527383 -40.429524 C -63.527383 -40.429524 -74.929331 -7.515432 -74.929331 -7.515432 C -74.929331 -7.515432 -57.445665 -1.458853 -57.445665 -1.458853 C -57.532932 1.76144 -57.339299 5.018065 -56.876903 8.250716 C -56.876903 8.250716 -73.505536 16.331415 -73.505536 16.331415 C -73.505536 16.331415 -58.289421 47.67307 -58.289421 47.67307 C -58.289421 47.67307 -41.660789 39.592371 -41.660789 39.592371 C -39.40863 41.965306 -36.977223 44.118936 -34.375747 46.045067 C -34.375747 46.045067 -40.432325 63.528732 -40.432325 63.528732 C -40.432325 63.528732 -7.518233 74.93068 -7.518233 74.93068 C -7.518233 74.93068 -1.461654 57.447014 -1.461654 57.447014 C 1.758639 57.534281 5.007072 57.349827 8.256108 56.869074 C 8.256108 56.869074 16.337793 73.515078 16.337793 73.515078 C 16.337793 73.515078 47.670269 58.290771 47.670269 58.290771 C 47.670269 58.290771 39.58957 41.662138 39.58957 41.662138 C 41.970698 39.4008 44.124327 36.969393 46.042266 34.377096 C 46.042266 34.377096 63.525931 40.433675 63.525931 40.433675 C 63.525931 40.433675 74.936072 7.510403 74.936072 7.510403 C 74.936072 7.510403 57.444214 1.463003 57.444214 1.463003 C 57.539673 -1.766469 57.337847 -5.013915 56.875452 -8.246566 C 56.875452 -8.246566 73.504084 -16.327265 73.504084 -16.327265 Z M 24.005338 -10.126987 C 26.401976 -4.442354 26.626598 1.661877 25.024495 7.207596 C 24.778502 8.092929 24.479409 8.963851 24.127216 9.82036 C 21.947229 15.163624 17.985724 19.823818 12.595198 22.796284 C 12.189137 23.011042 11.783076 23.2258 11.376028 23.423186 C 10.960789 23.629751 10.544563 23.818945 10.12735 23.990767 C 4.451895 26.395598 -1.643156 26.628413 -7.206247 25.027296 C -8.083388 24.772124 -8.954309 24.473031 -9.801639 24.12903 C -15.162275 21.95003 -19.821483 18.005897 -22.794935 12.597998 C -23.017885 12.201116 -23.232643 11.795055 -23.421837 11.378829 C -23.628402 10.96359 -23.817595 10.547363 -23.998597 10.121958 C -26.403427 4.446504 -26.62805 -1.657727 -25.035125 -7.211638 C -24.771761 -8.097958 -24.472668 -8.968879 -24.128667 -9.81621 C -21.940488 -15.168653 -17.987176 -19.819668 -12.596649 -22.792134 C -12.190588 -23.006892 -11.793706 -23.229842 -11.369288 -23.428215 C -10.96224 -23.625601 -10.546014 -23.814795 -10.120609 -23.995796 C -4.453347 -26.391447 1.649897 -26.633442 7.204795 -25.023146 C 8.090128 -24.777153 8.952857 -24.468881 9.80838 -24.134059 C 15.160823 -21.945879 19.820031 -18.001746 22.793484 -12.593848 C 23.016434 -12.196966 23.231191 -11.790905 23.429564 -11.366487 C 23.62695 -10.959439 23.816144 -10.543213 24.005338 -10.126987 Z M 24.005338 -10.126987 " stroke="#253237" stroke-width="2" stroke-opacity="1" stroke-miterlimit="4"/><path stroke-linecap="round" transform="matrix(0.203022, 0.244107, -0.244107, 0.203022, 90.3035, 238.017743)" fill-opacity="1" fill="#ffffff" fill-rule="nonzero" stroke-linejoin="round" d="M 114.677234 27.266087 C 114.677234 27.266087 114.681136 -27.26619 114.681136 -27.26619 C 114.681136 -27.26619 85.737345 -27.271241 85.737345 -27.271241 C 84.179415 -32.151457 82.21839 -36.854852 79.893699 -41.332634 C 79.893699 -41.332634 100.377429 -61.805617 100.377429 -61.805617 C 100.377429 -61.805617 61.818729 -100.371544 61.818729 -100.371544 C 61.818729 -100.371544 41.335 -79.898562 41.335 -79.898562 C 36.857434 -82.230333 32.151815 -84.191698 27.265439 -85.743321 C 27.265439 -85.743321 27.270491 -114.687111 27.270491 -114.687111 C 27.270491 -114.687111 -27.261786 -114.691013 -27.261786 -114.691013 C -27.261786 -114.691013 -27.265246 -85.729896 -27.265246 -85.729896 C -32.15492 -84.179833 -36.850449 -82.228267 -41.336098 -79.894117 C -41.336098 -79.894117 -61.816948 -100.368388 -61.816948 -100.368388 C -61.816948 -100.368388 -100.382875 -61.809688 -100.382875 -61.809688 C -100.382875 -61.809688 -79.902025 -41.335418 -79.902025 -41.335418 C -82.224338 -36.849985 -84.177835 -32.153826 -85.729458 -27.267449 C -85.729458 -27.267449 -114.681116 -27.263042 -114.681116 -27.263042 C -114.681116 -27.263042 -114.685018 27.269235 -114.685018 27.269235 C -114.685018 27.269235 -85.73336 27.264828 -85.73336 27.264828 C -84.183297 32.154502 -82.231731 36.850031 -79.897581 41.33568 C -79.897581 41.33568 -100.381311 61.808663 -100.381311 61.808663 C -100.381311 61.808663 -61.822611 100.37459 -61.822611 100.37459 C -61.822611 100.37459 -41.331015 79.892148 -41.331015 79.892148 C -36.853449 82.223919 -32.14783 84.185284 -27.261453 85.736907 C -27.261453 85.736907 -27.266505 114.680698 -27.266505 114.680698 C -27.266505 114.680698 27.265771 114.684599 27.265771 114.684599 C 27.265771 114.684599 27.261364 85.732941 27.261364 85.732941 C 32.151038 84.182879 36.854434 82.221854 41.340083 79.887704 C 41.340083 79.887704 61.813066 100.371433 61.813066 100.371433 C 61.813066 100.371433 100.378993 61.812734 100.378993 61.812734 C 100.378993 61.812734 79.898143 41.338464 79.898143 41.338464 C 82.237782 36.851439 84.18182 32.147412 85.725576 27.270494 C 85.725576 27.270494 114.677234 27.266087 114.677234 27.266087 Z M 40.722913 2.147756 C 40.220297 11.795121 36.358354 20.536816 30.311157 27.269022 C 29.343408 28.336409 28.336229 29.355001 27.262836 30.318523 C 20.532895 36.370879 11.78291 40.215105 2.149119 40.715915 C 1.435557 40.746535 0.729862 40.767697 -0.00421073 40.765258 C -0.720957 40.761226 -1.429836 40.747735 -2.149766 40.709051 C -11.779805 40.204842 -20.527775 36.369685 -27.269441 30.314621 C -28.327368 29.354738 -29.355419 28.339693 -30.309482 27.274167 C -36.361838 20.544226 -40.22339 11.795833 -40.716333 2.152583 C -40.746954 1.439021 -40.777575 0.725458 -40.773543 0.00871225 C -40.771103 -0.72536 -40.748153 -1.426372 -40.718928 -2.15417 C -40.216312 -11.801535 -36.362236 -20.53377 -30.315039 -27.265977 C -29.347289 -28.333363 -28.340111 -29.351955 -27.266718 -30.315477 C -20.536777 -36.367834 -11.786792 -40.212059 -2.153001 -40.712869 C -1.439439 -40.74349 -0.716417 -40.766244 0.000328735 -40.762212 C 0.724942 -40.767639 1.435413 -40.736822 2.153751 -40.715464 C 11.78379 -40.211256 20.53176 -36.376098 27.265559 -30.311576 C 28.340812 -29.353285 29.351537 -28.336647 30.3056 -27.271121 C 36.357956 -20.54118 40.219508 -11.792788 40.712451 -2.149537 C 40.752531 -1.428108 40.773693 -0.722413 40.771253 0.0116597 C 40.767221 0.728406 40.75373 1.437285 40.722913 2.147756 Z M 40.722913 2.147756 " stroke="#253237" stroke-width="2" stroke-opacity="1" stroke-miterlimit="4"/><path stroke-linecap="round" transform="matrix(0.317255, 0.0124645, -0.0124645, 0.317255, 76.442505, 178.350999)" fill-opacity="1" fill="#ffffff" fill-rule="nonzero" stroke-linejoin="round" d="M 46.119757 10.970321 C 46.119757 10.970321 46.119607 -10.9708 46.119607 -10.9708 C 46.119607 -10.9708 34.471929 -10.968747 34.471929 -10.968747 C 33.853245 -12.926776 33.064864 -14.816573 32.131858 -16.626813 C 32.131858 -16.626813 40.365869 -24.855031 40.365869 -24.855031 C 40.365869 -24.855031 24.858287 -40.363009 24.858287 -40.363009 C 24.858287 -40.363009 16.624759 -32.122497 16.624759 -32.122497 C 14.814865 -33.061025 12.924711 -33.848649 10.967075 -34.473557 C 10.967075 -34.473557 10.965023 -46.121235 10.965023 -46.121235 C 10.965023 -46.121235 -10.963805 -46.121568 -10.963805 -46.121568 C -10.963805 -46.121568 -10.961753 -34.47389 -10.961753 -34.47389 C -12.932074 -33.854723 -14.821872 -33.066342 -16.619335 -32.121525 C -16.619335 -32.121525 -24.86033 -40.367347 -24.86033 -40.367347 C -24.86033 -40.367347 -40.368307 -24.859765 -40.368307 -24.859765 C -40.368307 -24.859765 -32.127796 -16.626237 -32.127796 -16.626237 C -33.066324 -14.816343 -33.853948 -12.92619 -34.478856 -10.968553 C -34.478856 -10.968553 -46.11424 -10.966984 -46.11424 -10.966984 C -46.11424 -10.966984 -46.114574 10.961844 -46.114574 10.961844 C -46.114574 10.961844 -34.479189 10.960274 -34.479189 10.960274 C -33.847728 12.930113 -33.071641 14.820394 -32.126824 16.617857 C -32.126824 16.617857 -40.360352 24.858369 -40.360352 24.858369 C -40.360352 24.858369 -24.85277 40.366346 -24.85277 40.366346 C -24.85277 40.366346 -16.619242 32.125834 -16.619242 32.125834 C -14.821642 33.064846 -12.931488 33.85247 -10.961558 34.476894 C -10.961558 34.476894 -10.959989 46.112279 -10.959989 46.112279 C -10.959989 46.112279 10.968839 46.112612 10.968839 46.112612 C 10.968839 46.112612 10.967269 34.477228 10.967269 34.477228 C 12.925297 33.858544 14.815095 33.070163 16.624852 32.124863 C 16.624852 32.124863 24.85307 40.358874 24.85307 40.358874 C 24.85307 40.358874 40.361047 24.851292 40.361047 24.851292 C 40.361047 24.851292 32.132829 16.617281 32.132829 16.617281 C 33.071841 14.819681 33.847171 12.93001 34.471596 10.96008 C 34.471596 10.96008 46.119757 10.970321 46.119757 10.970321 Z M 16.369231 0.860796 C 16.177154 4.746825 14.615868 8.255705 12.185769 10.96146 C 11.7965 11.395384 11.393971 11.805203 10.965889 12.191401 C 8.254221 14.625028 4.731826 16.167059 0.861254 16.368378 C 0.578499 16.379487 0.295745 16.390596 0.000214036 16.389895 C -0.295317 16.389193 -0.578554 16.388008 -0.862275 16.37453 C -4.736492 16.169676 -8.257183 14.621167 -10.962938 12.191068 C -11.396862 11.801799 -11.806681 11.39927 -12.192879 10.971188 C -14.626506 8.259519 -16.168537 4.737125 -16.369856 0.866552 C -16.380965 0.583798 -16.392557 0.28875 -16.391373 0.00551282 C -16.390671 -0.290018 -16.389486 -0.573255 -16.376491 -0.869269 C -16.171637 -4.743487 -14.623128 -8.264178 -12.193029 -10.969933 C -11.803277 -11.391563 -11.388455 -11.801865 -10.960373 -12.188063 C -8.260998 -14.621207 -4.739086 -16.175532 -0.868514 -16.376851 C -0.573466 -16.388443 -0.290228 -16.387259 0.00481963 -16.398851 C 0.288057 -16.397666 0.571777 -16.384188 0.867791 -16.371192 C 4.742009 -16.166338 8.249923 -14.62964 10.968455 -12.18773 C 11.390085 -11.797978 11.799904 -11.395449 12.186102 -10.967367 C 14.619729 -8.255699 16.17357 -4.746081 16.375373 -0.863215 C 16.386482 -0.580461 16.398074 -0.285413 16.396889 -0.00217525 C 16.396188 0.293356 16.382709 0.577076 16.369231 0.860796 Z M 16.369231 0.860796 " stroke="#253237" stroke-width="2" stroke-opacity="1" stroke-miterlimit="4"/><path stroke-linecap="round" transform="matrix(0.3175, 0, 0, 0.3175, 69.503753, 110.121101)" fill-opacity="1" fill="#ffffff" fill-rule="nonzero" stroke-linejoin="round" d="M 81.459637 -26.119609 C 87.463574 -3.666361 83.477354 19.106769 72.244578 37.475372 C 64.309047 51.783935 58.600385 65.563462 60.507373 77.534427 C 60.507373 77.534427 -5.954241 95.337084 -5.954241 95.337084 C -10.469497 83.538364 -23.104832 74.163364 -37.905521 65.452734 C -37.979339 65.415825 -38.028552 65.378915 -38.090068 65.342006 C -56.040363 54.908935 -70.041347 37.647616 -75.836131 16.006376 C -87.47491 -27.436046 -61.687509 -72.05957 -18.257391 -83.698349 C 25.185031 -95.337129 69.820858 -69.56203 81.459637 -26.119609 Z M 81.459637 -26.119609 " stroke="#253237" stroke-width="2" stroke-opacity="1" stroke-miterlimit="4"/><path stroke-linecap="round" transform="matrix(0.3175, 0, 0, 0.3175, 71.595439, 120.614486)" fill="none" stroke-linejoin="round" d="M 10.390842 59.248175 C 5.678735 34.272781 -0.497446 9.568057 -8.076186 -14.669148 C -11.275005 -24.905368 -14.818312 -35.252317 -20.908371 -43.901431 C -23.122938 -47.051038 -26.727761 -50.22525 -29.938883 -48.650447 C -31.993509 -47.641589 -32.940851 -44.885683 -32.571757 -42.437357 C -32.190359 -39.976727 -30.738587 -37.811372 -29.053056 -36.088931 C -24.5378 -31.487553 -18.300103 -29.445231 -12.222347 -28.793164 C -5.935438 -28.128794 0.511413 -28.830073 6.195468 -31.549069 C 11.891826 -34.280368 16.763873 -39.127809 19.126078 -45.377809 C 20.221058 -48.256746 20.737791 -51.664719 19.458263 -54.543656 C 18.178735 -57.434896 14.586216 -59.243459 12.199405 -57.533321 C 11.239759 -56.856648 10.612298 -55.737061 10.169385 -54.580565 C 8.47155 -50.212947 8.97598 -45.168656 9.689562 -40.395034 C 14.573913 -7.324168 27.479917 24.122683 32.942515 57.107427 " stroke="#253237" stroke-width="2" stroke-opacity="1" stroke-miterlimit="4"/><path stroke-linecap="butt" transform="matrix(0.3175, 0, 0, 0.3175, 78.521073, 139.279678)" fill-opacity="1" fill="#59c1b4" fill-rule="nonzero" stroke-linejoin="miter" d="M 35.981857 -3.932057 C 35.981857 -3.932057 -33.137238 14.584183 -33.137238 14.584183 C -33.137238 14.584183 -35.991568 3.929656 -35.991568 3.929656 C -35.991568 3.929656 33.127526 -14.586584 33.127526 -14.586584 C 33.127526 -14.586584 35.981857 -3.932057 35.981857 -3.932057 Z M 35.981857 -3.932057 " stroke="#253237" stroke-width="2" stroke-opacity="1" stroke-miterlimit="10"/><path stroke-linecap="butt" transform="matrix(0.3175, 0, 0, 0.3175, 80.251449, 145.739844)" fill-opacity="1" fill="#59c1b4" fill-rule="nonzero" stroke-linejoin="miter" d="M 35.982149 -3.929627 C 35.982149 -3.929627 -33.136945 14.586613 -33.136945 14.586613 C -33.136945 14.586613 -35.991276 3.932086 -35.991276 3.932086 C -35.991276 3.932086 33.127819 -14.584154 33.127819 -14.584154 C 33.127819 -14.584154 35.982149 -3.929627 35.982149 -3.929627 Z M 35.982149 -3.929627 " stroke="#253237" stroke-width="2" stroke-opacity="1" stroke-miterlimit="10"/><path stroke-linecap="butt" transform="matrix(0.3175, 0, 0, 0.3175, 79.386892, 142.511503)" fill-opacity="1" fill="#59c1b4" fill-rule="nonzero" stroke-linejoin="miter" d="M 38.003883 -4.982097 C 38.003883 -4.982097 -35.396707 14.678336 -35.396707 14.678336 C -35.396707 14.678336 -38.004975 4.971151 -38.004975 4.971151 C -38.004975 4.971151 35.407919 -14.676979 35.407919 -14.676979 C 35.407919 -14.676979 38.003883 -4.982097 38.003883 -4.982097 Z M 38.003883 -4.982097 " stroke="#253237" stroke-width="2" stroke-opacity="1" stroke-miterlimit="10"/><path stroke-linecap="butt" transform="matrix(0.3175, 0, 0, 0.3175, 81.156635, 149.120263)" fill-opacity="1" fill="#59c1b4" fill-rule="nonzero" stroke-linejoin="miter" d="M 32.073098 -2.888624 C 32.073098 -2.888624 -29.221194 13.536081 -29.221194 13.536081 C -29.221194 13.536081 -32.075524 2.893857 -32.075524 2.893857 C -32.075524 2.893857 29.218767 -13.530848 29.218767 -13.530848 C 29.218767 -13.530848 32.073098 -2.888624 32.073098 -2.888624 Z M 32.073098 -2.888624 " stroke="#253237" stroke-width="2" stroke-opacity="1" stroke-miterlimit="10"/><path stroke-linecap="round" transform="matrix(0.3175, 0, 0, 0.3175, 191.988858, 101.406233)" fill-opacity="1" fill="#253237" fill-rule="nonzero" stroke-linejoin="round" d="M 118.96964 37.118655 C 118.96964 37.118655 -118.973274 37.118655 -118.973274 37.118655 C -118.973274 37.118655 -118.973274 -37.11855 -118.973274 -37.11855 C -118.973274 -37.11855 118.96964 -37.11855 118.96964 -37.11855 C 118.96964 -37.11855 118.96964 37.118655 118.96964 37.118655 Z M 118.96964 37.118655 " stroke="#253237" stroke-width="2" stroke-opacity="1" stroke-miterlimit="4"/><path stroke-linecap="round" transform="matrix(0.3175, 0, 0, 0.3175, 186.51389, 194.240363)" fill-opacity="1" fill="#ffffff" fill-rule="nonzero" stroke-linejoin="round" d="M 234.897198 297.163719 C 234.897198 297.163719 -234.898571 297.163719 -234.898571 297.163719 C -234.898571 297.163719 -234.898571 -297.164531 -234.898571 -297.164531 C -234.898571 -297.164531 234.897198 -297.164531 234.897198 -297.164531 C 234.897198 -297.164531 234.897198 297.163719 234.897198 297.163719 Z M 234.897198 297.163719 " stroke="#253237" stroke-width="2" stroke-opacity="1" stroke-miterlimit="4"/><path stroke-linecap="round" transform="matrix(0.3175, 0, 0, 0.3175, 108.851803, 194.240363)" fill-opacity="1" fill="#d4d4d4" fill-rule="nonzero" stroke-linejoin="round" d="M -9.707942 297.163719 C -9.707942 297.163719 9.706428 297.163719 9.706428 297.163719 C 9.706428 297.163719 9.706428 -297.164531 9.706428 -297.164531 C 9.706428 -297.164531 -9.707942 -297.164531 -9.707942 -297.164531 C -9.707942 -297.164531 -9.707942 297.163719 -9.707942 297.163719 Z M -9.707942 297.163719 " stroke="#253237" stroke-width="2" stroke-opacity="1" stroke-miterlimit="4"/><path stroke-linecap="round" transform="matrix(0.3175, 0, 0, 0.3175, 187.802306, 192.84592)" fill-opacity="1" fill="#ffffff" fill-rule="nonzero" stroke-linejoin="round" d="M 213.946971 275.731355 C 213.946971 275.731355 -213.944271 275.731355 -213.944271 275.731355 C -213.944271 275.731355 -213.944271 -275.732722 -213.944271 -275.732722 C -213.944271 -275.732722 213.946971 -275.732722 213.946971 -275.732722 C 213.946971 -275.732722 213.946971 275.731355 213.946971 275.731355 Z M 213.946971 275.731355 " stroke="#253237" stroke-width="2" stroke-opacity="1" stroke-miterlimit="4"/><path stroke-linecap="round" transform="matrix(0.3175, 0, 0, 0.3175, 198.923691, 97.247293)" fill-opacity="1" fill="#59c1b4" fill-rule="nonzero" stroke-linejoin="round" d="M 118.965736 -24.007222 C 118.965736 -24.007222 118.965736 50.21768 118.965736 50.21768 C 118.965736 50.21768 -118.964875 50.21768 -118.964875 50.21768 C -118.964875 50.21768 -118.964875 -24.007222 -118.964875 -24.007222 C -118.964875 -24.007222 -68.140564 -24.007222 -68.140564 -24.007222 C -68.054442 -31.204564 -64.855623 -37.700627 -59.725209 -42.43734 C -54.520977 -47.247871 -47.335938 -50.21293 -39.388103 -50.21293 C -39.388103 -50.21293 39.388964 -50.21293 39.388964 -50.21293 C 55.136996 -50.21293 67.932271 -38.524938 68.141425 -24.007222 C 68.141425 -24.007222 118.965736 -24.007222 118.965736 -24.007222 Z M 118.965736 -24.007222 " stroke="#253237" stroke-width="2" stroke-opacity="1" stroke-miterlimit="4"/><path stroke-linecap="round" transform="matrix(0.3175, 0, 0, 0.3175, 140.736103, 144.68879)" fill-opacity="1" fill="#ffffff" fill-rule="nonzero" stroke-linejoin="round" d="M 27.652037 27.653416 C 27.652037 27.653416 -27.650621 27.653416 -27.650621 27.653416 C -27.650621 27.653416 -27.650621 -27.649242 -27.650621 -27.649242 C -27.650621 -27.649242 27.652037 -27.649242 27.652037 -27.649242 C 27.652037 -27.649242 27.652037 27.653416 27.652037 27.653416 Z M 27.652037 27.653416 " stroke="#253237" stroke-width="2" stroke-opacity="1" stroke-miterlimit="4"/><path stroke-linecap="round" transform="matrix(0.3175, 0, 0, 0.3175, 140.736103, 172.409081)" fill-opacity="1" fill="#ffffff" fill-rule="nonzero" stroke-linejoin="round" d="M 27.652037 27.648562 C 27.652037 27.648562 -27.650621 27.648562 -27.650621 27.648562 C -27.650621 27.648562 -27.650621 -27.654095 -27.650621 -27.654095 C -27.650621 -27.654095 27.652037 -27.654095 27.652037 -27.654095 C 27.652037 -27.654095 27.652037 27.648562 27.652037 27.648562 Z M 27.652037 27.648562 " stroke="#253237" stroke-width="2" stroke-opacity="1" stroke-miterlimit="4"/><path stroke-linecap="round" transform="matrix(0.3175, 0, 0, 0.3175, 140.736103, 200.129034)" fill-opacity="1" fill="#ffffff" fill-rule="nonzero" stroke-linejoin="round" d="M 27.652037 27.657078 C 27.652037 27.657078 -27.650621 27.657078 -27.650621 27.657078 C -27.650621 27.657078 -27.650621 -27.657883 -27.650621 -27.657883 C -27.650621 -27.657883 27.652037 -27.657883 27.652037 -27.657883 C 27.652037 -27.657883 27.652037 27.657078 27.652037 27.657078 Z M 27.652037 27.657078 " stroke="#253237" stroke-width="2" stroke-opacity="1" stroke-miterlimit="4"/><path stroke-linecap="round" transform="matrix(0.3175, 0, 0, 0.3175, 140.736103, 227.849325)" fill-opacity="1" fill="#ffffff" fill-rule="nonzero" stroke-linejoin="round" d="M 27.652037 27.652224 C 27.652037 27.652224 -27.650621 27.652224 -27.650621 27.652224 C -27.650621 27.652224 -27.650621 -27.650433 -27.650621 -27.650433 C -27.650621 -27.650433 27.652037 -27.650433 27.652037 -27.650433 C 27.652037 -27.650433 27.652037 27.652224 27.652037 27.652224 Z M 27.652037 27.652224 " stroke="#253237" stroke-width="2" stroke-opacity="1" stroke-miterlimit="4"/><path stroke-linecap="round" transform="matrix(0.3175, 0, 0, 0.3175, 140.736103, 255.569633)" fill-opacity="1" fill="#ffffff" fill-rule="nonzero" stroke-linejoin="round" d="M 27.652037 27.647318 C 27.652037 27.647318 -27.650621 27.647318 -27.650621 27.647318 C -27.650621 27.647318 -27.650621 -27.65534 -27.650621 -27.65534 C -27.650621 -27.65534 27.652037 -27.65534 27.652037 -27.65534 C 27.652037 -27.65534 27.652037 27.647318 27.652037 27.647318 Z M 27.652037 27.647318 " stroke="#253237" stroke-width="2" stroke-opacity="1" stroke-miterlimit="4"/><path stroke-linecap="round" transform="matrix(0.3175, 0, 0, 0.3175, 199.058941, 141.269609)" fill-opacity="1" fill="#d4d4d4" fill-rule="nonzero" stroke-linejoin="round" d="M 131.827155 3.198574 C 131.827155 3.198574 -131.829342 3.198574 -131.829342 3.198574 C -133.145779 3.198574 -134.216153 2.1282 -134.216153 0.824066 C -134.216153 0.824066 -134.216153 -0.812253 -134.216153 -0.812253 C -134.216153 -2.12869 -133.145779 -3.199064 -131.829342 -3.199064 C -131.829342 -3.199064 131.827155 -3.199064 131.827155 -3.199064 C 133.143592 -3.199064 134.213966 -2.12869 134.213966 -0.812253 C 134.213966 -0.812253 134.213966 0.824066 134.213966 0.824066 C 134.213966 2.1282 133.143592 3.198574 131.827155 3.198574 Z M 131.827155 3.198574 " stroke="#253237" stroke-width="2" stroke-opacity="1" stroke-miterlimit="4"/><path stroke-linecap="round" transform="matrix(0.3175, 0, 0, 0.3175, 202.045347, 146.813808)" fill-opacity="1" fill="#d4d4d4" fill-rule="nonzero" stroke-linejoin="round" d="M 141.232667 3.207002 C 141.232667 3.207002 -141.235346 3.207002 -141.235346 3.207002 C -142.551783 3.207002 -143.609854 2.136628 -143.609854 0.820191 C -143.609854 0.820191 -143.609854 -0.816127 -143.609854 -0.816127 C -143.609854 -2.132564 -142.551783 -3.202938 -141.235346 -3.202938 C -141.235346 -3.202938 141.232667 -3.202938 141.232667 -3.202938 C 142.549104 -3.202938 143.619478 -2.132564 143.619478 -0.816127 C 143.619478 -0.816127 143.619478 0.820191 143.619478 0.820191 C 143.619478 2.136628 142.549104 3.207002 141.232667 3.207002 Z M 141.232667 3.207002 " stroke="#253237" stroke-width="2" stroke-opacity="1" stroke-miterlimit="4"/><path stroke-linecap="round" transform="matrix(0.3175, 0, 0, 0.3175, 199.058941, 169.636659)" fill-opacity="1" fill="#d4d4d4" fill-rule="nonzero" stroke-linejoin="round" d="M 131.827155 3.199006 C 131.827155 3.199006 -131.829342 3.199006 -131.829342 3.199006 C -133.145779 3.199006 -134.216153 2.128632 -134.216153 0.812195 C -134.216153 0.812195 -134.216153 -0.824124 -134.216153 -0.824124 C -134.216153 -2.128258 -133.145779 -3.198632 -131.829342 -3.198632 C -131.829342 -3.198632 131.827155 -3.198632 131.827155 -3.198632 C 133.143592 -3.198632 134.213966 -2.128258 134.213966 -0.824124 C 134.213966 -0.824124 134.213966 0.812195 134.213966 0.812195 C 134.213966 2.128632 133.143592 3.199006 131.827155 3.199006 Z M 131.827155 3.199006 " stroke="#253237" stroke-width="2" stroke-opacity="1" stroke-miterlimit="4"/><path stroke-linecap="round" transform="matrix(0.3175, 0, 0, 0.3175, 197.53527, 175.181165)" fill-opacity="1" fill="#d4d4d4" fill-rule="nonzero" stroke-linejoin="round" d="M 127.029662 3.206468 C 127.029662 3.206468 -127.030378 3.206468 -127.030378 3.206468 C -128.346815 3.206468 -129.404886 2.136094 -129.404886 0.819657 C -129.404886 0.819657 -129.404886 -0.816662 -129.404886 -0.816662 C -129.404886 -2.133099 -128.346815 -3.203473 -127.030378 -3.203473 C -127.030378 -3.203473 127.029662 -3.203473 127.029662 -3.203473 C 128.346099 -3.203473 129.416473 -2.133099 129.416473 -0.816662 C 129.416473 -0.816662 129.416473 0.819657 129.416473 0.819657 C 129.416473 2.136094 128.346099 3.206468 127.029662 3.206468 Z M 127.029662 3.206468 " stroke="#253237" stroke-width="2" stroke-opacity="1" stroke-miterlimit="4"/><path stroke-linecap="round" transform="matrix(0.3175, 0, 0, 0.3175, 199.058941, 197.35695)" fill-opacity="1" fill="#d4d4d4" fill-rule="nonzero" stroke-linejoin="round" d="M 131.827155 3.206456 C 131.827155 3.206456 -131.829342 3.206456 -131.829342 3.206456 C -133.145779 3.206456 -134.216153 2.136082 -134.216153 0.819645 C -134.216153 0.819645 -134.216153 -0.816674 -134.216153 -0.816674 C -134.216153 -2.133111 -133.145779 -3.203485 -131.829342 -3.203485 C -131.829342 -3.203485 131.827155 -3.203485 131.827155 -3.203485 C 133.143592 -3.203485 134.213966 -2.133111 134.213966 -0.816674 C 134.213966 -0.816674 134.213966 0.819645 134.213966 0.819645 C 134.213966 2.136082 133.143592 3.206456 131.827155 3.206456 Z M 131.827155 3.206456 " stroke="#253237" stroke-width="2" stroke-opacity="1" stroke-miterlimit="4"/><path stroke-linecap="round" transform="matrix(0.3175, 0, 0, 0.3175, 202.045347, 202.901456)" fill-opacity="1" fill="#d4d4d4" fill-rule="nonzero" stroke-linejoin="round" d="M 141.232667 3.201614 C 141.232667 3.201614 -141.235346 3.201614 -141.235346 3.201614 C -142.551783 3.201614 -143.609854 2.13124 -143.609854 0.814803 C -143.609854 0.814803 -143.609854 -0.821516 -143.609854 -0.821516 C -143.609854 -2.137953 -142.551783 -3.196024 -141.235346 -3.196024 C -141.235346 -3.196024 141.232667 -3.196024 141.232667 -3.196024 C 142.549104 -3.196024 143.619478 -2.137953 143.619478 -0.821516 C 143.619478 -0.821516 143.619478 0.814803 143.619478 0.814803 C 143.619478 2.13124 142.549104 3.201614 141.232667 3.201614 Z M 141.232667 3.201614 " stroke="#253237" stroke-width="2" stroke-opacity="1" stroke-miterlimit="4"/><path stroke-linecap="round" transform="matrix(0.3175, 0, 0, 0.3175, 201.098252, 225.077241)" fill-opacity="1" fill="#d4d4d4" fill-rule="nonzero" stroke-linejoin="round" d="M 138.248616 3.201602 C 138.248616 3.201602 -138.252369 3.201602 -138.252369 3.201602 C -139.568806 3.201602 -140.63918 2.131228 -140.63918 0.814791 C -140.63918 0.814791 -140.63918 -0.821527 -140.63918 -0.821527 C -140.63918 -2.137964 -139.568806 -3.196035 -138.252369 -3.196035 C -138.252369 -3.196035 138.248616 -3.196035 138.248616 -3.196035 C 139.565053 -3.196035 140.635427 -2.137964 140.635427 -0.821527 C 140.635427 -0.821527 140.635427 0.814791 140.635427 0.814791 C 140.635427 2.131228 139.565053 3.201602 138.248616 3.201602 Z M 138.248616 3.201602 " stroke="#253237" stroke-width="2" stroke-opacity="1" stroke-miterlimit="4"/><path stroke-linecap="round" transform="matrix(0.3175, 0, 0, 0.3175, 198.825577, 230.621747)" fill-opacity="1" fill="#d4d4d4" fill-rule="nonzero" stroke-linejoin="round" d="M 131.098084 3.196761 C 131.098084 3.196761 -131.094337 3.196761 -131.094337 3.196761 C -132.410775 3.196761 -133.481149 2.13869 -133.481149 0.822253 C -133.481149 0.822253 -133.481149 -0.814066 -133.481149 -0.814066 C -133.481149 -2.130503 -132.410775 -3.200877 -131.094337 -3.200877 C -131.094337 -3.200877 131.098084 -3.200877 131.098084 -3.200877 C 132.402218 -3.200877 133.472592 -2.130503 133.472592 -0.814066 C 133.472592 -0.814066 133.472592 0.822253 133.472592 0.822253 C 133.472592 2.13869 132.402218 3.196761 131.098084 3.196761 Z M 131.098084 3.196761 " stroke="#253237" stroke-width="2" stroke-opacity="1" stroke-miterlimit="4"/><path stroke-linecap="round" transform="matrix(0.3175, 0, 0, 0.3175, 199.058941, 252.797561)" fill-opacity="1" fill="#d4d4d4" fill-rule="nonzero" stroke-linejoin="round" d="M 131.827155 3.196658 C 131.827155 3.196658 -131.829342 3.196658 -131.829342 3.196658 C -133.145779 3.196658 -134.216153 2.138587 -134.216153 0.82215 C -134.216153 0.82215 -134.216153 -0.814169 -134.216153 -0.814169 C -134.216153 -2.130606 -133.145779 -3.20098 -131.829342 -3.20098 C -131.829342 -3.20098 131.827155 -3.20098 131.827155 -3.20098 C 133.143592 -3.20098 134.213966 -2.130606 134.213966 -0.814169 C 134.213966 -0.814169 134.213966 0.82215 134.213966 0.82215 C 134.213966 2.138587 133.143592 3.196658 131.827155 3.196658 Z M 131.827155 3.196658 " stroke="#253237" stroke-width="2" stroke-opacity="1" stroke-miterlimit="4"/><path stroke-linecap="round" transform="matrix(0.3175, 0, 0, 0.3175, 202.045347, 258.341702)" fill-opacity="1" fill="#d4d4d4" fill-rule="nonzero" stroke-linejoin="round" d="M 141.232667 3.205269 C 141.232667 3.205269 -141.235346 3.205269 -141.235346 3.205269 C -142.551783 3.205269 -143.609854 2.134895 -143.609854 0.818458 C -143.609854 0.818458 -143.609854 -0.817861 -143.609854 -0.817861 C -143.609854 -2.134298 -142.551783 -3.204672 -141.235346 -3.204672 C -141.235346 -3.204672 141.232667 -3.204672 141.232667 -3.204672 C 142.549104 -3.204672 143.619478 -2.134298 143.619478 -0.817861 C 143.619478 -0.817861 143.619478 0.818458 143.619478 0.818458 C 143.619478 2.134895 142.549104 3.205269 141.232667 3.205269 Z M 141.232667 3.205269 " stroke="#253237" stroke-width="2" stroke-opacity="1" stroke-miterlimit="4"/><path stroke-linecap="round" transform="matrix(0.317495, 0.00184098, -0.00184098, 0.317495, 265.099439, 142.701831)" fill-opacity="1" fill="#253237" fill-rule="nonzero" stroke-linejoin="round" d="M 13.232371 -55.240899 C -15.651542 -75.706144 -52.20525 -41.832207 -47.044992 -6.994418 C -54.563241 11.947131 -51.063722 31.969006 -42.012151 52.549249 C -17.240747 66.099248 39.964061 75.708659 54.563848 30.40917 C 51.430058 5.562259 48.215213 -18.410644 44.091175 -33.679802 C 40.754596 -48.941223 28.851082 -54.248768 13.232371 -55.240899 Z M 13.232371 -55.240899 " stroke="#253237" stroke-width="2" stroke-opacity="1" stroke-miterlimit="4"/><path stroke-linecap="round" transform="matrix(0.317495, 0.00184098, -0.00184098, 0.317495, 265.099439, 142.701831)" fill-opacity="1" fill="#253237" fill-rule="nonzero" stroke-linejoin="round" d="M 13.232371 -55.240899 C -15.651542 -75.706144 -52.20525 -41.832207 -47.044992 -6.994418 C -54.563241 11.947131 -51.063722 31.969006 -42.012151 52.549249 C -17.240747 66.099248 39.964061 75.708659 54.563848 30.40917 C 51.430058 5.562259 48.215213 -18.410644 44.091175 -33.679802 C 40.754596 -48.941223 28.851082 -54.248768 13.232371 -55.240899 Z M 13.232371 -55.240899 " stroke="#253237" stroke-width="2" stroke-opacity="1" stroke-miterlimit="4"/><path stroke-linecap="butt" transform="matrix(0.3175, 0, 0, 0.3175, 286.296607, 196.139034)" fill-opacity="1" fill="#d4d4d4" fill-rule="nonzero" stroke-linejoin="miter" d="M -6.864314 26.505994 C -4.477503 45.674301 16.954583 43.029124 14.580075 23.848514 C 14.580075 23.848514 7.481158 -45.676585 7.481158 -45.676585 C 7.481158 -45.676585 -16.952897 -34.246959 -16.952897 -34.246959 C -16.952897 -34.246959 -6.864314 26.505994 -6.864314 26.505994 Z M -6.864314 26.505994 " stroke="#253237" stroke-width="2" stroke-opacity="1" stroke-miterlimit="10"/><path stroke-linecap="round" transform="matrix(0.3175, 0, 0, 0.3175, 285.640973, 177.498608)" fill-opacity="1" fill="#59c1b4" fill-rule="nonzero" stroke-linejoin="round" d="M 0.380302 -33.521697 C 10.038274 -18.757918 15.88227 0.37348 18.699692 22.998972 C 18.699692 22.998972 -16.745683 33.518165 -16.745683 33.518165 C -16.745683 33.518165 -18.701883 5.946807 -18.701883 5.946807 C -18.271273 -15.829768 -14.211234 -32.328292 0.380302 -33.521697 Z M 0.380302 -33.521697 " stroke="#253237" stroke-width="2" stroke-opacity="1" stroke-miterlimit="4"/><path stroke-linecap="round" transform="matrix(0.3175, 0, 0, 0.3175, 307.097622, 185.796477)" fill-opacity="1" fill="#d4d4d4" fill-rule="nonzero" stroke-linejoin="round" d="M -19.586506 10.680386 C -17.076664 3.581469 -13.151959 -3.455933 -8.58749 -10.456425 C -7.96003 -11.403767 -7.172628 -12.240382 -6.200679 -12.830933 C -4.638179 -13.765972 -3.358652 -13.655244 -2.288278 -12.683295 C -0.738081 -11.25613 -0.492018 -8.893925 -1.500876 -7.048452 C -1.500876 -7.048452 -6.151467 1.588359 -6.151467 1.588359 C -3.198711 -0.343236 -0.57814 -2.582409 1.820974 -5.079949 C 4.909065 -8.278767 6.816053 -12.388019 7.283573 -16.460362 C 7.369695 -17.173945 7.455817 -17.887527 7.529636 -18.576504 C 7.874124 -21.49235 11.159065 -23.128669 13.619695 -21.52926 C 14.61625 -20.877193 15.502077 -20.028275 16.301781 -18.982508 C 19.057687 -15.340775 19.586722 -10.481031 18.048829 -6.187232 C 16.055718 -0.626208 12.672352 4.922512 6.975994 10.446626 C 6.975994 10.446626 -8.341427 23.131174 -8.341427 23.131174 " stroke="#253237" stroke-width="2" stroke-opacity="1" stroke-miterlimit="4"/><path fill="#d4d4d4" d="M 285.886719 203.023438 C 282.304688 205.875 286.617188 211.292969 290.203125 208.441406 C 290.203125 208.441406 304.449219 193.140625 304.449219 193.140625 C 304.449219 193.140625 300.878906 189.1875 300.878906 189.1875 C 300.878906 189.1875 285.886719 203.023438 285.886719 203.023438 Z M 285.886719 203.023438 " fill-opacity="1" fill-rule="nonzero"/><path stroke-linecap="round" transform="matrix(0.3175, 0, 0, 0.3175, 295.651742, 194.010515)" fill="none" stroke-linejoin="round" d="M -16.459719 15.185877 C -16.459719 15.185877 16.46351 -15.190599 16.46351 -15.190599 " stroke="#253237" stroke-width="2" stroke-opacity="1" stroke-miterlimit="4"/><path stroke-linecap="round" transform="matrix(0.3175, 0, 0, 0.3175, 294.397953, 201.67528)" fill="none" stroke-linejoin="round" d="M -31.654479 12.612309 C -29.845916 22.504041 -20.630856 26.883962 -13.212057 21.310635 C -13.212057 21.310635 31.657529 -26.880802 31.657529 -26.880802 " stroke="#253237" stroke-width="2" stroke-opacity="1" stroke-miterlimit="4"/><path stroke-linecap="round" transform="matrix(0.3175, 0, 0, 0.3175, 259.218561, 282.375332)" fill-opacity="1" fill="#d4d4d4" fill-rule="nonzero" stroke-linejoin="round" d="M -6.962988 57.762242 C -5.843401 55.559979 -3.321255 54.329664 0.0744139 42.887734 C 2.891835 33.3774 -7.774996 -16.917876 -11.822732 -43.88638 C -13.975783 -56.128014 -11.884248 -70.547305 -11.121452 -75.456262 C -1.254326 -74.964136 6.189079 -75.124077 16.068508 -75.456262 C 16.265359 -71.420829 16.991245 -59.376045 17.163489 -55.389825 C 17.28652 -52.683132 17.360339 -50.025652 17.434158 -47.380474 C 17.434158 -47.380474 17.446461 -47.380474 17.446461 -47.380474 C 17.446461 -47.380474 19.402662 -19.366203 16.068508 4.735667 C 11.147249 40.267164 15.982386 49.62986 16.154631 50.257321 C 16.154631 50.257321 14.592131 59.127892 10.864276 59.927597 C 0.591146 62.154467 -5.412791 75.454172 -11.822732 74.113128 C -18.22037 72.759782 -19.401472 70.988128 -19.401472 70.988128 C -19.401472 70.988128 -9.423618 62.646593 -6.962988 57.762242 Z M -6.962988 57.762242 " stroke="#253237" stroke-width="2" stroke-opacity="1" stroke-miterlimit="4"/><path stroke-linecap="round" transform="matrix(0.3175, 0, 0, 0.3175, 257.123073, 304.19998)" fill-opacity="1" fill="#253237" fill-rule="nonzero" stroke-linejoin="round" d="M -9.688813 4.094551 C -12.80151 3.762366 -4.447672 -5.428087 -5.02592 -5.022083 C -5.591864 -4.616079 -24.391077 10.799768 -25.670605 14.293862 C -26.150428 15.585693 -25.190782 17.947898 -21.413715 18.218567 C -17.648951 18.476933 -5.235073 14.601441 -1.679463 13.272701 C 1.888451 11.956264 14.179297 -4.468441 16.812171 -5.711059 C 19.457348 -6.96598 19.863352 9.864728 20.453903 10.049276 C 20.453903 10.049276 22.520832 8.572898 22.520832 8.572898 C 22.520832 8.572898 26.150262 -8.811453 22.754592 -18.481728 C 22.754592 -18.481728 19.998687 -17.952693 13.588746 -11.321295 C 6.772801 -4.259287 -5.358105 4.574374 -9.688813 4.094551 Z M -9.688813 4.094551 " stroke="#253237" stroke-width="2" stroke-opacity="1" stroke-miterlimit="4"/><path stroke-linecap="butt" transform="matrix(0.3175, 0, 0, 0.3175, 246.603972, 195.358449)" fill-opacity="1" fill="#d4d4d4" fill-rule="nonzero" stroke-linejoin="miter" d="M 2.539162 27.611185 C -3.427866 45.992091 -23.974125 39.31148 -18.007098 20.942878 C -18.007098 20.942878 2.145461 -45.986256 2.145461 -45.986256 C 2.145461 -45.986256 23.971249 -30.127496 23.971249 -30.127496 C 23.971249 -30.127496 2.539162 27.611185 2.539162 27.611185 Z M 2.539162 27.611185 " stroke="#253237" stroke-width="2" stroke-opacity="1" stroke-miterlimit="10"/><path stroke-linecap="round" transform="matrix(0.3175, 0, 0, 0.3175, 250.765769, 177.764182)" fill-opacity="1" fill="#59c1b4" fill-rule="nonzero" stroke-linejoin="round" d="M 6.877008 -34.542699 C -5.401536 -21.882758 -14.776536 -4.203132 -21.82624 17.475018 C -21.82624 17.475018 10.973956 34.539486 10.973956 34.539486 C 10.973956 34.539486 18.122086 7.829348 18.122086 7.829348 C 21.825334 -13.627345 20.976417 -30.593388 6.877008 -34.542699 Z M 6.877008 -34.542699 " stroke="#253237" stroke-width="2" stroke-opacity="1" stroke-miterlimit="4"/><path stroke-linecap="round" transform="matrix(0.3175, 0, 0, 0.3175, 273.049499, 303.185577)" fill-opacity="1" fill="#253237" fill-rule="nonzero" stroke-linejoin="round" d="M -7.648519 -28.118943 C -7.648519 -28.118943 -11.880803 -23.160774 -11.105704 -16.726226 C -10.330606 -10.291679 -9.506295 -2.270026 -10.650488 2.872691 C -11.782377 8.027711 -10.182968 18.706844 -3.071747 23.406648 C 4.039473 28.118754 9.686619 25.01836 10.781599 18.288537 C 11.876579 11.546411 7.189079 0.473577 7.189079 0.473577 C 7.189079 0.473577 -7.648519 -28.118943 -7.648519 -28.118943 Z M -7.648519 -28.118943 " stroke="#253237" stroke-width="2" stroke-opacity="1" stroke-miterlimit="4"/><path stroke-linecap="round" transform="matrix(0.3175, 0, 0, 0.3175, 273.133962, 278.95334)" fill-opacity="1" fill="#d4d4d4" fill-rule="nonzero" stroke-linejoin="round" d="M 10.048054 -10.495264 C 6.627778 16.67009 0.254746 44.475209 5.803467 71.935839 C 6.28329 74.347256 6.861538 76.795583 6.615475 79.243909 C 6.369412 81.692236 5.114491 84.202079 2.912227 85.124815 C 0.623841 86.096764 -2.107458 85.063299 -3.817596 83.205524 C -5.527734 81.347748 -6.401258 78.837905 -7.028718 76.352669 C -10.399781 62.782295 -7.520844 48.486035 -7.557754 34.460445 C -7.619269 14.394008 -12.835805 -4.786603 -14.792006 -24.606977 C -16.76051 -44.476563 -15.39486 -64.887489 -14.459821 -84.781682 C -5.515431 -85.224595 3.675022 -86.098119 12.557896 -84.818591 C 12.557896 -84.818591 15.62138 -68.233945 15.830534 -66.400776 C 16.544117 -60.372233 16.765573 -54.257567 16.408782 -48.179811 C 15.670593 -35.482961 11.63516 -23.105992 10.048054 -10.495264 Z M 10.048054 -10.495264 " stroke="#253237" stroke-width="2" stroke-opacity="1" stroke-miterlimit="4"/><path stroke-linecap="round" transform="matrix(0.3175, 0, 0, 0.3175, 267.294832, 237.904393)" fill-opacity="1" fill="#253237" fill-rule="nonzero" stroke-linejoin="round" d="M -36.287856 -101.162951 C -36.287856 -101.162951 35.033502 -102.56551 35.033502 -102.56551 C 60.291869 -65.988246 49.04679 15.71697 39.733306 95.047679 C 12.543345 102.564904 -14.695828 101.949746 -42.008821 93.288329 C -53.499962 15.569333 -60.291301 -57.622105 -36.287856 -101.162951 Z M -36.287856 -101.162951 " stroke="#253237" stroke-width="2" stroke-opacity="1" stroke-miterlimit="4"/><path stroke-linecap="round" transform="matrix(0.3175, 0, 0, 0.3175, 268.338443, 185.258455)" fill-opacity="1" fill="#59c1b4" fill-rule="nonzero" stroke-linejoin="round" d="M -48.531513 -57.962162 C -38.602871 -63.990705 -28.268226 -67.952319 -17.281513 -68.653599 C -17.281513 -68.653599 -8.152576 -59.696906 -8.152576 -59.696906 C -8.152576 -59.696906 15.494078 -74.657536 15.494078 -74.657536 C 15.494078 -74.657536 54.87646 -57.962162 54.87646 -57.962162 C 41.392208 -17.287949 33.468979 23.127898 31.746538 63.236165 C 7.976853 74.653488 -15.805135 74.07524 -39.57482 64.651028 C -37.446375 41.754866 -36.658974 21.479276 -41.112714 11.452209 C -53.255923 2.66776 -54.879938 -14.101433 -45.837123 -38.929189 C -45.431119 -44.034996 -46.686041 -50.715607 -48.531513 -57.962162 Z M -48.531513 -57.962162 " stroke="#253237" stroke-width="2" stroke-opacity="1" stroke-miterlimit="4"/><path stroke-linecap="round" transform="matrix(0.3175, 0, 0, 0.3175, 268.055552, 157.973778)" fill-opacity="1" fill="#d4d4d4" fill-rule="nonzero" stroke-linejoin="round" d="M -16.39052 -10.362786 C -16.39052 -10.362786 -16.39052 17.294694 -16.39052 17.294694 C -16.39052 17.294694 -7.261583 26.239084 -7.261583 26.239084 C -7.261583 26.239084 16.385071 11.278454 16.385071 11.278454 C 16.385071 11.278454 16.163614 -26.233849 16.163614 -26.233849 C 16.163614 -26.233849 -16.39052 -10.362786 -16.39052 -10.362786 Z M -16.39052 -10.362786 " stroke="#253237" stroke-width="2" stroke-opacity="1" stroke-miterlimit="4"/><path stroke-linecap="round" transform="matrix(0.3175, 0, 0, 0.3175, 268.055552, 157.973778)" fill-opacity="1" fill="#d4d4d4" fill-rule="nonzero" stroke-linejoin="round" d="M -16.39052 -10.362786 C -16.39052 -10.362786 -16.39052 17.294694 -16.39052 17.294694 C -16.39052 17.294694 -7.261583 26.239084 -7.261583 26.239084 C -7.261583 26.239084 16.385071 11.278454 16.385071 11.278454 C 16.385071 11.278454 16.163614 -26.233849 16.163614 -26.233849 C 16.163614 -26.233849 -16.39052 -10.362786 -16.39052 -10.362786 Z M -16.39052 -10.362786 " stroke="#253237" stroke-width="2" stroke-opacity="1" stroke-miterlimit="4"/><path stroke-linecap="round" transform="matrix(0.3175, 0, 0, 0.3175, 267.923776, 154.387432)" fill-opacity="1" fill="#253237" fill-rule="nonzero" stroke-linejoin="round" d="M -15.963172 3.024328 C -15.963172 3.024328 -15.667896 12.177871 -15.667896 12.177871 C -2.171341 12.399328 9.885746 2.679839 15.963502 -12.600673 C 6.73614 -4.259137 -5.60392 2.556808 -15.963172 3.024328 Z M -15.963172 3.024328 " stroke="#253237" stroke-width="2" stroke-opacity="1" stroke-miterlimit="4"/><path stroke-linecap="round" transform="matrix(0.3175, 0, 0, 0.3175, 262.585329, 165.18579)" fill-opacity="1" fill="#59c1b4" fill-rule="nonzero" stroke-linejoin="round" d="M 0.850834 -9.369614 C -7.589126 -5.887823 -9.963634 -1.926209 -8.155071 2.552138 C -7.047788 5.283437 -4.697886 7.313457 -1.929678 8.076252 C 2.733216 9.368083 6.534889 7.202729 9.967468 3.524087 C 9.967468 3.524087 0.850834 -5.420303 0.850834 -5.420303 C 0.850834 -5.420303 0.850834 -9.369614 0.850834 -9.369614 Z M 0.850834 -9.369614 " stroke="#253237" stroke-width="2" stroke-opacity="1" stroke-miterlimit="4"/><path stroke-linecap="round" transform="matrix(0.3175, 0, 0, 0.3175, 270.981316, 164.851777)" fill-opacity="1" fill="#59c1b4" fill-rule="nonzero" stroke-linejoin="round" d="M -16.476584 4.576096 C -16.476584 4.576096 7.170069 -10.384534 7.170069 -10.384534 C 7.170069 -10.384534 7.170069 -13.423412 7.170069 -13.423412 C 16.47125 -5.697034 16.163672 1.672552 6.751762 8.709954 C -3.988887 13.42206 -11.235443 11.035249 -16.476584 4.576096 Z M -16.476584 4.576096 " stroke="#253237" stroke-width="2" stroke-opacity="1" stroke-miterlimit="4"/><path stroke-linecap="round" transform="matrix(0.3175, 0, 0, 0.3175, 264.33573, 189.553903)" fill="none" stroke-linejoin="round" d="M -23.092359 -1.806091 C -16.633206 0.371566 -9.669623 -1.363178 -3.087438 -3.073316 C -1.930942 -3.380895 -0.737537 -3.688473 0.443566 -3.528532 C 2.116794 -3.319379 3.556263 -2.236702 5.020338 -1.350875 C 10.495239 1.970976 16.880574 2.856802 23.093664 3.681113 " stroke="#253237" stroke-width="2" stroke-opacity="1" stroke-miterlimit="4"/><path stroke-linecap="round" transform="matrix(0.312088, -0.0583716, 0.0583716, 0.312088, 276.999831, 202.36654)" fill-opacity="1" fill="#d4d4d4" fill-rule="nonzero" stroke-linejoin="round" d="M -172.285059 91.191282 C -172.285059 91.191282 128.870178 -147.558351 128.870178 -147.558351 C 128.870178 -147.558351 172.285844 -93.464985 172.285844 -93.464985 C 172.285844 -93.464985 -130.520502 147.55423 -130.520502 147.55423 C -130.520502 147.55423 -172.285059 91.191282 -172.285059 91.191282 Z M -172.285059 91.191282 " stroke="#253237" stroke-width="2" stroke-opacity="1" stroke-miterlimit="4"/><path stroke-linecap="round" transform="matrix(0.312088, -0.0583716, 0.0583716, 0.312088, 232.258276, 251.629613)" fill-opacity="1" fill="#ffffff" fill-rule="nonzero" stroke-linejoin="round" d="M -36.839822 35.413132 C -36.839822 35.413132 -7.24994 -30.909709 -7.24994 -30.909709 C -7.24994 -30.909709 -5.243107 -35.415793 -5.243107 -35.415793 C -5.243107 -35.415793 4.480198 -33.196661 4.480198 -33.196661 C 4.480198 -33.196661 5.407687 -24.436871 5.407687 -24.436871 C 5.407687 -24.436871 12.098494 -22.935122 12.098494 -22.935122 C 12.098494 -22.935122 13.058189 -13.142956 13.058189 -13.142956 C 13.058189 -13.142956 20.340701 -11.793383 20.340701 -11.793383 C 20.340701 -11.793383 20.718523 -1.834685 20.718523 -1.834685 C 20.718523 -1.834685 28.715242 -0.489212 28.715242 -0.489212 C 28.715242 -0.489212 28.164196 7.743709 28.164196 7.743709 C 28.164196 7.743709 36.841733 10.468169 36.841733 10.468169 C 36.841733 10.468169 36.52145 20.947155 36.52145 20.947155 C 36.52145 20.947155 -36.839822 35.413132 -36.839822 35.413132 Z M -36.839822 35.413132 " stroke="#253237" stroke-width="2" stroke-opacity="1" stroke-miterlimit="4"/><path stroke-linecap="round" transform="matrix(0.312088, -0.0583716, 0.0583716, 0.312088, 270.597409, 201.692214)" fill-opacity="1" fill="#d4d4d4" fill-rule="nonzero" stroke-linejoin="round" d="M 118.699121 -93.979739 C 118.699121 -93.979739 117.988295 -94.863679 117.988295 -94.863679 C 117.988295 -94.863679 -118.700036 94.863063 -118.700036 94.863063 " stroke="#253237" stroke-width="2" stroke-opacity="1" stroke-miterlimit="4"/><path stroke-linecap="round" transform="matrix(0.312088, -0.0583716, 0.0583716, 0.312088, 277.516275, 208.115391)" fill-opacity="1" fill="#d4d4d4" fill-rule="nonzero" stroke-linejoin="round" d="M 118.876327 -93.737987 C 118.876327 -93.737987 118.167763 -94.63402 118.167763 -94.63402 C 118.167763 -94.63402 -118.87372 94.638658 -118.87372 94.638658 " stroke="#253237" stroke-width="2" stroke-opacity="1" stroke-miterlimit="4"/><path stroke-linecap="round" transform="matrix(0.312088, -0.0583716, 0.0583716, 0.312088, 225.15683, 261.807523)" fill-opacity="1" fill="#253237" fill-rule="nonzero" stroke-linejoin="round" d="M -1.806274 -8.019534 C -1.806274 -8.019534 8.960082 4.482981 8.960082 4.482981 C 8.960082 4.482981 -8.960818 8.015207 -8.960818 8.015207 C -8.960818 8.015207 -1.806274 -8.019534 -1.806274 -8.019534 Z M -1.806274 -8.019534 " stroke="#253237" stroke-width="2" stroke-opacity="1" stroke-miterlimit="4"/><path stroke-linecap="round" transform="matrix(0.312088, -0.0583716, 0.0583716, 0.312088, 308.802728, 180.702103)" fill-opacity="1" fill="#d4d4d4" fill-rule="nonzero" stroke-linejoin="round" d="M 11.518918 -0.120281 C 11.518918 -0.120281 6.433188 -10.471382 6.433188 -10.471382 C 5.5118 -12.37099 3.692991 -13.286931 1.759339 -14.12422 C -1.426119 -15.496037 -4.165997 -14.231149 -6.574714 -10.989299 C -9.028759 -7.70586 -10.201413 -3.644547 -10.203356 0.447984 C -10.203356 0.447984 -10.203403 15.50532 -10.203403 15.50532 " stroke="#253237" stroke-width="2" stroke-opacity="1" stroke-miterlimit="4"/><path stroke-linecap="round" transform="matrix(0.301445, 0.0996854, -0.0996854, 0.301445, 266.146597, 221.964213)" fill-opacity="1" fill="#d4d4d4" fill-rule="nonzero" stroke-linejoin="round" d="M -18.479746 -14.050105 C -10.841219 -14.580508 -2.700063 -13.786909 5.684728 -12.374123 C 6.812536 -12.17691 7.916518 -11.777441 8.864229 -11.106002 C 10.371241 -10.03639 10.796244 -8.790384 10.310497 -7.398702 C 9.61706 -5.381125 7.509411 -4.191723 5.385595 -4.383525 C 5.385595 -4.383525 -4.545139 -5.220287 -4.545139 -5.220287 C -1.55797 -3.240642 1.605339 -1.707998 4.897787 -0.490186 C 9.138687 1.087819 13.733257 1.188234 17.716206 -0.0122701 C 18.42093 -0.232358 19.117835 -0.436903 19.787516 -0.645402 C 22.637499 -1.510118 25.503069 0.885533 25.01362 3.83345 C 24.808496 5.015707 24.381617 6.193546 23.717441 7.359148 C 21.455137 11.411671 17.13848 13.875829 12.511805 14.187742 C 6.527101 14.585909 -0.0147739 13.691068 -7.485206 10.615277 C -7.485206 10.615277 -25.508144 1.491718 -25.508144 1.491718 " stroke="#253237" stroke-width="2" stroke-opacity="1" stroke-miterlimit="4"/><path fill="#d4d4d4" d="M 246.585938 202 C 243.367188 198.636719 238.28125 203.507812 241.5 206.871094 C 241.5 206.871094 258.308594 219.871094 258.308594 219.871094 C 258.308594 219.871094 261.976562 215.890625 261.976562 215.890625 C 261.976562 215.890625 246.585938 202 246.585938 202 Z M 246.585938 202 " fill-opacity="1" fill-rule="nonzero"/><path stroke-linecap="round" transform="matrix(0.301445, 0.0996854, -0.0996854, 0.301445, 254.994655, 209.587707)" fill="none" stroke-linejoin="round" d="M -27.113831 -11.941473 C -27.113831 -11.941473 27.111118 11.943588 27.111118 11.943588 " stroke="#253237" stroke-width="2" stroke-opacity="1" stroke-miterlimit="4"/><path stroke-linecap="round" transform="matrix(0.301445, 0.0996854, -0.0996854, 0.301445, 249.731239, 209.749937)" fill="none" stroke-linejoin="round" d="M -34.079765 -16.48682 C -34.106465 -8.534479 -35.659164 -5.118328 -27.461041 -0.469 C -27.461041 -0.469 35.657833 21.783711 35.657833 21.783711 " stroke="#253237" stroke-width="2" stroke-opacity="1" stroke-miterlimit="4"/><path fill="#253237" d="M 272.0625 149.75 C 272.0625 149.75 262.6875 152.25 262.6875 152.25 C 262.6875 152.25 262.5 157.0625 262.5 157.0625 C 262.5 157.0625 269 154.875 269 154.875 C 269 154.875 272.375 151.0625 272.375 151.0625 C 272.375 151.0625 272.0625 149.75 272.0625 149.75 Z M 272.0625 149.75 " fill-opacity="1" fill-rule="nonzero"/><path stroke-linecap="round" transform="matrix(0.317495, 0.00184098, -0.00184098, 0.317495, 261.997545, 142.734015)" fill-opacity="1" fill="#d4d4d4" fill-rule="nonzero" stroke-linejoin="round" d="M -26.983304 -20.782715 C -36.627408 41.048356 4.250474 54.837153 35.270607 23.59131 C 35.270607 23.59131 36.618793 -4.886473 36.618793 -4.886473 C 36.618793 -4.886473 36.619516 -23.858252 36.619516 -23.858252 C 24.161122 -54.839683 -20.050686 -47.361252 -26.983304 -20.782715 Z M -26.983304 -20.782715 " stroke="#253237" stroke-width="2" stroke-opacity="1" stroke-miterlimit="4"/><path stroke-linecap="round" transform="matrix(0.317495, 0.00184098, -0.00184098, 0.317495, 275.504019, 143.591167)" fill-opacity="1" fill="#d4d4d4" fill-rule="nonzero" stroke-linejoin="round" d="M -5.923918 -7.33953 C 1.45613 -11.922261 5.779171 -11.135306 6.569671 -4.237707 C 6.816054 -2.061442 6.595139 0.154443 6.053705 2.261456 C 3.6836 11.51502 -1.444587 11.913856 -6.823469 11.514428 C -6.823469 11.514428 -5.923918 -7.33953 -5.923918 -7.33953 Z M -5.923918 -7.33953 " stroke="#253237" stroke-width="2" stroke-opacity="1" stroke-miterlimit="4"/><path stroke-linecap="round" transform="matrix(0.317495, 0.00184098, -0.00184098, 0.317495, 263.647662, 132.653898)" fill-opacity="1" fill="#253237" fill-rule="nonzero" stroke-linejoin="round" d="M 8.987615 -7.845033 C 8.919314 10.081353 17.390209 21.757333 31.607 29.229158 C 31.607 29.229158 35.661322 -7.839756 35.661322 -7.839756 C -1.803378 -29.227211 -19.122479 -15.802253 -35.658648 -1.028465 C -35.658648 -1.028465 -31.996348 10.995285 -31.996348 10.995285 C -17.007836 9.395062 -2.986554 4.367811 8.987615 -7.845033 Z M 8.987615 -7.845033 " stroke="#253237" stroke-width="2" stroke-opacity="1" stroke-miterlimit="4"/><path stroke-linecap="round" transform="matrix(0.317495, 0.00184098, -0.00184098, 0.317495, 261.997545, 142.734015)" fill-opacity="1" fill="#d4d4d4" fill-rule="nonzero" stroke-linejoin="round" d="M -26.983304 -20.782715 C -36.627408 41.048356 4.250474 54.837153 35.270607 23.59131 C 35.270607 23.59131 36.618793 -4.886473 36.618793 -4.886473 C 36.618793 -4.886473 36.619516 -23.858252 36.619516 -23.858252 C 24.161122 -54.839683 -20.050686 -47.361252 -26.983304 -20.782715 Z M -26.983304 -20.782715 " stroke="#253237" stroke-width="2" stroke-opacity="1" stroke-miterlimit="4"/><path stroke-linecap="round" transform="matrix(0.317495, 0.00184098, -0.00184098, 0.317495, 275.504019, 143.591167)" fill-opacity="1" fill="#d4d4d4" fill-rule="nonzero" stroke-linejoin="round" d="M -5.923918 -7.33953 C 1.45613 -11.922261 5.779171 -11.135306 6.569671 -4.237707 C 6.816054 -2.061442 6.595139 0.154443 6.053705 2.261456 C 3.6836 11.51502 -1.444587 11.913856 -6.823469 11.514428 C -6.823469 11.514428 -5.923918 -7.33953 -5.923918 -7.33953 Z M -5.923918 -7.33953 " stroke="#253237" stroke-width="2" stroke-opacity="1" stroke-miterlimit="4"/><path stroke-linecap="round" transform="matrix(0.317495, 0.00184098, -0.00184098, 0.317495, 263.647662, 132.653898)" fill-opacity="1" fill="#253237" fill-rule="nonzero" stroke-linejoin="round" d="M 8.987615 -7.845033 C 8.919314 10.081353 17.390209 21.757333 31.607 29.229158 C 31.607 29.229158 35.661322 -7.839756 35.661322 -7.839756 C -1.803378 -29.227211 -19.122479 -15.802253 -35.658648 -1.028465 C -35.658648 -1.028465 -31.996348 10.995285 -31.996348 10.995285 C -17.007836 9.395062 -2.986554 4.367811 8.987615 -7.845033 Z M 8.987615 -7.845033 " stroke="#253237" stroke-width="2" stroke-opacity="1" stroke-miterlimit="4"/><path stroke-linecap="round" transform="matrix(0.317495, 0.00184098, -0.00184098, 0.317495, 259.517536, 143.004115)" fill="none" stroke-linejoin="round" d="M 0.96689 -12.567992 C 0.291919 -1.663305 -1.387761 5.716145 -3.858364 10.368836 C -2.345991 12.328604 0.583608 12.569987 3.855192 12.37877 " stroke="#253237" stroke-width="2" stroke-opacity="1" stroke-miterlimit="4"/><path stroke-linecap="round" transform="matrix(0.317495, 0.00184098, -0.00184098, 0.317495, 266.080857, 137.827155)" fill="none" stroke-linejoin="round" d="M -6.009535 -1.586142 C -1.041501 -2.020959 2.7814 -0.492903 6.019467 2.022812 " stroke="#253237" stroke-width="2" stroke-opacity="1" stroke-miterlimit="4"/><path stroke-linecap="round" transform="matrix(0.317495, 0.00184098, -0.00184098, 0.317495, 256.31404, 137.339977)" fill="none" stroke-linejoin="round" d="M -4.486654 1.53891 C -1.485702 -0.766915 1.499562 -1.53473 4.481439 -0.764605 " stroke="#253237" stroke-width="2" stroke-opacity="1" stroke-miterlimit="4"/><path stroke-linecap="round" transform="matrix(0.317495, 0.00184098, -0.00110463, 0.190504, 264.616336, 141.470292)" fill-opacity="1" fill="#253237" fill-rule="nonzero" stroke-linejoin="round" d="M 1.921984 -0.00616467 C 1.929475 2.146764 1.061958 3.877549 0.00383389 3.867269 C -1.066522 3.877613 -1.933792 2.143088 -1.928979 -0.00995959 C -1.924096 -2.142503 -1.068882 -3.873169 0.00154529 -3.863008 C 1.059598 -3.873233 1.926868 -2.138708 1.921984 -0.00616467 Z M 1.921984 -0.00616467 " stroke="#253237" stroke-width="2" stroke-opacity="1" stroke-miterlimit="4"/><path stroke-linecap="round" transform="matrix(0.317495, 0.00184098, -0.00110463, 0.190504, 265.537077, 140.816475)" fill-opacity="1" fill="#253237" fill-rule="nonzero" stroke-linejoin="round" d="M -2.888291 -0.936172 C -0.673333 -0.834548 1.232339 -1.22205 2.890525 -2.017256 C 2.465914 -0.290752 0.895418 0.954712 -1.020203 2.018967 C -1.020203 2.018967 -2.888291 -0.936172 -2.888291 -0.936172 Z M -2.888291 -0.936172 " stroke="#253237" stroke-width="2" stroke-opacity="1" stroke-miterlimit="4"/><path stroke-linecap="round" transform="matrix(0.317495, 0.00184098, -0.00110463, 0.190504, 256.904196, 141.132824)" fill-opacity="1" fill="#253237" fill-rule="nonzero" stroke-linejoin="round" d="M -1.925163 -0.00195845 C -1.930047 2.130585 -1.062777 3.86511 -0.00465283 3.875389 C 1.065703 3.865046 1.920917 2.13438 1.9258 0.00183647 C 1.930684 -2.130707 1.063415 -3.865232 0.00529018 -3.875511 C -1.065066 -3.865168 -1.932582 -2.134383 -1.925163 -0.00195845 Z M -1.925163 -0.00195845 " stroke="#253237" stroke-width="2" stroke-opacity="1" stroke-miterlimit="4"/><path stroke-linecap="round" transform="matrix(0.317495, 0.00184098, -0.00110463, 0.190504, 255.991219, 140.499308)" fill-opacity="1" fill="#253237" fill-rule="nonzero" stroke-linejoin="round" d="M 2.891116 -0.926514 C 0.676872 -0.823097 -1.231511 -1.214751 -2.882959 -2.018983 C -2.470898 -0.280059 -0.89177 0.955472 1.018967 2.02376 C 1.018967 2.02376 2.891116 -0.926514 2.891116 -0.926514 Z M 2.891116 -0.926514 " stroke="#253237" stroke-width="2" stroke-opacity="1" stroke-miterlimit="4"/><path stroke-linecap="round" transform="matrix(0.317495, 0.00184098, -0.00184098, 0.317495, 264.100622, 149.591299)" fill-opacity="1" fill="#253237" fill-rule="nonzero" stroke-linejoin="round" d="M 9.427556 -4.20548 C 9.904841 -2.522688 6.897617 2.945136 1.689587 4.427131 C -3.518514 5.896823 -8.937483 2.827799 -9.427142 1.132775 C -9.904427 -0.550017 -5.352267 -0.56411 -0.144238 -2.046104 C 5.063792 -3.528099 8.937896 -5.900504 9.427556 -4.20548 Z M 9.427556 -4.20548 " stroke="#253237" stroke-width="2" stroke-opacity="1" stroke-miterlimit="4"/></svg>