<svg xmlns="http://www.w3.org/2000/svg" xmlns:xlink="http://www.w3.org/1999/xlink" width="500" zoomAndPan="magnify" viewBox="0 0 375 374.999991" height="500" preserveAspectRatio="xMidYMid meet" version="1.0"><defs><clipPath id="61f91ea6f6"><path d="M 18.75 35.328125 L 351.675781 35.328125 L 351.675781 343.472656 L 18.75 343.472656 Z M 18.75 35.328125 " clip-rule="nonzero"/></clipPath><clipPath id="5c1ababce4"><path d="M 46.613281 35.328125 L 348.820312 35.328125 L 348.820312 343.472656 L 46.613281 343.472656 Z M 46.613281 35.328125 " clip-rule="nonzero"/></clipPath><clipPath id="592bd793c8"><path d="M 19 31.617188 L 343 31.617188 L 343 334 L 19 334 Z M 19 31.617188 " clip-rule="nonzero"/></clipPath><clipPath id="446f446738"><path d="M 43.039062 36.042969 L 351.675781 36.042969 L 351.675781 343.472656 L 43.039062 343.472656 Z M 43.039062 36.042969 " clip-rule="nonzero"/></clipPath><clipPath id="a013c8591f"><path d="M 81 114 L 356.242188 114 L 356.242188 334 L 81 334 Z M 81 114 " clip-rule="nonzero"/></clipPath></defs><g clip-path="url(#61f91ea6f6)"><path fill="#fdf9f0" d="M 313.027344 276.28125 L 300.640625 257.644531 L 295.859375 257.644531 C 291.011719 264.113281 285.894531 270.351562 280.558594 276.28125 Z M 68.996094 66.636719 C 68.996094 66.921875 69.019531 67.207031 69.058594 67.480469 C 72.132812 65.386719 75.320312 63.40625 78.605469 61.53125 C 77.617188 60.863281 76.433594 60.472656 75.152344 60.472656 C 71.757812 60.472656 68.996094 63.238281 68.996094 66.636719 Z M 351.53125 287.421875 L 337.167969 287.421875 L 343.671875 343.472656 L 333.238281 343.472656 L 326.734375 287.421875 L 289.953125 287.421875 L 283.453125 343.472656 L 273.015625 343.472656 L 279.523438 287.421875 L 269.894531 287.421875 C 242.074219 314.679688 209.511719 333.054688 177.59375 333.054688 C 163.328125 333.054688 149.195312 330.273438 135.582031 325.261719 L 137.699219 343.472656 L 127.261719 343.472656 L 124.621094 320.699219 C 109.90625 313.851562 95.960938 304.441406 83.3125 293.191406 L 77.476562 343.472656 L 67.042969 343.472656 L 73.546875 287.421875 L 59.976562 287.421875 L 59.976562 276.28125 L 66.476562 276.28125 C 37.589844 243.578125 18.75 201.085938 18.75 160.785156 C 18.75 123.195312 35.132812 94.078125 60.773438 73.59375 C 60.328125 72.675781 59.972656 71.722656 59.714844 70.738281 L 55.023438 69.707031 L 55.023438 63.570312 L 59.714844 62.539062 C 60.078125 61.160156 60.621094 59.839844 61.335938 58.609375 L 58.75 54.558594 L 63.085938 50.222656 L 67.132812 52.8125 C 68.363281 52.09375 69.679688 51.546875 71.058594 51.1875 L 72.089844 46.488281 L 78.222656 46.488281 L 79.25 51.1875 C 80.628906 51.546875 81.945312 52.09375 83.175781 52.8125 L 87.222656 50.222656 L 91.558594 54.558594 L 91.242188 55.054688 C 93.574219 53.988281 95.941406 52.96875 98.34375 51.996094 L 98.34375 46.488281 L 114.003906 46.488281 C 126.609375 42.679688 139.90625 40.0625 153.539062 38.65625 C 153.523438 38.539062 153.503906 38.425781 153.503906 38.300781 C 153.503906 36.878906 154.664062 35.71875 156.085938 35.71875 C 157.472656 35.71875 158.59375 36.8125 158.65625 38.183594 C 164.921875 37.675781 171.242188 37.421875 177.59375 37.421875 C 259.167969 37.421875 344.96875 49.757812 344.96875 131.398438 C 344.96875 169.074219 326.6875 214.929688 298.984375 253.390625 L 320.636719 253.390625 L 335.84375 276.28125 L 351.53125 276.28125 Z M 56.796875 40.886719 C 58.21875 40.886719 59.378906 39.730469 59.378906 38.300781 C 59.378906 36.878906 58.21875 35.71875 56.796875 35.71875 C 55.371094 35.71875 54.210938 36.878906 54.210938 38.300781 C 54.210938 39.730469 55.371094 40.886719 56.796875 40.886719 Z M 255.0625 38.300781 C 255.0625 36.878906 256.226562 35.71875 257.648438 35.71875 C 259.074219 35.71875 260.234375 36.878906 260.234375 38.300781 C 260.234375 39.730469 259.074219 40.886719 257.648438 40.886719 C 256.226562 40.886719 255.0625 39.730469 255.0625 38.300781 " fill-opacity="1" fill-rule="nonzero"/></g><g clip-path="url(#5c1ababce4)"><path fill="#5ec9cc" d="M 250.570312 40.171875 C 251.601562 40.171875 252.441406 39.335938 252.441406 38.300781 C 252.441406 37.273438 251.601562 36.433594 250.570312 36.433594 C 249.539062 36.433594 248.699219 37.273438 248.699219 38.300781 C 248.699219 39.335938 249.539062 40.171875 250.570312 40.171875 Z M 292.855469 96.152344 L 301.554688 96.152344 L 301.554688 94.007812 L 292.855469 94.007812 Z M 289.476562 67.207031 L 277.617188 60.121094 L 277.617188 74.300781 Z M 319.105469 86.785156 L 247.988281 86.785156 L 247.988281 49.609375 L 319.105469 49.609375 Z M 305.34375 91.625 L 299.285156 91.625 L 299.285156 93.769531 L 305.34375 93.769531 Z M 292.855469 91.625 L 292.855469 93.769531 L 298.914062 93.769531 L 298.914062 91.625 Z M 305.34375 89.242188 L 292.855469 89.242188 L 292.855469 91.386719 L 305.34375 91.386719 Z M 105.363281 96.273438 L 98.09375 96.273438 L 98.09375 96.988281 L 105.363281 96.988281 Z M 109.152344 94.605469 L 109.152344 93.886719 L 104.523438 93.886719 L 104.523438 94.605469 Z M 102.722656 93.886719 L 98.09375 93.886719 L 98.09375 94.605469 L 102.722656 94.605469 Z M 109.152344 91.507812 L 98.09375 91.507812 L 98.09375 92.222656 L 109.152344 92.222656 Z M 59.75 96.273438 L 52.480469 96.273438 L 52.480469 96.988281 L 59.75 96.988281 Z M 63.535156 94.605469 L 63.535156 93.886719 L 58.910156 93.886719 L 58.910156 94.605469 Z M 57.105469 93.886719 L 52.480469 93.886719 L 52.480469 94.605469 L 57.105469 94.605469 Z M 63.535156 91.507812 L 52.480469 91.507812 L 52.480469 92.222656 L 63.535156 92.222656 Z M 111.777344 74.074219 L 99.058594 74.074219 L 99.058594 78.527344 L 111.777344 78.527344 Z M 111.777344 54.640625 L 99.058594 54.640625 L 99.058594 59.09375 L 111.777344 59.09375 Z M 49.71875 40.171875 C 50.75 40.171875 51.585938 39.335938 51.585938 38.300781 C 51.585938 37.273438 50.75 36.433594 49.71875 36.433594 C 48.6875 36.433594 47.847656 37.273438 47.847656 38.300781 C 47.847656 39.335938 48.6875 40.171875 49.71875 40.171875 Z M 64.515625 66.636719 C 64.515625 72.507812 69.289062 77.285156 75.152344 77.285156 C 81.023438 77.285156 85.796875 72.507812 85.796875 66.636719 C 85.796875 60.769531 81.023438 55.988281 75.152344 55.988281 C 69.289062 55.988281 64.515625 60.769531 64.515625 66.636719 Z M 63.800781 66.636719 C 63.800781 60.371094 68.894531 55.273438 75.152344 55.273438 C 81.417969 55.273438 86.511719 60.371094 86.511719 66.636719 C 86.511719 72.902344 81.417969 78 75.152344 78 C 68.894531 78 63.800781 72.902344 63.800781 66.636719 Z M 199.367188 130.78125 C 198.78125 130.78125 198.25 131.257812 198.175781 131.839844 C 198.101562 132.425781 198.515625 132.898438 199.101562 132.898438 C 199.683594 132.898438 200.21875 132.425781 200.289062 131.839844 C 200.363281 131.257812 199.949219 130.78125 199.367188 130.78125 Z M 229.691406 131.125 L 219.054688 131.125 C 218.660156 131.125 218.339844 131.445312 218.339844 131.839844 C 218.339844 132.234375 218.660156 132.554688 219.054688 132.554688 L 229.691406 132.554688 C 230.085938 132.554688 230.40625 132.234375 230.40625 131.839844 C 230.40625 131.445312 230.085938 131.125 229.691406 131.125 Z M 149.007812 40.886719 C 150.433594 40.886719 151.59375 39.730469 151.59375 38.300781 C 151.59375 36.878906 150.433594 35.71875 149.007812 35.71875 C 147.585938 35.71875 146.425781 36.878906 146.425781 38.300781 C 146.425781 39.730469 147.585938 40.886719 149.007812 40.886719 Z M 168.277344 88.980469 C 168.277344 90.109375 169.195312 91.027344 170.320312 91.027344 L 185.792969 91.027344 C 186.921875 91.027344 187.839844 90.109375 187.839844 88.980469 C 187.839844 87.851562 186.921875 86.9375 185.792969 86.9375 L 170.320312 86.9375 C 169.195312 86.9375 168.277344 87.851562 168.277344 88.980469 Z M 154.128906 78.585938 L 169.601562 78.585938 C 170.730469 78.585938 171.648438 77.671875 171.648438 76.539062 C 171.648438 75.410156 170.730469 74.496094 169.601562 74.496094 L 154.128906 74.496094 C 153 74.496094 152.082031 75.410156 152.082031 76.539062 C 152.082031 77.671875 153 78.585938 154.128906 78.585938 Z M 154.128906 66.144531 L 180.9375 66.144531 C 182.066406 66.144531 182.980469 65.226562 182.980469 64.097656 C 182.980469 62.96875 182.066406 62.050781 180.9375 62.050781 L 154.128906 62.050781 C 153 62.050781 152.082031 62.96875 152.082031 64.097656 C 152.082031 65.226562 153 66.144531 154.128906 66.144531 Z M 186.105469 78.585938 L 191.578125 78.585938 C 192.707031 78.585938 193.621094 77.671875 193.621094 76.539062 C 193.621094 75.410156 192.707031 74.496094 191.578125 74.496094 L 186.105469 74.496094 C 184.980469 74.496094 184.0625 75.410156 184.0625 76.539062 C 184.0625 77.671875 184.980469 78.585938 186.105469 78.585938 Z M 180.527344 78.585938 C 181.65625 78.585938 182.574219 77.671875 182.574219 76.539062 C 182.574219 75.410156 181.65625 74.496094 180.527344 74.496094 L 175.058594 74.496094 C 173.929688 74.496094 173.011719 75.410156 173.011719 76.539062 C 173.011719 77.671875 173.929688 78.585938 175.058594 78.585938 Z M 154.128906 59.925781 L 159.601562 59.925781 C 160.726562 59.925781 161.644531 59.003906 161.644531 57.878906 C 161.644531 56.75 160.726562 55.832031 159.601562 55.832031 L 154.128906 55.832031 C 153 55.832031 152.082031 56.75 152.082031 57.878906 C 152.082031 59.003906 153 59.925781 154.128906 59.925781 Z M 154.128906 53.703125 L 172.554688 53.703125 C 173.683594 53.703125 174.601562 52.785156 174.601562 51.65625 C 174.601562 50.527344 173.683594 49.609375 172.554688 49.609375 L 154.128906 49.609375 C 153 49.609375 152.082031 50.527344 152.082031 51.65625 C 152.082031 52.785156 153 53.703125 154.128906 53.703125 Z M 193.921875 324.066406 L 63.886719 324.066406 C 58.53125 324.066406 54.191406 328.410156 54.191406 333.769531 C 54.191406 339.128906 58.53125 343.472656 63.886719 343.472656 L 193.921875 343.472656 C 199.277344 343.472656 203.617188 339.128906 203.617188 333.769531 C 203.617188 328.410156 199.277344 324.066406 193.921875 324.066406 Z M 343.945312 121.355469 C 343.945312 120.960938 343.625 120.640625 343.234375 120.640625 L 308.105469 120.640625 C 307.710938 120.640625 307.390625 120.960938 307.390625 121.355469 C 307.390625 121.753906 307.710938 122.070312 308.105469 122.070312 L 343.234375 122.070312 C 343.625 122.070312 343.945312 121.753906 343.945312 121.355469 Z M 327.441406 132.554688 L 333.464844 132.554688 C 333.859375 132.554688 334.179688 132.234375 334.179688 131.839844 C 334.179688 131.445312 333.859375 131.125 333.464844 131.125 L 327.441406 131.125 C 327.050781 131.125 326.726562 131.445312 326.726562 131.839844 C 326.726562 132.234375 327.050781 132.554688 327.441406 132.554688 Z M 341.605469 136.511719 C 341.605469 136.117188 341.285156 135.796875 340.890625 135.796875 L 326.855469 135.796875 C 326.464844 135.796875 326.140625 136.117188 326.140625 136.511719 C 326.140625 136.902344 326.464844 137.226562 326.855469 137.226562 L 340.890625 137.226562 C 341.285156 137.226562 341.605469 136.902344 341.605469 136.511719 Z M 326.269531 141.898438 L 333.476562 141.898438 C 333.871094 141.898438 334.191406 141.578125 334.191406 141.183594 C 334.191406 140.785156 333.871094 140.46875 333.476562 140.46875 L 326.269531 140.46875 C 325.875 140.46875 325.554688 140.785156 325.554688 141.183594 C 325.554688 141.578125 325.875 141.898438 326.269531 141.898438 Z M 322.046875 171.703125 C 321.652344 171.703125 321.332031 172.023438 321.332031 172.417969 C 321.332031 172.8125 321.652344 173.132812 322.046875 173.132812 L 328.066406 173.132812 C 328.460938 173.132812 328.78125 172.8125 328.78125 172.417969 C 328.78125 172.023438 328.460938 171.703125 328.066406 171.703125 Z M 336.207031 177.089844 C 336.207031 176.695312 335.886719 176.375 335.492188 176.375 L 321.460938 176.375 C 321.066406 176.375 320.746094 176.695312 320.746094 177.089844 C 320.746094 177.484375 321.066406 177.804688 321.460938 177.804688 L 335.492188 177.804688 C 335.886719 177.804688 336.207031 177.484375 336.207031 177.089844 Z M 328.792969 181.761719 C 328.792969 181.363281 328.476562 181.046875 328.078125 181.046875 L 320.875 181.046875 C 320.480469 181.046875 320.160156 181.363281 320.160156 181.761719 C 320.160156 182.15625 320.480469 182.476562 320.875 182.476562 L 328.078125 182.476562 C 328.476562 182.476562 328.792969 182.15625 328.792969 181.761719 Z M 313.417969 137.050781 C 313.417969 136.65625 313.097656 136.335938 312.703125 136.335938 L 300.664062 136.335938 C 300.269531 136.335938 299.949219 136.65625 299.949219 137.050781 C 299.949219 137.445312 300.269531 137.765625 300.664062 137.765625 L 312.703125 137.765625 C 313.097656 137.765625 313.417969 137.445312 313.417969 137.050781 Z M 307.386719 146.394531 C 307.386719 145.996094 307.070312 145.679688 306.671875 145.679688 L 296.15625 145.679688 C 295.761719 145.679688 295.441406 145.996094 295.441406 146.394531 C 295.441406 146.789062 295.761719 147.109375 296.15625 147.109375 L 306.671875 147.109375 C 307.070312 147.109375 307.386719 146.789062 307.386719 146.394531 Z M 304.875 205.074219 C 304.875 204.679688 304.554688 204.359375 304.160156 204.359375 L 285.222656 204.359375 C 284.828125 204.359375 284.507812 204.679688 284.507812 205.074219 C 284.507812 205.464844 284.828125 205.789062 285.222656 205.789062 L 304.160156 205.789062 C 304.554688 205.789062 304.875 205.464844 304.875 205.074219 Z M 251.144531 126.628906 L 198.910156 126.628906 C 196.9375 126.628906 195.136719 128.230469 194.890625 130.203125 L 194.03125 137.050781 L 253.410156 137.050781 L 254.269531 130.203125 C 254.515625 128.230469 253.117188 126.628906 251.144531 126.628906 Z M 245.160156 180.378906 C 245.160156 179.980469 244.839844 179.664062 244.445312 179.664062 L 238.070312 179.664062 C 237.675781 179.664062 237.355469 179.980469 237.355469 180.378906 C 237.355469 180.773438 237.675781 181.09375 238.070312 181.09375 L 244.445312 181.09375 C 244.839844 181.09375 245.160156 180.773438 245.160156 180.378906 Z M 229.785156 183.808594 C 229.785156 183.414062 229.464844 183.09375 229.070312 183.09375 L 223.101562 183.09375 C 222.707031 183.09375 222.386719 183.414062 222.386719 183.808594 C 222.386719 184.203125 222.707031 184.527344 223.101562 184.527344 L 229.070312 184.527344 C 229.464844 184.527344 229.785156 184.203125 229.785156 183.808594 Z M 217.429688 180.378906 C 217.429688 179.980469 217.109375 179.664062 216.714844 179.664062 L 210.34375 179.664062 C 209.945312 179.664062 209.628906 179.980469 209.628906 180.378906 C 209.628906 180.773438 209.945312 181.09375 210.34375 181.09375 L 216.714844 181.09375 C 217.109375 181.09375 217.429688 180.773438 217.429688 180.378906 Z M 200.070312 208.007812 L 194.628906 208.007812 C 193.878906 208.007812 193.195312 208.617188 193.101562 209.367188 C 193.007812 210.117188 193.539062 210.726562 194.289062 210.726562 L 199.730469 210.726562 C 200.480469 210.726562 201.164062 210.117188 201.261719 209.367188 C 201.351562 208.617188 200.824219 208.007812 200.070312 208.007812 Z M 194.484375 198.699219 C 195.066406 198.699219 195.597656 198.222656 195.671875 197.640625 C 195.746094 197.058594 195.332031 196.582031 194.75 196.582031 C 194.167969 196.582031 193.632812 197.058594 193.5625 197.640625 C 193.484375 198.222656 193.902344 198.699219 194.484375 198.699219 Z M 193.859375 183.808594 C 193.859375 184.203125 194.179688 184.527344 194.574219 184.527344 L 198.957031 184.527344 C 199.351562 184.527344 199.671875 184.203125 199.671875 183.808594 C 199.671875 183.414062 199.351562 183.09375 198.957031 183.09375 L 194.574219 183.09375 C 194.179688 183.09375 193.859375 183.414062 193.859375 183.808594 Z M 221.910156 146.394531 C 221.910156 145.996094 221.589844 145.679688 221.195312 145.679688 L 207.703125 145.679688 C 207.308594 145.679688 206.988281 145.996094 206.988281 146.394531 C 206.988281 146.789062 207.308594 147.109375 207.703125 147.109375 L 221.195312 147.109375 C 221.589844 147.109375 221.910156 146.789062 221.910156 146.394531 Z M 267.625 223.757812 C 267.625 224.152344 267.945312 224.472656 268.339844 224.472656 L 295.660156 224.472656 C 296.054688 224.472656 296.371094 224.152344 296.371094 223.757812 C 296.371094 223.363281 296.054688 223.042969 295.660156 223.042969 L 268.339844 223.042969 C 267.945312 223.042969 267.625 223.363281 267.625 223.757812 Z M 273.820312 174.421875 C 273.820312 174.816406 274.140625 175.136719 274.535156 175.136719 L 281.742188 175.136719 C 282.132812 175.136719 282.457031 174.816406 282.457031 174.421875 C 282.457031 174.023438 282.132812 173.707031 281.742188 173.707031 L 274.535156 173.707031 C 274.140625 173.707031 273.820312 174.023438 273.820312 174.421875 Z M 276.167969 155.738281 C 276.167969 156.128906 276.488281 156.453125 276.882812 156.453125 L 285.5625 156.453125 C 285.960938 156.453125 286.277344 156.128906 286.277344 155.738281 C 286.277344 155.339844 285.960938 155.023438 285.5625 155.023438 L 276.882812 155.023438 C 276.488281 155.023438 276.167969 155.339844 276.167969 155.738281 Z M 277.925781 141.722656 C 277.925781 142.117188 278.246094 142.4375 278.640625 142.4375 L 284.660156 142.4375 C 285.054688 142.4375 285.375 142.117188 285.375 141.722656 C 285.375 141.328125 285.054688 141.007812 284.660156 141.007812 L 278.640625 141.007812 C 278.246094 141.007812 277.925781 141.328125 277.925781 141.722656 Z M 301.847656 155.738281 C 301.847656 155.339844 301.527344 155.023438 301.132812 155.023438 L 288.6875 155.023438 C 288.292969 155.023438 287.972656 155.339844 287.972656 155.738281 C 287.972656 156.128906 288.292969 156.453125 288.6875 156.453125 L 301.132812 156.453125 C 301.527344 156.453125 301.847656 156.128906 301.847656 155.738281 Z M 303.742188 170.464844 C 304.136719 170.464844 304.453125 170.144531 304.453125 169.75 C 304.453125 169.355469 304.136719 169.035156 303.742188 169.035156 L 293.222656 169.035156 C 292.828125 169.035156 292.507812 169.355469 292.507812 169.75 C 292.507812 170.144531 292.828125 170.464844 293.222656 170.464844 Z M 348.503906 123.742188 L 337.4375 223.628906 C 337.113281 226.578125 334.625 228.804688 331.660156 228.804688 L 176.703125 228.804688 C 175.023438 228.804688 173.488281 228.117188 172.371094 226.867188 C 172.148438 226.621094 171.957031 226.355469 171.785156 226.082031 C 170.175781 237.523438 162.464844 250.433594 162.464844 260.503906 C 162.464844 271.558594 170.886719 287.421875 170.886719 287.421875 C 170.886719 287.421875 167.898438 312.179688 137.554688 312.179688 C 126.589844 312.179688 118.847656 310.253906 114.863281 308.953125 C 112.796875 308.277344 111.273438 306.539062 110.804688 304.410156 C 107.277344 288.390625 109.671875 265.640625 112.15625 257.644531 C 113.839844 252.234375 111.859375 224.542969 105.371094 204.800781 C 102.058594 194.726562 109.554688 184.363281 120.148438 184.363281 L 122.660156 176.375 C 122.660156 176.375 130.636719 172.511719 139.070312 174.226562 C 147.5 175.945312 151.527344 178.265625 154.667969 178.707031 L 152.632812 184.40625 C 156.109375 184.710938 159.21875 186.785156 160.808594 189.945312 C 164.238281 196.765625 169.695312 208.480469 171.484375 217.28125 L 181.988281 122.460938 C 182.3125 119.507812 184.796875 117.28125 187.765625 117.28125 L 342.726562 117.28125 C 344.398438 117.28125 345.941406 117.972656 347.054688 119.21875 C 348.175781 120.46875 348.6875 122.074219 348.503906 123.742188 Z M 203.363281 130.78125 C 202.785156 130.78125 202.25 131.257812 202.175781 131.839844 C 202.105469 132.425781 202.515625 132.898438 203.101562 132.898438 C 203.683594 132.898438 204.214844 132.425781 204.289062 131.839844 C 204.363281 131.257812 203.949219 130.78125 203.363281 130.78125 Z M 207.367188 130.78125 C 206.785156 130.78125 206.25 131.257812 206.179688 131.839844 C 206.105469 132.425781 206.519531 132.898438 207.101562 132.898438 C 207.683594 132.898438 208.21875 132.425781 208.289062 131.839844 C 208.363281 131.257812 207.949219 130.78125 207.367188 130.78125 Z M 97.867188 127.515625 L 89.363281 127.515625 L 89.363281 146.082031 L 97.867188 146.082031 Z M 68.023438 146.082031 L 76.53125 146.082031 L 76.53125 130.089844 L 68.023438 130.089844 Z M 55.191406 146.082031 L 46.6875 146.082031 L 46.6875 135.667969 L 55.191406 135.667969 L 55.191406 146.082031 " fill-opacity="1" fill-rule="nonzero"/></g><g clip-path="url(#592bd793c8)"><path fill="#f3d0d2" d="M 75.152344 73.519531 C 78.953125 73.519531 82.03125 70.441406 82.03125 66.636719 C 82.03125 62.835938 78.953125 59.757812 75.152344 59.757812 C 71.359375 59.757812 68.28125 62.835938 68.28125 66.636719 C 68.28125 70.441406 71.359375 73.519531 75.152344 73.519531 Z M 54.925781 38.300781 C 54.925781 39.335938 55.765625 40.171875 56.796875 40.171875 C 57.828125 40.171875 58.664062 39.335938 58.664062 38.300781 C 58.664062 37.273438 57.828125 36.433594 56.796875 36.433594 C 55.765625 36.433594 54.925781 37.273438 54.925781 38.300781 Z M 59.664062 54.660156 L 62.179688 58.597656 C 61.320312 59.980469 60.679688 61.511719 60.300781 63.140625 L 55.734375 64.144531 L 55.734375 69.128906 L 60.300781 70.136719 C 60.679688 71.765625 61.320312 73.296875 62.179688 74.679688 L 59.664062 78.617188 L 63.183594 82.140625 L 67.121094 79.625 C 68.503906 80.484375 70.03125 81.121094 71.660156 81.503906 L 72.664062 86.070312 L 77.644531 86.070312 L 78.652344 81.503906 C 80.277344 81.121094 81.808594 80.484375 83.1875 79.625 L 87.125 82.140625 L 90.648438 78.617188 L 88.132812 74.679688 C 88.988281 73.296875 89.628906 71.765625 90.011719 70.136719 L 94.574219 69.128906 L 94.574219 64.144531 L 90.011719 63.140625 C 89.628906 61.511719 88.988281 59.980469 88.132812 58.597656 L 90.648438 54.660156 L 87.125 51.132812 L 83.1875 53.652344 C 81.808594 52.792969 80.277344 52.152344 78.652344 51.773438 L 77.644531 47.203125 L 72.664062 47.203125 L 71.660156 51.773438 C 70.03125 52.152344 68.503906 52.792969 67.121094 53.652344 L 63.183594 51.132812 Z M 99.058594 71.089844 L 118.492188 71.089844 L 118.492188 66.636719 L 99.058594 66.636719 Z M 99.058594 51.65625 L 118.492188 51.65625 L 118.492188 47.203125 L 99.058594 47.203125 Z M 78.742188 91.507812 L 67.683594 91.507812 L 67.683594 92.222656 L 78.742188 92.222656 Z M 78.742188 93.886719 L 74.113281 93.886719 L 74.113281 94.605469 L 78.742188 94.605469 Z M 72.308594 94.605469 L 72.308594 93.886719 L 67.683594 93.886719 L 67.683594 94.605469 Z M 74.957031 96.273438 L 67.683594 96.273438 L 67.683594 96.988281 L 74.957031 96.988281 Z M 127.046875 87.292969 L 139.972656 87.292969 L 139.972656 67.566406 L 127.046875 67.566406 Z M 127.046875 66.851562 L 139.972656 66.851562 L 139.972656 47.125 L 127.046875 47.125 Z M 147.140625 88.980469 C 147.140625 89.71875 147.738281 90.3125 148.46875 90.3125 L 148.597656 90.3125 C 149.332031 90.3125 149.925781 89.71875 149.925781 88.980469 C 149.925781 88.246094 149.332031 87.652344 148.597656 87.652344 L 148.46875 87.652344 C 147.738281 87.652344 147.140625 88.246094 147.140625 88.980469 Z M 147.140625 82.761719 C 147.140625 83.496094 147.738281 84.09375 148.46875 84.09375 L 148.597656 84.09375 C 149.332031 84.09375 149.925781 83.496094 149.925781 82.761719 C 149.925781 82.027344 149.332031 81.429688 148.597656 81.429688 L 148.46875 81.429688 C 147.738281 81.429688 147.140625 82.027344 147.140625 82.761719 Z M 147.140625 76.542969 C 147.140625 77.277344 147.738281 77.871094 148.46875 77.871094 L 148.597656 77.871094 C 149.332031 77.871094 149.925781 77.277344 149.925781 76.542969 C 149.925781 75.804688 149.332031 75.210938 148.597656 75.210938 L 148.46875 75.210938 C 147.738281 75.210938 147.140625 75.804688 147.140625 76.542969 Z M 147.140625 70.320312 C 147.140625 71.054688 147.738281 71.652344 148.46875 71.652344 L 148.597656 71.652344 C 149.332031 71.652344 149.925781 71.054688 149.925781 70.320312 C 149.925781 69.585938 149.332031 68.988281 148.597656 68.988281 L 148.46875 68.988281 C 147.738281 68.988281 147.140625 69.585938 147.140625 70.320312 Z M 147.140625 64.097656 C 147.140625 64.835938 147.738281 65.429688 148.46875 65.429688 L 148.597656 65.429688 C 149.332031 65.429688 149.925781 64.835938 149.925781 64.097656 C 149.925781 63.363281 149.332031 62.769531 148.597656 62.769531 L 148.46875 62.769531 C 147.738281 62.769531 147.140625 63.363281 147.140625 64.097656 Z M 147.140625 57.878906 C 147.140625 58.613281 147.738281 59.210938 148.46875 59.210938 L 148.597656 59.210938 C 149.332031 59.210938 149.925781 58.613281 149.925781 57.878906 C 149.925781 57.144531 149.332031 56.546875 148.597656 56.546875 L 148.46875 56.546875 C 147.738281 56.546875 147.140625 57.144531 147.140625 57.878906 Z M 147.140625 51.65625 C 147.140625 52.390625 147.738281 52.988281 148.46875 52.988281 L 148.597656 52.988281 C 149.332031 52.988281 149.925781 52.390625 149.925781 51.65625 C 149.925781 50.921875 149.332031 50.324219 148.597656 50.324219 L 148.46875 50.324219 C 147.738281 50.324219 147.140625 50.921875 147.140625 51.65625 Z M 147.140625 45.433594 C 147.140625 46.167969 147.738281 46.765625 148.46875 46.765625 L 148.597656 46.765625 C 149.332031 46.765625 149.925781 46.167969 149.925781 45.433594 C 149.925781 44.699219 149.332031 44.101562 148.597656 44.101562 L 148.46875 44.101562 C 147.738281 44.101562 147.140625 44.699219 147.140625 45.433594 Z M 147.140625 38.300781 C 147.140625 39.335938 147.976562 40.171875 149.007812 40.171875 C 150.042969 40.171875 150.878906 39.335938 150.878906 38.300781 C 150.878906 37.273438 150.042969 36.433594 149.007812 36.433594 C 147.976562 36.433594 147.140625 37.273438 147.140625 38.300781 Z M 152.796875 88.980469 C 152.796875 89.71875 153.394531 90.3125 154.128906 90.3125 L 165.410156 90.3125 C 166.144531 90.3125 166.742188 89.71875 166.742188 88.980469 C 166.742188 88.246094 166.144531 87.652344 165.410156 87.652344 L 154.128906 87.652344 C 153.394531 87.652344 152.796875 88.246094 152.796875 88.980469 Z M 152.796875 82.761719 C 152.796875 83.496094 153.394531 84.09375 154.128906 84.09375 L 178.269531 84.09375 C 179.003906 84.09375 179.601562 83.496094 179.601562 82.761719 C 179.601562 82.027344 179.003906 81.429688 178.269531 81.429688 L 154.128906 81.429688 C 153.394531 81.429688 152.796875 82.027344 152.796875 82.761719 Z M 152.796875 76.542969 C 152.796875 77.277344 153.394531 77.871094 154.128906 77.871094 L 169.601562 77.871094 C 170.335938 77.871094 170.933594 77.277344 170.933594 76.542969 C 170.933594 75.804688 170.335938 75.210938 169.601562 75.210938 L 154.128906 75.210938 C 153.394531 75.210938 152.796875 75.804688 152.796875 76.542969 Z M 152.796875 70.320312 C 152.796875 71.054688 153.394531 71.652344 154.128906 71.652344 L 174.554688 71.652344 C 175.289062 71.652344 175.882812 71.054688 175.882812 70.320312 C 175.882812 69.585938 175.289062 68.988281 174.554688 68.988281 L 154.128906 68.988281 C 153.394531 68.988281 152.796875 69.585938 152.796875 70.320312 Z M 152.796875 64.097656 C 152.796875 64.835938 153.394531 65.429688 154.128906 65.429688 L 180.9375 65.429688 C 181.671875 65.429688 182.265625 64.835938 182.265625 64.097656 C 182.265625 63.363281 181.671875 62.769531 180.9375 62.769531 L 154.128906 62.769531 C 153.394531 62.769531 152.796875 63.363281 152.796875 64.097656 Z M 152.796875 57.878906 C 152.796875 58.613281 153.394531 59.210938 154.128906 59.210938 L 159.601562 59.210938 C 160.335938 59.210938 160.929688 58.613281 160.929688 57.878906 C 160.929688 57.144531 160.335938 56.546875 159.601562 56.546875 L 154.128906 56.546875 C 153.394531 56.546875 152.796875 57.144531 152.796875 57.878906 Z M 152.796875 51.65625 C 152.796875 52.390625 153.394531 52.988281 154.128906 52.988281 L 172.554688 52.988281 C 173.289062 52.988281 173.886719 52.390625 173.886719 51.65625 C 173.886719 50.921875 173.289062 50.324219 172.554688 50.324219 L 154.128906 50.324219 C 153.394531 50.324219 152.796875 50.921875 152.796875 51.65625 Z M 152.796875 45.433594 C 152.796875 46.167969 153.394531 46.765625 154.128906 46.765625 L 162.589844 46.765625 C 163.324219 46.765625 163.917969 46.167969 163.917969 45.433594 C 163.917969 44.699219 163.324219 44.101562 162.589844 44.101562 L 154.128906 44.101562 C 153.394531 44.101562 152.796875 44.699219 152.796875 45.433594 Z M 154.214844 38.300781 C 154.214844 39.335938 155.054688 40.171875 156.085938 40.171875 C 157.117188 40.171875 157.957031 39.335938 157.957031 38.300781 C 157.957031 37.273438 157.117188 36.433594 156.085938 36.433594 C 155.054688 36.433594 154.214844 37.273438 154.214844 38.300781 Z M 193.003906 56.546875 L 166.195312 56.546875 C 165.460938 56.546875 164.867188 57.144531 164.867188 57.878906 C 164.867188 58.613281 165.460938 59.210938 166.195312 59.210938 L 193.003906 59.210938 C 193.738281 59.210938 194.335938 58.613281 194.335938 57.878906 C 194.335938 57.144531 193.738281 56.546875 193.003906 56.546875 Z M 193.574219 64.097656 C 193.574219 63.363281 192.980469 62.769531 192.246094 62.769531 L 186.773438 62.769531 C 186.039062 62.769531 185.441406 63.363281 185.441406 64.097656 C 185.441406 64.835938 186.039062 65.429688 186.773438 65.429688 L 192.246094 65.429688 C 192.980469 65.429688 193.574219 64.835938 193.574219 64.097656 Z M 192.90625 76.542969 C 192.90625 75.804688 192.3125 75.210938 191.578125 75.210938 L 186.105469 75.210938 C 185.371094 75.210938 184.777344 75.804688 184.777344 76.542969 C 184.777344 77.277344 185.371094 77.871094 186.105469 77.871094 L 191.578125 77.871094 C 192.3125 77.871094 192.90625 77.277344 192.90625 76.542969 Z M 181.859375 76.542969 C 181.859375 75.804688 181.265625 75.210938 180.527344 75.210938 L 175.054688 75.210938 C 174.320312 75.210938 173.726562 75.804688 173.726562 76.542969 C 173.726562 77.277344 174.320312 77.871094 175.054688 77.871094 L 180.527344 77.871094 C 181.265625 77.871094 181.859375 77.277344 181.859375 76.542969 Z M 187.125 88.980469 C 187.125 88.246094 186.53125 87.652344 185.792969 87.652344 L 170.320312 87.652344 C 169.585938 87.652344 168.992188 88.246094 168.992188 88.980469 C 168.992188 89.71875 169.585938 90.3125 170.320312 90.3125 L 185.792969 90.3125 C 186.53125 90.3125 187.125 89.71875 187.125 88.980469 Z M 223.746094 87.292969 L 240.660156 87.292969 L 240.660156 67.566406 L 223.746094 67.566406 Z M 223.746094 66.851562 L 240.660156 66.851562 L 240.660156 47.125 L 223.746094 47.125 Z M 248.699219 86.070312 L 318.390625 86.070312 L 318.390625 50.324219 L 248.699219 50.324219 Z M 255.777344 38.300781 C 255.777344 39.335938 256.617188 40.171875 257.648438 40.171875 C 258.679688 40.171875 259.519531 39.335938 259.519531 38.300781 C 259.519531 37.273438 258.679688 36.433594 257.648438 36.433594 C 256.617188 36.433594 255.777344 37.273438 255.777344 38.300781 Z M 304.628906 89.957031 L 293.566406 89.957031 L 293.566406 90.671875 L 304.628906 90.671875 Z M 304.628906 92.339844 L 300 92.339844 L 300 93.054688 L 304.628906 93.054688 Z M 298.199219 93.054688 L 298.199219 92.339844 L 293.566406 92.339844 L 293.566406 93.054688 Z M 300.839844 94.722656 L 293.566406 94.722656 L 293.566406 95.4375 L 300.839844 95.4375 Z M 281.765625 89.957031 L 270.707031 89.957031 L 270.707031 90.671875 L 281.765625 90.671875 Z M 281.765625 92.339844 L 277.136719 92.339844 L 277.136719 93.054688 L 281.765625 93.054688 Z M 275.335938 93.054688 L 275.335938 92.339844 L 270.707031 92.339844 L 270.707031 93.054688 Z M 277.980469 94.722656 L 270.707031 94.722656 L 270.707031 95.4375 L 277.980469 95.4375 Z M 43.273438 101.730469 L 43.273438 35.328125 C 43.273438 33.351562 44.875 31.753906 46.847656 31.753906 L 123.476562 31.753906 C 125.449219 31.753906 127.046875 33.351562 127.046875 35.328125 L 127.046875 46.410156 L 139.972656 46.410156 L 139.972656 35.328125 C 139.972656 33.351562 141.570312 31.753906 143.542969 31.753906 L 220.171875 31.753906 C 222.148438 31.753906 223.746094 33.351562 223.746094 35.328125 L 223.746094 46.410156 L 240.660156 46.410156 L 240.660156 35.328125 C 240.660156 33.351562 242.261719 31.753906 244.234375 31.753906 L 320.859375 31.753906 C 322.835938 31.753906 324.429688 33.351562 324.429688 35.328125 L 324.429688 87.292969 L 333.664062 87.292969 C 333.808594 87.527344 333.941406 87.773438 334.082031 88.007812 L 324.429688 88.007812 L 324.429688 101.730469 C 324.429688 103.707031 322.835938 105.304688 320.859375 105.304688 L 244.234375 105.304688 C 242.261719 105.304688 240.660156 103.707031 240.660156 101.730469 L 240.660156 88.007812 L 223.746094 88.007812 L 223.746094 94.292969 C 223.746094 96.269531 222.148438 97.867188 220.171875 97.867188 L 143.542969 97.867188 C 141.570312 97.867188 139.972656 96.269531 139.972656 94.292969 L 139.972656 88.007812 L 127.046875 88.007812 L 127.046875 101.730469 C 127.046875 103.707031 125.449219 105.304688 123.476562 105.304688 L 46.847656 105.304688 C 44.875 105.304688 43.273438 103.707031 43.273438 101.730469 Z M 289.242188 120.640625 C 288.847656 120.640625 288.527344 120.960938 288.527344 121.355469 C 288.527344 121.753906 288.847656 122.070312 289.242188 122.070312 L 303.671875 122.070312 C 304.070312 122.070312 304.386719 121.753906 304.386719 121.355469 C 304.386719 120.960938 304.070312 120.640625 303.671875 120.640625 Z M 304.875 205.074219 C 304.875 204.679688 304.554688 204.359375 304.160156 204.359375 L 285.222656 204.359375 C 284.828125 204.359375 284.507812 204.679688 284.507812 205.074219 C 284.507812 205.464844 284.828125 205.789062 285.222656 205.789062 L 304.160156 205.789062 C 304.554688 205.789062 304.875 205.464844 304.875 205.074219 Z M 296.960938 219.085938 C 296.960938 218.691406 296.640625 218.371094 296.246094 218.371094 L 268.925781 218.371094 C 268.53125 218.371094 268.210938 218.691406 268.210938 219.085938 C 268.210938 219.480469 268.53125 219.800781 268.925781 219.800781 L 296.246094 219.800781 C 296.640625 219.800781 296.960938 219.480469 296.960938 219.085938 Z M 296.371094 223.757812 C 296.371094 223.363281 296.054688 223.042969 295.660156 223.042969 L 268.339844 223.042969 C 267.945312 223.042969 267.625 223.363281 267.625 223.757812 C 267.625 224.152344 267.945312 224.472656 268.339844 224.472656 L 295.660156 224.472656 C 296.054688 224.472656 296.371094 224.152344 296.371094 223.757812 Z M 269.382812 209.742188 C 269.382812 210.140625 269.703125 210.457031 270.097656 210.457031 L 292.175781 210.457031 C 292.570312 210.457031 292.890625 210.140625 292.890625 209.742188 C 292.890625 209.347656 292.570312 209.027344 292.175781 209.027344 L 270.097656 209.027344 C 269.703125 209.027344 269.382812 209.347656 269.382812 209.742188 Z M 269.972656 205.074219 C 269.972656 205.464844 270.289062 205.789062 270.6875 205.789062 L 280.15625 205.789062 C 280.550781 205.789062 280.871094 205.464844 280.871094 205.074219 C 280.871094 204.679688 280.550781 204.359375 280.15625 204.359375 L 270.6875 204.359375 C 270.289062 204.359375 269.972656 204.679688 269.972656 205.074219 Z M 270.558594 200.402344 C 270.558594 200.796875 270.875 201.117188 271.273438 201.117188 L 298.589844 201.117188 C 298.988281 201.117188 299.304688 200.796875 299.304688 200.402344 C 299.304688 200.007812 298.988281 199.6875 298.589844 199.6875 L 271.273438 199.6875 C 270.875 199.6875 270.558594 200.007812 270.558594 200.402344 Z M 265.300781 200.402344 C 265.300781 200.007812 264.980469 199.6875 264.585938 199.6875 L 259.820312 199.6875 C 259.429688 199.6875 259.109375 200.007812 259.109375 200.402344 C 259.109375 200.796875 259.429688 201.117188 259.820312 201.117188 L 264.585938 201.117188 C 264.980469 201.117188 265.300781 200.796875 265.300781 200.402344 Z M 264.710938 205.074219 C 264.710938 204.679688 264.394531 204.359375 263.996094 204.359375 L 259.234375 204.359375 C 258.839844 204.359375 258.523438 204.679688 258.523438 205.074219 C 258.523438 205.464844 258.839844 205.789062 259.234375 205.789062 L 263.996094 205.789062 C 264.394531 205.789062 264.710938 205.464844 264.710938 205.074219 Z M 264.125 209.742188 C 264.125 209.347656 263.808594 209.027344 263.410156 209.027344 L 258.648438 209.027344 C 258.253906 209.027344 257.933594 209.347656 257.933594 209.742188 C 257.933594 210.140625 258.253906 210.457031 258.648438 210.457031 L 263.410156 210.457031 C 263.808594 210.457031 264.125 210.140625 264.125 209.742188 Z M 262.953125 219.085938 C 262.953125 218.691406 262.632812 218.371094 262.238281 218.371094 L 257.476562 218.371094 C 257.082031 218.371094 256.761719 218.691406 256.761719 219.085938 C 256.761719 219.480469 257.082031 219.800781 257.476562 219.800781 L 262.238281 219.800781 C 262.632812 219.800781 262.953125 219.480469 262.953125 219.085938 Z M 262.367188 223.757812 C 262.367188 223.363281 262.046875 223.042969 261.652344 223.042969 L 256.890625 223.042969 C 256.492188 223.042969 256.175781 223.363281 256.175781 223.757812 C 256.175781 224.152344 256.492188 224.472656 256.890625 224.472656 L 261.652344 224.472656 C 262.046875 224.472656 262.367188 224.152344 262.367188 223.757812 Z M 314.324219 197.527344 L 310.394531 228.804688 L 301.816406 228.804688 C 301.890625 228.695312 301.941406 228.570312 301.941406 228.429688 C 301.941406 228.03125 301.621094 227.714844 301.226562 227.714844 L 282.289062 227.714844 C 281.894531 227.714844 281.574219 228.03125 281.574219 228.429688 C 281.574219 228.570312 281.625 228.695312 281.695312 228.804688 L 277.8125 228.804688 C 277.882812 228.695312 277.9375 228.570312 277.9375 228.429688 C 277.9375 228.03125 277.617188 227.714844 277.222656 227.714844 L 267.75 227.714844 C 267.355469 227.714844 267.035156 228.03125 267.035156 228.429688 C 267.035156 228.570312 267.089844 228.695312 267.160156 228.804688 L 261.65625 228.804688 C 261.726562 228.695312 261.777344 228.570312 261.777344 228.429688 C 261.777344 228.03125 261.460938 227.714844 261.0625 227.714844 L 256.304688 227.714844 C 255.90625 227.714844 255.589844 228.03125 255.589844 228.429688 C 255.589844 228.570312 255.640625 228.695312 255.710938 228.804688 L 251.015625 228.804688 L 254.945312 197.527344 C 255.191406 195.554688 256.992188 193.953125 258.964844 193.953125 L 311.199219 193.953125 C 313.171875 193.953125 314.570312 195.554688 314.324219 197.527344 Z M 212.902344 208.007812 L 207.460938 208.007812 C 206.710938 208.007812 206.027344 208.617188 205.933594 209.367188 C 205.839844 210.117188 206.371094 210.726562 207.121094 210.726562 L 212.5625 210.726562 C 213.3125 210.726562 213.996094 210.117188 214.09375 209.367188 C 214.183594 208.617188 213.65625 208.007812 212.902344 208.007812 Z M 200.070312 208.007812 L 194.628906 208.007812 C 193.878906 208.007812 193.195312 208.617188 193.101562 209.367188 C 193.007812 210.117188 193.539062 210.726562 194.289062 210.726562 L 199.730469 210.726562 C 200.480469 210.726562 201.164062 210.117188 201.261719 209.367188 C 201.351562 208.617188 200.824219 208.007812 200.070312 208.007812 Z M 190.746094 196.582031 C 190.164062 196.582031 189.632812 197.058594 189.558594 197.640625 C 189.488281 198.222656 189.898438 198.699219 190.484375 198.699219 C 191.066406 198.699219 191.597656 198.222656 191.671875 197.640625 C 191.746094 197.058594 191.332031 196.582031 190.746094 196.582031 Z M 194.484375 198.699219 C 195.066406 198.699219 195.597656 198.222656 195.671875 197.640625 C 195.746094 197.058594 195.332031 196.582031 194.75 196.582031 C 194.167969 196.582031 193.632812 197.058594 193.5625 197.640625 C 193.484375 198.222656 193.902344 198.699219 194.484375 198.699219 Z M 198.484375 198.699219 C 199.066406 198.699219 199.601562 198.222656 199.671875 197.640625 C 199.75 197.058594 199.335938 196.582031 198.75 196.582031 C 198.164062 196.582031 197.636719 197.058594 197.558594 197.640625 C 197.488281 198.222656 197.902344 198.699219 198.484375 198.699219 Z M 209.609375 203.144531 L 198.964844 203.144531 C 198.570312 203.144531 198.25 203.464844 198.25 203.859375 C 198.25 204.257812 198.570312 204.574219 198.964844 204.574219 L 209.609375 204.574219 C 210.007812 204.574219 210.324219 204.257812 210.324219 203.859375 C 210.324219 203.464844 210.007812 203.144531 209.609375 203.144531 Z M 220.425781 193.945312 C 222.398438 193.945312 223.800781 195.550781 223.550781 197.519531 L 222.050781 209.4375 C 221.804688 211.414062 220.003906 213.011719 218.035156 213.011719 L 187.695312 213.011719 C 185.722656 213.011719 184.324219 211.414062 184.570312 209.4375 L 186.066406 197.519531 C 186.316406 195.550781 188.117188 193.945312 190.089844 193.945312 Z M 204.289062 131.839844 C 204.363281 131.257812 203.949219 130.78125 203.363281 130.78125 C 202.785156 130.78125 202.25 131.257812 202.175781 131.839844 C 202.105469 132.425781 202.515625 132.898438 203.101562 132.898438 C 203.683594 132.898438 204.214844 132.425781 204.289062 131.839844 Z M 242.007812 183.808594 C 242.007812 183.414062 241.683594 183.09375 241.292969 183.09375 L 237.640625 183.09375 C 237.246094 183.09375 236.925781 183.414062 236.925781 183.808594 C 236.925781 184.203125 237.246094 184.527344 237.640625 184.527344 L 241.292969 184.527344 C 241.683594 184.527344 242.007812 184.203125 242.007812 183.808594 Z M 236.769531 147.109375 C 237.164062 147.109375 237.484375 146.789062 237.484375 146.394531 C 237.484375 145.996094 237.164062 145.679688 236.769531 145.679688 L 226.136719 145.679688 C 225.742188 145.679688 225.421875 145.996094 225.421875 146.394531 C 225.421875 146.789062 225.742188 147.109375 226.136719 147.109375 Z M 234.699219 152.652344 L 208.820312 152.652344 C 207.769531 152.652344 206.808594 153.507812 206.675781 154.5625 L 205.894531 160.789062 C 205.761719 161.839844 206.507812 162.695312 207.558594 162.695312 L 233.4375 162.695312 C 234.492188 162.695312 235.449219 161.839844 235.582031 160.789062 L 236.363281 154.5625 C 236.496094 153.507812 235.75 152.652344 234.699219 152.652344 Z M 223.535156 181.09375 L 227.183594 181.09375 C 227.578125 181.09375 227.898438 180.773438 227.898438 180.378906 C 227.898438 179.980469 227.578125 179.664062 227.183594 179.664062 L 223.535156 179.664062 C 223.136719 179.664062 222.820312 179.980469 222.820312 180.378906 C 222.820312 180.773438 223.136719 181.09375 223.535156 181.09375 Z M 229.785156 183.808594 C 229.785156 183.414062 229.464844 183.09375 229.070312 183.09375 L 223.101562 183.09375 C 222.707031 183.09375 222.386719 183.414062 222.386719 183.808594 C 222.386719 184.203125 222.707031 184.527344 223.101562 184.527344 L 229.070312 184.527344 C 229.464844 184.527344 229.785156 184.203125 229.785156 183.808594 Z M 217.429688 180.378906 C 217.429688 179.980469 217.109375 179.664062 216.714844 179.664062 L 210.34375 179.664062 C 209.945312 179.664062 209.628906 179.980469 209.628906 180.378906 C 209.628906 180.773438 209.945312 181.09375 210.34375 181.09375 L 216.714844 181.09375 C 217.109375 181.09375 217.429688 180.773438 217.429688 180.378906 Z M 214.277344 183.808594 C 214.277344 183.414062 213.957031 183.09375 213.5625 183.09375 L 209.910156 183.09375 C 209.515625 183.09375 209.195312 183.414062 209.195312 183.808594 C 209.195312 184.203125 209.515625 184.527344 209.910156 184.527344 L 213.5625 184.527344 C 213.957031 184.527344 214.277344 184.203125 214.277344 183.808594 Z M 203.019531 180.378906 C 203.019531 179.980469 202.699219 179.664062 202.304688 179.664062 L 195.003906 179.664062 C 194.609375 179.664062 194.289062 179.980469 194.289062 180.378906 C 194.289062 180.773438 194.609375 181.09375 195.003906 181.09375 L 202.304688 181.09375 C 202.699219 181.09375 203.019531 180.773438 203.019531 180.378906 Z M 199.671875 183.808594 C 199.671875 183.414062 199.351562 183.09375 198.957031 183.09375 L 194.574219 183.09375 C 194.179688 183.09375 193.859375 183.414062 193.859375 183.808594 C 193.859375 184.203125 194.179688 184.527344 194.574219 184.527344 L 198.957031 184.527344 C 199.351562 184.527344 199.671875 184.203125 199.671875 183.808594 Z M 206.988281 146.394531 C 206.988281 146.789062 207.308594 147.109375 207.703125 147.109375 L 221.195312 147.109375 C 221.589844 147.109375 221.910156 146.789062 221.910156 146.394531 C 221.910156 145.996094 221.589844 145.679688 221.195312 145.679688 L 207.703125 145.679688 C 207.308594 145.679688 206.988281 145.996094 206.988281 146.394531 Z M 237.355469 180.378906 C 237.355469 180.773438 237.675781 181.09375 238.070312 181.09375 L 244.445312 181.09375 C 244.839844 181.09375 245.160156 180.773438 245.160156 180.378906 C 245.160156 179.980469 244.839844 179.664062 244.445312 179.664062 L 238.070312 179.664062 C 237.675781 179.664062 237.355469 179.980469 237.355469 180.378906 Z M 243.347656 188.71875 L 191.113281 188.71875 C 189.140625 188.71875 187.742188 187.121094 187.992188 185.144531 L 194.03125 137.050781 L 253.410156 137.050781 L 254.269531 130.203125 L 247.367188 185.144531 C 247.121094 187.121094 245.320312 188.71875 243.347656 188.71875 Z M 323.335938 223.738281 L 316.125 223.738281 C 315.734375 223.738281 315.410156 224.058594 315.410156 224.453125 C 315.410156 224.847656 315.734375 225.167969 316.125 225.167969 L 323.335938 225.167969 C 323.726562 225.167969 324.050781 224.847656 324.050781 224.453125 C 324.050781 224.058594 323.726562 223.738281 323.335938 223.738281 Z M 326.855469 219.066406 L 316.714844 219.066406 C 316.320312 219.066406 316 219.386719 316 219.78125 C 316 220.175781 316.320312 220.496094 316.714844 220.496094 L 326.855469 220.496094 C 327.253906 220.496094 327.570312 220.175781 327.570312 219.78125 C 327.570312 219.386719 327.253906 219.066406 326.855469 219.066406 Z M 317.300781 215.824219 L 323.320312 215.824219 C 323.714844 215.824219 324.035156 215.503906 324.035156 215.109375 C 324.035156 214.714844 323.714844 214.394531 323.320312 214.394531 L 317.300781 214.394531 C 316.90625 214.394531 316.585938 214.714844 316.585938 215.109375 C 316.585938 215.503906 316.90625 215.824219 317.300781 215.824219 Z M 330.351562 161.628906 L 323.144531 161.628906 C 322.75 161.628906 322.429688 161.949219 322.429688 162.34375 C 322.429688 162.742188 322.75 163.058594 323.144531 163.058594 L 330.351562 163.058594 C 330.742188 163.058594 331.066406 162.742188 331.066406 162.34375 C 331.066406 161.949219 330.742188 161.628906 330.351562 161.628906 Z M 333.871094 156.960938 L 323.730469 156.960938 C 323.335938 156.960938 323.015625 157.277344 323.015625 157.675781 C 323.015625 158.070312 323.335938 158.390625 323.730469 158.390625 L 333.871094 158.390625 C 334.269531 158.390625 334.585938 158.070312 334.585938 157.675781 C 334.585938 157.277344 334.269531 156.960938 333.871094 156.960938 Z M 324.316406 152.289062 C 323.921875 152.289062 323.601562 152.609375 323.601562 153.003906 C 323.601562 153.398438 323.921875 153.71875 324.316406 153.71875 L 330.335938 153.71875 C 330.734375 153.71875 331.050781 153.398438 331.050781 153.003906 C 331.050781 152.609375 330.734375 152.289062 330.335938 152.289062 Z M 313.417969 137.050781 C 313.417969 136.65625 313.097656 136.335938 312.703125 136.335938 L 300.664062 136.335938 C 300.269531 136.335938 299.949219 136.65625 299.949219 137.050781 C 299.949219 137.445312 300.269531 137.765625 300.664062 137.765625 L 312.703125 137.765625 C 313.097656 137.765625 313.417969 137.445312 313.417969 137.050781 Z M 307.386719 146.394531 C 307.386719 145.996094 307.070312 145.679688 306.671875 145.679688 L 296.15625 145.679688 C 295.761719 145.679688 295.441406 145.996094 295.441406 146.394531 C 295.441406 146.789062 295.761719 147.109375 296.15625 147.109375 L 306.671875 147.109375 C 307.070312 147.109375 307.386719 146.789062 307.386719 146.394531 Z M 304.453125 169.75 C 304.453125 169.355469 304.136719 169.035156 303.742188 169.035156 L 293.222656 169.035156 C 292.828125 169.035156 292.507812 169.355469 292.507812 169.75 C 292.507812 170.144531 292.828125 170.464844 293.222656 170.464844 L 303.742188 170.464844 C 304.136719 170.464844 304.453125 170.144531 304.453125 169.75 Z M 299.234375 174.421875 C 299.234375 174.023438 298.914062 173.707031 298.519531 173.707031 L 285.808594 173.707031 C 285.414062 173.707031 285.09375 174.023438 285.09375 174.421875 C 285.09375 174.816406 285.414062 175.136719 285.808594 175.136719 L 298.519531 175.136719 C 298.914062 175.136719 299.234375 174.816406 299.234375 174.421875 Z M 292.03125 179.089844 C 292.03125 178.695312 291.710938 178.375 291.316406 178.375 L 273.949219 178.375 C 273.554688 178.375 273.234375 178.695312 273.234375 179.089844 C 273.234375 179.488281 273.554688 179.804688 273.949219 179.804688 L 291.316406 179.804688 C 291.710938 179.804688 292.03125 179.488281 292.03125 179.089844 Z M 273.253906 137.050781 C 273.253906 136.65625 272.9375 136.335938 272.539062 136.335938 L 267.777344 136.335938 C 267.386719 136.335938 267.0625 136.65625 267.0625 137.050781 C 267.0625 137.445312 267.386719 137.765625 267.777344 137.765625 L 272.539062 137.765625 C 272.9375 137.765625 273.253906 137.445312 273.253906 137.050781 Z M 272.667969 141.722656 C 272.667969 141.328125 272.351562 141.007812 271.953125 141.007812 L 267.191406 141.007812 C 266.796875 141.007812 266.476562 141.328125 266.476562 141.722656 C 266.476562 142.117188 266.796875 142.4375 267.191406 142.4375 L 271.953125 142.4375 C 272.351562 142.4375 272.667969 142.117188 272.667969 141.722656 Z M 272.082031 146.394531 C 272.082031 145.996094 271.765625 145.679688 271.367188 145.679688 L 266.605469 145.679688 C 266.210938 145.679688 265.890625 145.996094 265.890625 146.394531 C 265.890625 146.789062 266.210938 147.109375 266.605469 147.109375 L 271.367188 147.109375 C 271.765625 147.109375 272.082031 146.789062 272.082031 146.394531 Z M 271.496094 151.0625 C 271.496094 150.671875 271.175781 150.347656 270.78125 150.347656 L 266.019531 150.347656 C 265.625 150.347656 265.304688 150.671875 265.304688 151.0625 C 265.304688 151.457031 265.625 151.777344 266.019531 151.777344 L 270.78125 151.777344 C 271.175781 151.777344 271.496094 151.457031 271.496094 151.0625 Z M 270.910156 155.738281 C 270.910156 155.339844 270.589844 155.023438 270.195312 155.023438 L 265.433594 155.023438 C 265.039062 155.023438 264.71875 155.339844 264.71875 155.738281 C 264.71875 156.128906 265.039062 156.453125 265.433594 156.453125 L 270.195312 156.453125 C 270.589844 156.453125 270.910156 156.128906 270.910156 155.738281 Z M 269.734375 165.078125 C 269.734375 164.683594 269.417969 164.363281 269.019531 164.363281 L 264.257812 164.363281 C 263.863281 164.363281 263.546875 164.683594 263.546875 165.078125 C 263.546875 165.472656 263.863281 165.792969 264.257812 165.792969 L 269.019531 165.792969 C 269.417969 165.792969 269.734375 165.472656 269.734375 165.078125 Z M 269.148438 169.75 C 269.148438 169.355469 268.828125 169.035156 268.433594 169.035156 L 263.671875 169.035156 C 263.277344 169.035156 262.957031 169.355469 262.957031 169.75 C 262.957031 170.144531 263.277344 170.464844 263.671875 170.464844 L 268.433594 170.464844 C 268.828125 170.464844 269.148438 170.144531 269.148438 169.75 Z M 268.5625 174.421875 C 268.5625 174.023438 268.242188 173.707031 267.847656 173.707031 L 263.085938 173.707031 C 262.691406 173.707031 262.371094 174.023438 262.371094 174.421875 C 262.371094 174.816406 262.691406 175.136719 263.085938 175.136719 L 267.847656 175.136719 C 268.242188 175.136719 268.5625 174.816406 268.5625 174.421875 Z M 267.976562 179.089844 C 267.976562 178.695312 267.65625 178.375 267.261719 178.375 L 262.5 178.375 C 262.105469 178.375 261.785156 178.695312 261.785156 179.089844 C 261.785156 179.488281 262.105469 179.804688 262.5 179.804688 L 267.261719 179.804688 C 267.65625 179.804688 267.976562 179.488281 267.976562 179.089844 Z M 273.820312 174.421875 C 273.820312 174.816406 274.140625 175.136719 274.535156 175.136719 L 281.742188 175.136719 C 282.132812 175.136719 282.457031 174.816406 282.457031 174.421875 C 282.457031 174.023438 282.132812 173.707031 281.742188 173.707031 L 274.535156 173.707031 C 274.140625 173.707031 273.820312 174.023438 273.820312 174.421875 Z M 274.40625 169.75 C 274.40625 170.144531 274.726562 170.464844 275.121094 170.464844 L 289.15625 170.464844 C 289.550781 170.464844 289.871094 170.144531 289.871094 169.75 C 289.871094 169.355469 289.550781 169.035156 289.15625 169.035156 L 275.121094 169.035156 C 274.726562 169.035156 274.40625 169.355469 274.40625 169.75 Z M 274.992188 165.078125 C 274.992188 165.472656 275.3125 165.792969 275.707031 165.792969 L 281.726562 165.792969 C 282.125 165.792969 282.441406 165.472656 282.441406 165.078125 C 282.441406 164.683594 282.125 164.363281 281.726562 164.363281 L 275.707031 164.363281 C 275.3125 164.363281 274.992188 164.683594 274.992188 165.078125 Z M 276.167969 155.738281 C 276.167969 156.128906 276.488281 156.453125 276.882812 156.453125 L 285.5625 156.453125 C 285.960938 156.453125 286.277344 156.128906 286.277344 155.738281 C 286.277344 155.339844 285.960938 155.023438 285.5625 155.023438 L 276.882812 155.023438 C 276.488281 155.023438 276.167969 155.339844 276.167969 155.738281 Z M 276.753906 151.0625 C 276.753906 151.457031 277.074219 151.777344 277.46875 151.777344 L 284.675781 151.777344 C 285.070312 151.777344 285.386719 151.457031 285.386719 151.0625 C 285.386719 150.671875 285.070312 150.347656 284.675781 150.347656 L 277.46875 150.347656 C 277.074219 150.347656 276.753906 150.671875 276.753906 151.0625 Z M 277.339844 146.394531 C 277.339844 146.789062 277.660156 147.109375 278.054688 147.109375 L 292.089844 147.109375 C 292.484375 147.109375 292.804688 146.789062 292.804688 146.394531 C 292.804688 145.996094 292.484375 145.679688 292.089844 145.679688 L 278.054688 145.679688 C 277.660156 145.679688 277.339844 145.996094 277.339844 146.394531 Z M 277.925781 141.722656 C 277.925781 142.117188 278.246094 142.4375 278.640625 142.4375 L 284.660156 142.4375 C 285.054688 142.4375 285.375 142.117188 285.375 141.722656 C 285.375 141.328125 285.054688 141.007812 284.660156 141.007812 L 278.640625 141.007812 C 278.246094 141.007812 277.925781 141.328125 277.925781 141.722656 Z M 278.515625 137.050781 C 278.515625 137.445312 278.832031 137.765625 279.230469 137.765625 L 296.597656 137.765625 C 296.988281 137.765625 297.3125 137.445312 297.3125 137.050781 C 297.3125 136.65625 296.988281 136.335938 296.597656 136.335938 L 279.230469 136.335938 C 278.832031 136.335938 278.515625 136.65625 278.515625 137.050781 Z M 299.921875 142.4375 C 300.316406 142.4375 300.632812 142.117188 300.632812 141.722656 C 300.632812 141.328125 300.316406 141.007812 299.921875 141.007812 L 287.878906 141.007812 C 287.488281 141.007812 287.167969 141.328125 287.167969 141.722656 C 287.167969 142.117188 287.488281 142.4375 287.878906 142.4375 Z M 294.230469 151.0625 C 294.230469 150.671875 293.910156 150.347656 293.515625 150.347656 L 288.742188 150.347656 C 288.347656 150.347656 288.027344 150.671875 288.027344 151.0625 C 288.027344 151.457031 288.347656 151.777344 288.742188 151.777344 L 293.515625 151.777344 C 293.910156 151.777344 294.230469 151.457031 294.230469 151.0625 Z M 296.988281 164.363281 L 284.949219 164.363281 C 284.554688 164.363281 284.234375 164.683594 284.234375 165.078125 C 284.234375 165.472656 284.554688 165.792969 284.949219 165.792969 L 296.988281 165.792969 C 297.382812 165.792969 297.703125 165.472656 297.703125 165.078125 C 297.703125 164.683594 297.382812 164.363281 296.988281 164.363281 Z M 301.132812 156.453125 C 301.527344 156.453125 301.847656 156.128906 301.847656 155.738281 C 301.847656 155.339844 301.527344 155.023438 301.132812 155.023438 L 288.6875 155.023438 C 288.292969 155.023438 287.972656 155.339844 287.972656 155.738281 C 287.972656 156.128906 288.292969 156.453125 288.6875 156.453125 Z M 315.878906 185.144531 C 315.628906 187.121094 313.828125 188.71875 311.855469 188.71875 L 259.621094 188.71875 C 257.648438 188.71875 256.25 187.121094 256.5 185.144531 L 263.398438 130.203125 C 263.644531 128.230469 265.449219 126.628906 267.417969 126.628906 L 319.652344 126.628906 C 321.625 126.628906 323.023438 128.230469 322.777344 130.203125 Z M 129.140625 148.621094 L 128.476562 143.136719 C 127.835938 137.808594 129.402344 132.777344 132.414062 128.890625 L 103.152344 128.890625 L 103.152344 148.539062 C 103.152344 148.566406 103.144531 148.59375 103.144531 148.621094 Z M 97.152344 128.234375 L 90.078125 128.234375 L 90.078125 145.367188 L 97.152344 145.367188 Z M 86.484375 128.890625 L 86.484375 126.085938 L 79.40625 126.085938 L 79.40625 145.367188 L 86.484375 145.367188 Z M 75.816406 130.804688 L 68.738281 130.804688 L 68.738281 145.367188 L 75.816406 145.367188 Z M 65.148438 139.414062 L 58.070312 139.414062 L 58.070312 145.367188 L 65.148438 145.367188 Z M 54.476562 136.382812 L 47.398438 136.382812 L 47.398438 145.367188 L 54.476562 145.367188 Z M 126.792969 169.777344 L 19.066406 169.777344 C 19.050781 169.539062 19.03125 169.296875 19.019531 169.0625 L 126.996094 169.0625 L 128.953125 162.15625 C 129.796875 159.175781 130.039062 156.066406 129.667969 152.992188 L 129.226562 149.335938 L 103.054688 149.335938 C 102.691406 150.925781 101.277344 152.113281 99.578125 152.113281 L 46.847656 152.113281 C 45.148438 152.113281 43.734375 150.925781 43.371094 149.335938 L 19.277344 149.335938 C 19.300781 149.09375 19.328125 148.859375 19.351562 148.621094 L 43.285156 148.621094 C 43.285156 148.59375 43.273438 148.566406 43.273438 148.539062 L 43.273438 128.890625 L 23.085938 128.890625 C 23.152344 128.652344 23.226562 128.417969 23.296875 128.175781 L 43.273438 128.175781 L 43.273438 120.855469 C 43.273438 118.882812 44.875 117.28125 46.847656 117.28125 L 99.578125 117.28125 C 101.550781 117.28125 103.152344 118.882812 103.152344 120.855469 L 103.152344 128.175781 L 133 128.175781 C 136.542969 124.027344 141.808594 121.355469 147.765625 121.355469 C 153.648438 121.355469 158.964844 123.984375 162.542969 128.175781 L 181.355469 128.175781 L 181.277344 128.890625 L 163.128906 128.890625 C 165.285156 131.675781 166.710938 135.070312 167.09375 138.804688 L 167.289062 140.695312 L 171.359375 148.621094 L 179.089844 148.621094 L 179.011719 149.335938 L 171.621094 149.335938 C 171.636719 149.789062 171.355469 150.226562 170.882812 150.363281 L 169.285156 150.832031 C 168.820312 150.964844 168.515625 151.40625 168.554688 151.890625 C 168.796875 155.070312 169.511719 166.417969 167.289062 167.613281 C 164.699219 169.011719 152.332031 166.507812 152.332031 166.507812 C 152.097656 167.351562 151.90625 168.203125 151.742188 169.0625 L 176.824219 169.0625 L 176.746094 169.777344 L 151.621094 169.777344 C 151.183594 172.429688 151.074219 175.125 151.304688 177.800781 C 148.53125 176.851562 144.828125 175.402344 139.070312 174.226562 C 133.546875 173.105469 128.226562 174.375 125.207031 175.382812 Z M 110.59375 227.347656 C 109.714844 221.792969 108.558594 216.0625 107.109375 210.660156 L 107.113281 210.660156 C 107.085938 210.566406 107.0625 210.472656 107.035156 210.382812 C 106.515625 208.472656 105.964844 206.601562 105.371094 204.800781 C 103.394531 198.777344 105.273438 192.660156 109.371094 188.703125 C 109.171875 188.792969 108.972656 188.871094 108.777344 188.96875 C 108.441406 189.136719 108.125 189.316406 107.808594 189.503906 L 21.789062 189.503906 C 21.839844 189.742188 21.886719 189.980469 21.9375 190.21875 L 106.710938 190.21875 C 100.53125 194.65625 98.539062 203.152344 102.359375 209.945312 L 27.414062 209.945312 C 27.492188 210.183594 27.570312 210.421875 27.652344 210.660156 L 102.757812 210.660156 Z M 177.59375 333.054688 C 180.511719 333.054688 183.433594 332.898438 186.359375 332.597656 L 167.667969 332.597656 C 170.96875 332.890625 174.277344 333.054688 177.59375 333.054688 Z M 137.554688 312.179688 C 136.863281 312.179688 136.1875 312.171875 135.523438 312.15625 L 108.746094 312.15625 C 109.140625 312.398438 109.535156 312.632812 109.929688 312.871094 L 238.398438 312.871094 C 238.769531 312.632812 239.132812 312.394531 239.5 312.15625 L 138.425781 312.15625 C 138.132812 312.160156 137.855469 312.179688 137.554688 312.179688 Z M 109.191406 291.714844 L 81.664062 291.714844 C 81.925781 291.953125 82.1875 292.191406 82.449219 292.429688 L 109.234375 292.429688 C 109.222656 292.191406 109.207031 291.953125 109.191406 291.714844 Z M 169.546875 292.429688 L 264.621094 292.429688 C 264.878906 292.191406 265.136719 291.953125 265.394531 291.714844 L 169.800781 291.714844 C 169.71875 291.949219 169.636719 292.183594 169.546875 292.429688 Z M 109.757812 271.273438 L 62.183594 271.273438 C 62.382812 271.511719 62.585938 271.746094 62.789062 271.988281 L 109.683594 271.988281 C 109.707031 271.746094 109.730469 271.507812 109.757812 271.273438 Z M 112.722656 250.828125 L 47.289062 250.828125 C 47.441406 251.066406 47.59375 251.304688 47.75 251.542969 L 112.722656 251.542969 C 112.722656 251.3125 112.722656 251.074219 112.722656 250.828125 Z M 222.808594 261.082031 C 224.484375 261.355469 226.128906 261.613281 227.722656 261.855469 L 227.542969 261.574219 L 223.300781 260.675781 Z M 260.15625 271.273438 L 270.90625 271.273438 L 267.503906 268.898438 L 261.421875 270.289062 Z M 177.65625 230.386719 L 313.921875 230.386719 C 313.78125 230.625 313.644531 230.863281 313.503906 231.101562 L 178.019531 231.101562 C 182.546875 239.878906 186.695312 247.171875 189.199219 250.828125 L 300.808594 250.828125 C 300.640625 251.066406 300.472656 251.304688 300.304688 251.542969 L 189.703125 251.542969 C 190.351562 252.449219 190.863281 253.039062 191.195312 253.261719 C 193.847656 255.03125 200.410156 256.808594 208.074219 258.398438 L 220.230469 253.808594 C 221.472656 253.339844 222.859375 253.5 223.964844 254.238281 L 229.96875 258.253906 L 232.476562 262.566406 C 237.164062 263.246094 241.019531 263.753906 243.164062 264.027344 L 249.820312 263.777344 L 264.09375 258.839844 C 265.375 258.398438 266.792969 258.601562 267.898438 259.386719 L 273.914062 263.660156 L 278.054688 271.273438 L 284.953125 271.273438 C 284.75 271.507812 284.546875 271.75 284.34375 271.988281 L 278.441406 271.988281 L 278.582031 272.242188 C 278.847656 272.734375 278.644531 273.34375 278.140625 273.574219 C 277.132812 273.507812 275.980469 273.003906 275.042969 272.300781 L 275.285156 273.949219 C 275.398438 274.699219 274.785156 275.363281 274.027344 275.308594 C 272.847656 275.222656 271.875 274.347656 271.671875 273.179688 L 271.460938 271.988281 L 259.230469 271.988281 L 256.304688 274.25 C 254.925781 275.316406 253.324219 276.027344 251.628906 276.339844 C 250.527344 276.539062 249.390625 276.503906 248.28125 276.355469 L 241.527344 275.421875 L 191.273438 275.066406 C 185.207031 274.808594 180.738281 273.65625 177.339844 271.988281 L 164.523438 271.988281 C 164.488281 271.871094 164.453125 271.757812 164.417969 271.640625 C 164.390625 271.546875 164.359375 271.449219 164.332031 271.351562 C 164.324219 271.328125 164.316406 271.300781 164.308594 271.273438 L 164.3125 271.273438 C 163.238281 267.625 162.464844 263.84375 162.464844 260.503906 C 162.464844 258.601562 162.746094 256.59375 163.203125 254.515625 C 163.320312 254.539062 163.441406 254.5625 163.558594 254.585938 L 156.023438 240.023438 C 155.625 240.105469 155.222656 240.152344 154.808594 240.152344 C 151.058594 240.152344 147.355469 236.632812 144.578125 231.101562 L 36.210938 231.101562 C 36.09375 230.863281 35.976562 230.628906 35.855469 230.386719 L 144.230469 230.386719 C 142.1875 226.082031 140.691406 220.664062 140.113281 214.773438 C 139.65625 210.050781 139.847656 205.632812 140.558594 201.847656 C 140.503906 196.894531 141.835938 192.570312 145.527344 190.851562 C 145.820312 190.710938 146.121094 190.601562 146.417969 190.488281 C 147.472656 189.78125 148.621094 189.398438 149.855469 189.398438 C 150.355469 189.398438 150.855469 189.46875 151.351562 189.589844 C 156.300781 189.699219 160.703125 192.863281 162.789062 198.109375 C 166.957031 208.605469 172.519531 220.398438 177.652344 230.386719 Z M 172.21875 210.660156 L 172.296875 209.945312 L 169.4375 209.945312 C 169.519531 210.183594 169.597656 210.421875 169.675781 210.660156 Z M 174.5625 189.503906 L 160.570312 189.503906 C 160.648438 189.648438 160.734375 189.796875 160.808594 189.945312 C 160.851562 190.03125 160.902344 190.128906 160.945312 190.21875 L 174.484375 190.21875 Z M 342.179688 107.734375 L 31.742188 107.734375 C 31.613281 107.972656 31.488281 108.214844 31.363281 108.449219 L 342.355469 108.449219 C 342.296875 108.214844 342.238281 107.972656 342.179688 107.734375 " fill-opacity="1" fill-rule="nonzero"/></g><g clip-path="url(#446f446738)"><path fill="#393a3f" d="M 264.414062 253.035156 L 234.226562 253.128906 L 224.167969 253.230469 L 224.167969 253.554688 L 234.226562 253.652344 L 264.414062 253.746094 L 284.535156 253.671875 L 294.597656 253.632812 L 304.660156 253.527344 L 304.660156 253.253906 L 294.597656 253.152344 L 284.535156 253.109375 Z M 255.972656 94.722656 L 248.703125 94.722656 L 248.703125 95.4375 L 255.972656 95.4375 Z M 259.761719 93.054688 L 259.761719 92.339844 L 255.132812 92.339844 L 255.132812 93.054688 Z M 253.332031 92.339844 L 248.703125 92.339844 L 248.703125 93.054688 L 253.332031 93.054688 Z M 259.761719 89.957031 L 248.703125 89.957031 L 248.703125 90.671875 L 259.761719 90.671875 Z M 264.726562 40.171875 C 265.757812 40.171875 266.59375 39.335938 266.59375 38.300781 C 266.59375 37.273438 265.757812 36.433594 264.726562 36.433594 C 263.691406 36.433594 262.859375 37.273438 262.859375 38.300781 C 262.859375 39.335938 263.691406 40.171875 264.726562 40.171875 Z M 163.164062 40.171875 C 164.195312 40.171875 165.035156 39.335938 165.035156 38.300781 C 165.035156 37.273438 164.195312 36.433594 163.164062 36.433594 C 162.132812 36.433594 161.292969 37.273438 161.292969 38.300781 C 161.292969 39.335938 162.132812 40.171875 163.164062 40.171875 Z M 90.160156 96.273438 L 82.886719 96.273438 L 82.886719 96.988281 L 90.160156 96.988281 Z M 93.949219 94.605469 L 93.949219 93.886719 L 89.316406 93.886719 L 89.316406 94.605469 Z M 87.515625 93.886719 L 82.886719 93.886719 L 82.886719 94.605469 L 87.515625 94.605469 Z M 93.949219 91.507812 L 82.886719 91.507812 L 82.886719 92.222656 L 93.949219 92.222656 Z M 63.875 40.171875 C 64.902344 40.171875 65.742188 39.335938 65.742188 38.300781 C 65.742188 37.273438 64.902344 36.433594 63.875 36.433594 C 62.839844 36.433594 62.003906 37.273438 62.003906 38.300781 C 62.003906 39.335938 62.839844 40.171875 63.875 40.171875 Z M 50.582031 148.800781 L 51.296875 148.800781 L 51.296875 148.035156 L 61.25 148.035156 L 61.25 148.800781 L 61.964844 148.800781 L 61.964844 148.035156 L 71.917969 148.035156 L 71.917969 148.800781 L 72.632812 148.800781 L 72.632812 148.035156 L 82.589844 148.035156 L 82.589844 148.800781 L 83.304688 148.800781 L 83.304688 148.035156 L 93.257812 148.035156 L 93.257812 148.800781 L 93.972656 148.800781 L 93.972656 148.035156 L 97.222656 148.035156 L 97.222656 147.320312 L 93.972656 147.320312 L 93.972656 146.558594 L 93.257812 146.558594 L 93.257812 147.320312 L 83.304688 147.320312 L 83.304688 146.558594 L 82.589844 146.558594 L 82.589844 147.320312 L 72.632812 147.320312 L 72.632812 146.558594 L 71.917969 146.558594 L 71.917969 147.320312 L 61.964844 147.320312 L 61.964844 146.558594 L 61.25 146.558594 L 61.25 147.320312 L 51.296875 147.320312 L 51.296875 146.558594 L 50.582031 146.558594 L 50.582031 147.320312 L 47.398438 147.320312 L 47.398438 148.035156 L 50.582031 148.035156 Z M 282.523438 121.355469 C 282.523438 120.960938 282.203125 120.640625 281.8125 120.640625 L 189.507812 120.640625 C 189.113281 120.640625 188.792969 120.960938 188.792969 121.355469 C 188.792969 121.753906 189.113281 122.070312 189.507812 122.070312 L 281.8125 122.070312 C 282.203125 122.070312 282.523438 121.753906 282.523438 121.355469 Z M 261.652344 223.042969 L 256.890625 223.042969 C 256.492188 223.042969 256.175781 223.363281 256.175781 223.757812 C 256.175781 224.152344 256.492188 224.472656 256.890625 224.472656 L 261.652344 224.472656 C 262.046875 224.472656 262.367188 224.152344 262.367188 223.757812 C 262.367188 223.363281 262.046875 223.042969 261.652344 223.042969 Z M 262.953125 219.085938 C 262.953125 218.691406 262.632812 218.371094 262.238281 218.371094 L 257.476562 218.371094 C 257.082031 218.371094 256.761719 218.691406 256.761719 219.085938 C 256.761719 219.480469 257.082031 219.800781 257.476562 219.800781 L 262.238281 219.800781 C 262.632812 219.800781 262.953125 219.480469 262.953125 219.085938 Z M 264.125 209.742188 C 264.125 209.347656 263.808594 209.027344 263.410156 209.027344 L 258.648438 209.027344 C 258.253906 209.027344 257.933594 209.347656 257.933594 209.742188 C 257.933594 210.140625 258.253906 210.457031 258.648438 210.457031 L 263.410156 210.457031 C 263.808594 210.457031 264.125 210.140625 264.125 209.742188 Z M 264.710938 205.074219 C 264.710938 204.679688 264.394531 204.359375 263.996094 204.359375 L 259.234375 204.359375 C 258.839844 204.359375 258.523438 204.679688 258.523438 205.074219 C 258.523438 205.464844 258.839844 205.789062 259.234375 205.789062 L 263.996094 205.789062 C 264.394531 205.789062 264.710938 205.464844 264.710938 205.074219 Z M 265.300781 200.402344 C 265.300781 200.007812 264.980469 199.6875 264.585938 199.6875 L 259.820312 199.6875 C 259.429688 199.6875 259.109375 200.007812 259.109375 200.402344 C 259.109375 200.796875 259.429688 201.117188 259.820312 201.117188 L 264.585938 201.117188 C 264.980469 201.117188 265.300781 200.796875 265.300781 200.402344 Z M 197.558594 197.640625 C 197.488281 198.222656 197.902344 198.699219 198.484375 198.699219 C 199.066406 198.699219 199.601562 198.222656 199.671875 197.640625 C 199.75 197.058594 199.335938 196.582031 198.75 196.582031 C 198.164062 196.582031 197.636719 197.058594 197.558594 197.640625 Z M 206.179688 131.839844 C 206.105469 132.425781 206.519531 132.898438 207.101562 132.898438 C 207.683594 132.898438 208.21875 132.425781 208.289062 131.839844 C 208.363281 131.257812 207.949219 130.78125 207.367188 130.78125 C 206.785156 130.78125 206.25 131.257812 206.179688 131.839844 Z M 216.753906 156.960938 C 216.359375 156.960938 216.039062 157.277344 216.039062 157.675781 C 216.039062 158.070312 216.359375 158.390625 216.753906 158.390625 L 225.507812 158.390625 C 225.902344 158.390625 226.222656 158.070312 226.222656 157.675781 C 226.222656 157.277344 225.902344 156.960938 225.507812 156.960938 Z M 267.976562 179.089844 C 267.976562 178.695312 267.65625 178.375 267.261719 178.375 L 262.5 178.375 C 262.105469 178.375 261.785156 178.695312 261.785156 179.089844 C 261.785156 179.488281 262.105469 179.804688 262.5 179.804688 L 267.261719 179.804688 C 267.65625 179.804688 267.976562 179.488281 267.976562 179.089844 Z M 268.5625 174.421875 C 268.5625 174.023438 268.242188 173.707031 267.847656 173.707031 L 263.085938 173.707031 C 262.691406 173.707031 262.371094 174.023438 262.371094 174.421875 C 262.371094 174.816406 262.691406 175.136719 263.085938 175.136719 L 267.847656 175.136719 C 268.242188 175.136719 268.5625 174.816406 268.5625 174.421875 Z M 269.148438 169.75 C 269.148438 169.355469 268.828125 169.035156 268.433594 169.035156 L 263.671875 169.035156 C 263.277344 169.035156 262.957031 169.355469 262.957031 169.75 C 262.957031 170.144531 263.277344 170.464844 263.671875 170.464844 L 268.433594 170.464844 C 268.828125 170.464844 269.148438 170.144531 269.148438 169.75 Z M 269.734375 165.078125 C 269.734375 164.683594 269.417969 164.363281 269.019531 164.363281 L 264.257812 164.363281 C 263.863281 164.363281 263.546875 164.683594 263.546875 165.078125 C 263.546875 165.472656 263.863281 165.792969 264.257812 165.792969 L 269.019531 165.792969 C 269.417969 165.792969 269.734375 165.472656 269.734375 165.078125 Z M 270.910156 155.738281 C 270.910156 155.339844 270.589844 155.023438 270.195312 155.023438 L 265.433594 155.023438 C 265.039062 155.023438 264.71875 155.339844 264.71875 155.738281 C 264.71875 156.128906 265.039062 156.453125 265.433594 156.453125 L 270.195312 156.453125 C 270.589844 156.453125 270.910156 156.128906 270.910156 155.738281 Z M 271.496094 151.0625 C 271.496094 150.671875 271.175781 150.347656 270.78125 150.347656 L 266.019531 150.347656 C 265.625 150.347656 265.304688 150.671875 265.304688 151.0625 C 265.304688 151.457031 265.625 151.777344 266.019531 151.777344 L 270.78125 151.777344 C 271.175781 151.777344 271.496094 151.457031 271.496094 151.0625 Z M 272.082031 146.394531 C 272.082031 145.996094 271.765625 145.679688 271.367188 145.679688 L 266.605469 145.679688 C 266.210938 145.679688 265.890625 145.996094 265.890625 146.394531 C 265.890625 146.789062 266.210938 147.109375 266.605469 147.109375 L 271.367188 147.109375 C 271.765625 147.109375 272.082031 146.789062 272.082031 146.394531 Z M 272.667969 141.722656 C 272.667969 141.328125 272.351562 141.007812 271.953125 141.007812 L 267.191406 141.007812 C 266.796875 141.007812 266.476562 141.328125 266.476562 141.722656 C 266.476562 142.117188 266.796875 142.4375 267.191406 142.4375 L 271.953125 142.4375 C 272.351562 142.4375 272.667969 142.117188 272.667969 141.722656 Z M 273.253906 137.050781 C 273.253906 136.65625 272.9375 136.335938 272.539062 136.335938 L 267.777344 136.335938 C 267.386719 136.335938 267.0625 136.65625 267.0625 137.050781 C 267.0625 137.445312 267.386719 137.765625 267.777344 137.765625 L 272.539062 137.765625 C 272.9375 137.765625 273.253906 137.445312 273.253906 137.050781 Z M 163.789062 140.402344 L 167.148438 140.234375 C 167.3125 138.277344 167.878906 136.46875 168.808594 136.011719 C 167.820312 135.90625 166.859375 135.933594 166.128906 136.257812 C 166.082031 133.777344 165.101562 132.457031 164.488281 130.898438 C 164.476562 132.679688 164.960938 132.132812 164.773438 134.519531 C 164.671875 135.84375 164.9375 137.199219 164.628906 138.492188 C 164.46875 139.175781 164.148438 139.796875 163.789062 140.402344 Z M 167.867188 140.199219 L 170.664062 140.058594 C 170.453125 137.921875 169.769531 136.613281 169.273438 136.613281 C 168.765625 136.613281 168.0625 137.980469 167.867188 140.199219 Z M 170.71875 140.773438 L 167.820312 140.917969 C 167.8125 141.085938 167.8125 141.253906 167.8125 141.429688 C 167.8125 144.371094 168.675781 146.25 169.273438 146.25 C 169.867188 146.25 170.734375 144.371094 170.734375 141.429688 C 170.734375 141.207031 170.726562 140.988281 170.71875 140.773438 Z M 103.351562 169.511719 C 102.578125 164.398438 104.066406 158.988281 107.351562 155 C 108.554688 153.535156 110.042969 152.148438 110.414062 150.289062 C 110.792969 148.375 109.886719 146.46875 109.46875 144.5625 C 108.679688 140.921875 109.804688 136.914062 112.378906 134.21875 C 114.351562 132.152344 117.082031 130.839844 118.75 128.515625 C 120.148438 126.570312 120.636719 124.140625 121.59375 121.945312 C 124.28125 115.789062 131.078125 111.691406 137.769531 112.191406 C 139.632812 109.871094 143.230469 108.785156 146.15625 109.300781 C 149.082031 109.820312 151.683594 111.480469 153.957031 113.390625 C 161.117188 112.292969 170.113281 119.128906 172.613281 136.859375 C 171.941406 136.660156 171.003906 136.390625 170.015625 136.195312 C 170.949219 136.992188 171.449219 139.265625 171.449219 141.429688 C 171.449219 144.113281 170.683594 146.964844 169.273438 146.964844 C 167.859375 146.964844 167.097656 144.113281 167.097656 141.429688 C 167.097656 141.273438 167.097656 141.113281 167.105469 140.953125 L 165.484375 141.035156 C 165.796875 141.199219 166.027344 141.8125 166.027344 142.546875 C 166.027344 143.40625 165.710938 144.105469 165.320312 144.105469 C 164.925781 144.105469 164.609375 143.40625 164.609375 142.546875 C 164.609375 141.832031 164.828125 141.238281 165.125 141.050781 L 163.332031 141.140625 C 162.90625 141.808594 162.476562 142.476562 162.1875 143.207031 C 160.863281 146.5625 162.738281 150.367188 162.210938 153.9375 C 161.878906 156.179688 160.628906 158.167969 159.949219 160.328125 C 158.988281 163.394531 159.664062 167.636719 161.074219 170.523438 L 151.160156 170.523438 C 150.542969 168.1875 149.742188 166.066406 149.652344 163.652344 C 148.996094 166.179688 148.703125 168.484375 148.484375 171.089844 C 147.265625 167.792969 146.457031 164.585938 146.378906 161.078125 C 146.027344 163.886719 145.910156 166.699219 145.558594 169.511719 Z M 170.347656 266 C 171.445312 267.382812 172.648438 268.6875 173.964844 269.871094 C 175.273438 271.0625 176.726562 272.117188 178.332031 272.929688 C 179.136719 273.316406 179.988281 273.628906 180.867188 273.851562 C 181.761719 274.046875 182.625 274.140625 183.492188 274.261719 C 185.234375 274.484375 186.976562 274.703125 188.71875 274.859375 C 192.210938 275.191406 195.710938 275.40625 199.21875 275.472656 C 199.304688 275.472656 199.378906 275.40625 199.382812 275.320312 C 199.386719 275.230469 199.316406 275.152344 199.230469 275.148438 C 197.484375 275.050781 195.742188 274.910156 194 274.75 C 192.261719 274.597656 190.523438 274.429688 188.785156 274.230469 C 187.050781 274.023438 185.3125 273.824219 183.585938 273.585938 C 182.722656 273.457031 181.84375 273.351562 181.03125 273.167969 C 180.210938 272.957031 179.410156 272.65625 178.644531 272.285156 C 175.566406 270.761719 173.039062 268.265625 170.8125 265.621094 C 169.695312 264.285156 168.660156 262.882812 167.691406 261.433594 C 166.707031 259.996094 165.78125 258.507812 164.953125 256.976562 L 164.949219 256.972656 C 164.914062 256.90625 164.835938 256.882812 164.769531 256.917969 C 164.703125 256.949219 164.671875 257.03125 164.707031 257.097656 C 166.269531 260.25 168.148438 263.242188 170.347656 266 Z M 146.4375 222.785156 C 146.039062 222.546875 145.675781 222.269531 145.324219 221.972656 C 144.972656 221.667969 144.652344 221.324219 144.332031 220.964844 C 144.292969 220.921875 144.230469 220.90625 144.175781 220.925781 C 144.105469 220.957031 144.070312 221.035156 144.097656 221.105469 C 144.46875 222.042969 145.195312 222.847656 146.054688 223.390625 C 146.492188 223.660156 146.953125 223.882812 147.433594 224.035156 C 147.835938 224.160156 148.246094 224.25 148.664062 224.300781 C 150.039062 227.4375 151.46875 230.550781 152.90625 233.660156 C 154.546875 237.117188 156.199219 240.570312 157.894531 244 C 159.59375 247.429688 161.328125 250.839844 163.140625 254.214844 C 163.179688 254.292969 163.277344 254.320312 163.355469 254.28125 C 163.433594 254.242188 163.46875 254.144531 163.429688 254.066406 C 162.582031 252.351562 161.761719 250.625 160.941406 248.898438 L 158.464844 243.722656 L 153.550781 233.355469 C 151.910156 229.902344 150.308594 226.429688 148.722656 222.953125 C 147.933594 221.210938 147.160156 219.464844 146.40625 217.710938 C 145.664062 215.953125 144.902344 214.195312 144.347656 212.378906 L 144.34375 212.371094 C 144.324219 212.300781 144.25 212.261719 144.175781 212.28125 C 144.101562 212.300781 144.0625 212.375 144.082031 212.449219 C 145.140625 216.15625 146.671875 219.671875 148.171875 223.195312 C 148.257812 223.390625 148.347656 223.585938 148.433594 223.78125 C 148.175781 223.671875 147.914062 223.5625 147.664062 223.445312 C 147.238281 223.238281 146.824219 223.03125 146.4375 222.785156 Z M 165.1875 154.894531 C 165.457031 155.070312 165.761719 155.179688 166.070312 155.253906 C 166.382812 155.316406 166.699219 155.34375 167.011719 155.316406 C 167.167969 155.304688 167.320312 155.273438 167.472656 155.25 C 167.625 155.207031 167.773438 155.167969 167.914062 155.109375 C 167.957031 155.089844 167.992188 155.046875 168 155 C 168.011719 154.921875 167.957031 154.847656 167.878906 154.835938 C 167.292969 154.746094 166.753906 154.683594 166.230469 154.558594 C 165.972656 154.496094 165.71875 154.414062 165.464844 154.328125 C 165.21875 154.242188 164.964844 154.121094 164.730469 154.007812 L 164.699219 153.992188 C 164.652344 153.96875 164.59375 153.96875 164.546875 154 C 164.46875 154.042969 164.441406 154.144531 164.488281 154.21875 C 164.664062 154.523438 164.914062 154.722656 165.1875 154.894531 Z M 313.011719 276.257812 L 300.640625 257.644531 L 300.640625 257.480469 L 291.691406 257.378906 L 282.746094 257.347656 L 264.847656 257.285156 L 246.953125 257.363281 L 238.003906 257.402344 L 229.054688 257.507812 L 229.054688 257.78125 L 229.261719 257.78125 L 229.96875 258.253906 L 232.339844 262.332031 L 228.167969 261.738281 C 228.191406 261.726562 228.21875 261.71875 228.246094 261.703125 C 228.40625 261.621094 228.542969 261.5 228.667969 261.367188 C 228.78125 261.230469 228.882812 261.078125 228.945312 260.90625 C 229.007812 260.738281 229.046875 260.558594 229.027344 260.367188 C 229.023438 260.335938 229.007812 260.296875 228.988281 260.269531 C 228.921875 260.195312 228.808594 260.1875 228.734375 260.25 L 228.726562 260.257812 C 228.59375 260.367188 228.5 260.480469 228.398438 260.585938 C 228.296875 260.691406 228.214844 260.796875 228.125 260.90625 C 228.039062 261.015625 227.945312 261.117188 227.863281 261.238281 C 227.773438 261.355469 227.679688 261.472656 227.589844 261.621094 L 227.585938 261.625 C 227.585938 261.632812 227.585938 261.632812 227.582031 261.640625 L 227.542969 261.574219 L 223.429688 260.703125 C 223.453125 260.601562 223.480469 260.503906 223.5 260.40625 C 223.574219 260.0625 223.59375 259.714844 223.59375 259.367188 C 223.585938 259.015625 223.558594 258.664062 223.480469 258.324219 C 223.410156 257.984375 223.308594 257.644531 223.144531 257.332031 C 223.117188 257.28125 223.0625 257.242188 223 257.242188 C 222.910156 257.242188 222.832031 257.316406 222.832031 257.40625 C 222.824219 257.75 222.84375 258.074219 222.851562 258.402344 L 222.878906 259.378906 L 222.898438 260.351562 C 222.902344 260.5625 222.910156 260.777344 222.910156 260.988281 L 220.859375 260.695312 C 213.722656 259.625 206.578125 258.539062 199.503906 257.144531 C 197.738281 256.789062 195.964844 256.433594 194.261719 255.929688 C 193.84375 255.800781 193.414062 255.660156 193.054688 255.476562 C 192.863281 255.371094 192.828125 255.347656 192.6875 255.117188 L 192.324219 254.570312 C 191.851562 253.804688 191.378906 253.039062 190.917969 252.261719 C 189.070312 249.160156 187.261719 246.03125 185.457031 242.902344 L 179.066406 231.792969 L 255.386719 231.792969 L 259.589844 247.882812 L 289.875 247.882812 L 285.671875 231.792969 L 331.660156 231.792969 C 336.148438 231.792969 339.914062 228.417969 340.410156 223.957031 L 351.472656 124.070312 C 352.050781 118.855469 347.972656 114.289062 342.726562 114.289062 L 187.765625 114.289062 C 183.28125 114.289062 179.511719 117.667969 179.019531 122.128906 L 169.324219 209.625 C 170.242188 212.304688 170.996094 214.914062 171.480469 217.3125 L 181.988281 122.460938 C 182.3125 119.507812 184.796875 117.28125 187.765625 117.28125 L 342.726562 117.28125 C 344.398438 117.28125 345.941406 117.972656 347.054688 119.21875 C 348.175781 120.46875 348.6875 122.074219 348.503906 123.742188 L 337.4375 223.628906 C 337.113281 226.578125 334.625 228.804688 331.660156 228.804688 L 261.65625 228.804688 C 261.726562 228.695312 261.777344 228.570312 261.777344 228.429688 C 261.777344 228.03125 261.460938 227.714844 261.0625 227.714844 L 256.304688 227.714844 C 255.90625 227.714844 255.589844 228.03125 255.589844 228.429688 C 255.589844 228.570312 255.640625 228.695312 255.710938 228.804688 L 177.34375 228.804688 L 174.640625 224.109375 C 174.601562 224.046875 174.523438 224.023438 174.457031 224.058594 C 174.390625 224.09375 174.367188 224.179688 174.402344 224.246094 L 176.921875 228.804688 L 176.839844 228.804688 C 177.359375 229.820312 177.871094 230.816406 178.378906 231.792969 L 178.570312 231.792969 L 179.644531 233.734375 L 184.972656 243.179688 C 186.757812 246.324219 188.539062 249.464844 190.371094 252.585938 C 190.824219 253.367188 191.292969 254.144531 191.769531 254.917969 L 192.148438 255.5 C 192.230469 255.605469 192.234375 255.671875 192.390625 255.816406 C 192.515625 255.945312 192.625 255.996094 192.742188 256.0625 C 193.1875 256.292969 193.621094 256.433594 194.0625 256.574219 C 195.820312 257.105469 197.589844 257.476562 199.367188 257.839844 C 206.472656 259.210938 213.625 260.25 220.777344 261.277344 L 231.515625 262.753906 L 242.269531 264.074219 C 242.359375 264.082031 242.441406 264.023438 242.449219 263.933594 C 242.464844 263.84375 242.398438 263.765625 242.3125 263.753906 L 238.339844 263.1875 L 241.851562 257.898438 L 246.953125 257.921875 L 264.847656 257.996094 L 282.746094 257.9375 L 291.691406 257.90625 L 296.019531 257.855469 L 308.246094 276.257812 L 303.71875 276.257812 L 297.226562 268.90625 L 294.230469 270.875 L 299.777344 276.257812 L 281.800781 276.257812 L 298.148438 265.875 L 275.117188 265.875 L 278.582031 272.242188 C 278.847656 272.734375 278.644531 273.34375 278.140625 273.574219 C 277.207031 273.507812 276.148438 273.066406 275.25 272.445312 C 275.25 272.421875 275.257812 272.40625 275.25 272.386719 C 274.863281 271.480469 274.855469 270.476562 274.734375 269.445312 C 274.675781 268.925781 274.566406 268.394531 274.363281 267.882812 C 274.160156 267.367188 273.867188 266.902344 273.53125 266.480469 C 272.835938 265.65625 272 265.003906 271.152344 264.429688 C 270.308594 263.847656 269.460938 263.304688 268.703125 262.640625 C 268.65625 262.59375 268.578125 262.589844 268.527344 262.636719 C 268.46875 262.683594 268.460938 262.769531 268.507812 262.828125 C 269.164062 263.644531 270 264.285156 270.796875 264.914062 C 271.589844 265.542969 272.378906 266.160156 272.976562 266.929688 C 273.28125 267.304688 273.546875 267.707031 273.730469 268.136719 C 273.917969 268.570312 274.007812 269.046875 274.109375 269.539062 C 274.257812 270.332031 274.347656 271.214844 274.695312 272.015625 C 274.257812 271.636719 273.875 271.222656 273.617188 270.792969 L 271.339844 266.980469 L 267.292969 266.003906 C 267.285156 265.992188 267.277344 265.980469 267.269531 265.972656 C 267.234375 265.933594 267.175781 265.910156 267.121094 265.929688 C 267.105469 265.933594 267.101562 265.949219 267.089844 265.953125 L 267.035156 265.941406 L 261.34375 270.351562 C 261.347656 270.316406 261.355469 270.285156 261.355469 270.253906 C 261.390625 269.957031 261.371094 269.65625 261.328125 269.363281 C 261.277344 269.066406 261.199219 268.773438 261.074219 268.5 C 260.953125 268.230469 260.804688 267.96875 260.601562 267.746094 C 260.5625 267.707031 260.503906 267.683594 260.449219 267.695312 C 260.355469 267.707031 260.292969 267.796875 260.3125 267.890625 C 260.355469 268.171875 260.421875 268.433594 260.472656 268.695312 C 260.519531 268.960938 260.582031 269.21875 260.625 269.480469 C 260.675781 269.742188 260.710938 270.003906 260.753906 270.269531 C 260.78125 270.425781 260.804688 270.585938 260.828125 270.75 L 256.304688 274.25 C 255.019531 275.246094 253.53125 275.917969 251.964844 276.257812 L 247.566406 276.257812 L 241.996094 275.488281 C 242.339844 275.183594 242.644531 274.828125 242.859375 274.410156 C 243.136719 273.898438 243.265625 273.292969 243.179688 272.730469 C 243.167969 272.664062 243.113281 272.605469 243.042969 272.59375 C 242.953125 272.582031 242.871094 272.644531 242.855469 272.734375 C 242.78125 273.234375 242.601562 273.691406 242.328125 274.089844 C 242.210938 274.253906 242.074219 274.410156 241.9375 274.558594 C 241.929688 274.230469 241.886719 273.90625 241.808594 273.585938 C 241.660156 272.972656 241.402344 272.386719 241.019531 271.898438 C 240.980469 271.851562 240.917969 271.832031 240.863281 271.855469 C 240.789062 271.882812 240.753906 271.960938 240.78125 272.035156 C 240.988281 272.585938 241.136719 273.132812 241.203125 273.695312 C 241.265625 274.257812 241.261719 274.820312 241.175781 275.367188 C 241.175781 275.386719 241.179688 275.402344 241.179688 275.421875 L 202.804688 275.144531 L 201.125 276.257812 L 165.96875 276.257812 C 166.058594 276.496094 166.148438 276.734375 166.238281 276.972656 L 351.53125 276.972656 L 351.53125 276.257812 Z M 59.976562 276.257812 L 59.976562 276.972656 L 139.863281 276.972656 C 144.707031 276.972656 146.097656 276.257812 146.097656 276.257812 C 146.730469 276.085938 147.332031 275.859375 147.902344 275.578125 C 152.003906 273.570312 154.472656 268.898438 153.304688 264.082031 L 139.632812 207.792969 C 138.527344 203.246094 134.460938 200.046875 129.789062 200.046875 L 53.410156 200.046875 C 46.847656 200.046875 42.015625 206.199219 43.566406 212.578125 L 57.238281 268.871094 C 58.125 272.527344 60.933594 275.304688 64.425781 276.257812 Z M 170.886719 287.421875 C 170.886719 287.421875 170.871094 287.550781 170.832031 287.777344 C 170.332031 290.761719 165.785156 312.179688 137.554688 312.179688 C 127.222656 312.179688 119.75 310.46875 115.59375 309.183594 C 117.070312 317.640625 124.4375 324.066406 133.308594 324.066406 L 187.609375 324.066406 C 201.058594 324.066406 214.175781 318.464844 214.175781 318.464844 L 209.960938 343.472656 L 237.644531 343.472656 C 237.644531 343.472656 240.847656 318.464844 242.230469 301.683594 C 243.039062 291.859375 235.808594 288.703125 229.671875 287.777344 L 279.480469 287.777344 L 276.246094 315.640625 L 286.484375 317.339844 L 289.914062 287.777344 L 326.777344 287.777344 L 331.0625 324.734375 L 341.699219 326.496094 L 337.210938 287.777344 L 351.53125 287.777344 L 351.53125 287.0625 L 170.703125 287.0625 C 170.820312 287.292969 170.886719 287.421875 170.886719 287.421875 Z M 109.039062 287.0625 L 59.976562 287.0625 L 59.976562 287.777344 L 83.578125 287.777344 C 83.558594 287.882812 83.570312 287.996094 83.539062 288.101562 L 83.441406 288.824219 C 83.371094 289.300781 83.34375 289.789062 83.296875 290.273438 L 83.214844 291.726562 L 83.175781 292.453125 L 83.15625 292.820312 C 83.167969 292.941406 83.078125 293.054688 83.308594 293.203125 C 83.570312 293.109375 83.507812 292.980469 83.546875 292.863281 L 83.609375 292.503906 L 83.738281 291.785156 L 83.996094 290.351562 C 84.058594 289.871094 84.144531 289.390625 84.183594 288.910156 L 84.257812 288.183594 C 84.25 288.046875 84.308594 287.917969 84.28125 287.777344 L 109.050781 287.777344 C 109.046875 287.539062 109.042969 287.304688 109.039062 287.0625 Z M 230.40625 131.839844 C 230.40625 131.445312 230.085938 131.125 229.691406 131.125 L 219.054688 131.125 C 218.660156 131.125 218.339844 131.445312 218.339844 131.839844 C 218.339844 132.234375 218.660156 132.554688 219.054688 132.554688 L 229.691406 132.554688 C 230.085938 132.554688 230.40625 132.234375 230.40625 131.839844 Z M 202.175781 131.839844 C 202.105469 132.425781 202.515625 132.898438 203.101562 132.898438 C 203.683594 132.898438 204.214844 132.425781 204.289062 131.839844 C 204.363281 131.257812 203.949219 130.78125 203.363281 130.78125 C 202.785156 130.78125 202.25 131.257812 202.175781 131.839844 Z M 199.101562 132.898438 C 198.515625 132.898438 198.101562 132.425781 198.175781 131.839844 C 198.25 131.257812 198.78125 130.78125 199.367188 130.78125 C 199.949219 130.78125 200.363281 131.257812 200.289062 131.839844 C 200.21875 132.425781 199.683594 132.898438 199.101562 132.898438 " fill-opacity="1" fill-rule="nonzero"/></g><g clip-path="url(#a013c8591f)"><path fill="#777b85" d="M 299.152344 247.882812 L 293.398438 247.882812 L 289.199219 231.792969 L 285.671875 231.792969 L 289.875 247.882812 L 229.671875 247.882812 C 226.632812 247.882812 224.167969 250.347656 224.167969 253.390625 L 304.660156 253.390625 C 304.660156 250.347656 302.195312 247.882812 299.152344 247.882812 Z M 104.457031 247.503906 L 92.597656 247.503906 C 91.835938 247.503906 91.195312 248.074219 91.109375 248.828125 L 81.507812 332.101562 C 81.40625 332.988281 82.101562 333.769531 82.992188 333.769531 L 94.855469 333.769531 C 95.617188 333.769531 96.253906 333.199219 96.34375 332.445312 L 105.945312 249.175781 C 106.046875 248.285156 105.351562 247.503906 104.457031 247.503906 Z M 281.265625 276.597656 L 286.078125 276.597656 L 297.039062 269.390625 L 303.40625 276.597656 L 306.960938 276.597656 L 298.148438 265.875 Z M 347.441406 114.289062 L 342.726562 114.289062 C 347.972656 114.289062 352.050781 118.855469 351.472656 124.070312 L 340.410156 223.957031 C 339.914062 228.417969 336.148438 231.792969 331.660156 231.792969 L 336.375 231.792969 C 340.859375 231.792969 344.632812 228.417969 345.125 223.957031 L 356.191406 124.070312 C 356.769531 118.855469 352.683594 114.289062 347.441406 114.289062 Z M 230.40625 131.839844 C 230.40625 131.445312 230.085938 131.125 229.691406 131.125 L 219.054688 131.125 C 218.660156 131.125 218.339844 131.445312 218.339844 131.839844 C 218.339844 132.234375 218.660156 132.554688 219.054688 132.554688 L 229.691406 132.554688 C 230.085938 132.554688 230.40625 132.234375 230.40625 131.839844 Z M 203.363281 130.78125 C 202.785156 130.78125 202.25 131.257812 202.175781 131.839844 C 202.105469 132.425781 202.515625 132.898438 203.101562 132.898438 C 203.683594 132.898438 204.214844 132.425781 204.289062 131.839844 C 204.363281 131.257812 203.949219 130.78125 203.363281 130.78125 Z M 199.367188 130.78125 C 198.78125 130.78125 198.25 131.257812 198.175781 131.839844 C 198.101562 132.425781 198.515625 132.898438 199.101562 132.898438 C 199.683594 132.898438 200.21875 132.425781 200.289062 131.839844 C 200.363281 131.257812 199.949219 130.78125 199.367188 130.78125 Z M 208.289062 131.839844 C 208.21875 132.425781 207.683594 132.898438 207.101562 132.898438 C 206.519531 132.898438 206.105469 132.425781 206.179688 131.839844 C 206.25 131.257812 206.785156 130.78125 207.367188 130.78125 C 207.949219 130.78125 208.363281 131.257812 208.289062 131.839844 " fill-opacity="1" fill-rule="nonzero"/></g></svg>