<svg xmlns="http://www.w3.org/2000/svg" xmlns:xlink="http://www.w3.org/1999/xlink" width="500" zoomAndPan="magnify" viewBox="0 0 375 374.999991" height="500" preserveAspectRatio="xMidYMid meet" version="1.0"><defs><clipPath id="c4022e4297"><path d="M 35 22 L 340 22 L 340 371.503906 L 35 371.503906 Z M 35 22 " clip-rule="nonzero"/></clipPath><clipPath id="e00f8f969f"><path d="M 130 3.253906 L 245 3.253906 L 245 55 L 130 55 Z M 130 3.253906 " clip-rule="nonzero"/></clipPath></defs><g clip-path="url(#c4022e4297)"><path fill="#f9bc60" d="M 320.785156 22.300781 C 331.328125 22.300781 339.835938 30.804688 339.835938 41.347656 L 339.835938 352.453125 C 339.835938 362.996094 331.328125 371.503906 320.785156 371.503906 L 54.074219 371.503906 C 43.53125 371.503906 35.023438 362.996094 35.023438 352.453125 L 35.023438 41.347656 C 35.023438 30.804688 43.53125 22.300781 54.074219 22.300781 L 320.785156 22.300781 " fill-opacity="1" fill-rule="nonzero"/></g><path fill="#fdf9f0" d="M 308.085938 47.695312 C 311.582031 47.695312 314.433594 50.546875 314.433594 54.046875 L 314.433594 339.757812 C 314.433594 343.253906 311.582031 346.105469 308.085938 346.105469 L 66.773438 346.105469 C 63.277344 346.105469 60.425781 343.253906 60.425781 339.757812 L 60.425781 54.046875 C 60.425781 50.546875 63.277344 47.695312 66.773438 47.695312 L 308.085938 47.695312 " fill-opacity="1" fill-rule="nonzero"/><g clip-path="url(#e00f8f969f)"><path fill="#009b9a" d="M 244.582031 22.300781 L 244.582031 47.695312 C 244.582031 51.191406 241.730469 54.046875 238.230469 54.046875 L 136.628906 54.046875 C 133.128906 54.046875 130.277344 51.191406 130.277344 47.695312 L 130.277344 22.300781 C 130.277344 18.800781 133.128906 15.949219 136.628906 15.949219 L 159.078125 15.949219 C 162.847656 15.949219 166.269531 14.140625 168.824219 11.363281 C 173.464844 6.351562 180.085938 3.253906 187.429688 3.253906 C 194.773438 3.253906 201.394531 6.351562 206.035156 11.363281 C 208.589844 14.140625 212.011719 15.949219 215.78125 15.949219 L 238.230469 15.949219 C 241.730469 15.949219 244.582031 18.800781 244.582031 22.300781 " fill-opacity="1" fill-rule="nonzero"/></g><path fill="#000088" d="M 123.925781 123.886719 C 122.289062 123.886719 120.675781 123.265625 119.4375 122.027344 L 113.085938 115.675781 C 110.605469 113.195312 110.605469 109.179688 113.085938 106.699219 C 115.566406 104.21875 119.585938 104.21875 122.066406 106.699219 L 123.925781 108.558594 L 157.539062 74.953125 C 160.019531 72.472656 164.039062 72.472656 166.519531 74.953125 C 169 77.433594 169 81.449219 166.519531 83.929688 L 128.417969 122.027344 C 127.175781 123.265625 125.5625 123.886719 123.925781 123.886719 " fill-opacity="1" fill-rule="nonzero"/><path fill="#009b9a" d="M 142.976562 149.28125 L 104.875 149.28125 C 94.359375 149.28125 85.824219 140.75 85.824219 130.234375 L 85.824219 92.140625 C 85.824219 81.625 94.359375 73.09375 104.875 73.09375 L 130.277344 73.09375 C 133.773438 73.09375 136.628906 75.945312 136.628906 79.441406 C 136.628906 82.9375 133.773438 85.792969 130.277344 85.792969 L 104.875 85.792969 C 101.378906 85.792969 98.527344 88.644531 98.527344 92.140625 L 98.527344 130.234375 C 98.527344 133.730469 101.378906 136.585938 104.875 136.585938 L 142.976562 136.585938 C 146.476562 136.585938 149.328125 133.730469 149.328125 130.234375 L 149.328125 117.535156 C 149.328125 114.039062 152.179688 111.1875 155.679688 111.1875 C 159.175781 111.1875 162.027344 114.039062 162.027344 117.535156 L 162.027344 130.234375 C 162.027344 140.75 153.496094 149.28125 142.976562 149.28125 " fill-opacity="1" fill-rule="nonzero"/><path fill="#000088" d="M 123.925781 212.773438 C 122.289062 212.773438 120.675781 212.152344 119.4375 210.914062 L 113.085938 204.566406 C 110.605469 202.085938 110.605469 198.066406 113.085938 195.585938 C 115.566406 193.105469 119.585938 193.105469 122.066406 195.585938 L 123.925781 197.445312 L 157.539062 163.839844 C 160.019531 161.359375 164.039062 161.359375 166.519531 163.839844 C 169 166.320312 169 170.339844 166.519531 172.820312 L 128.417969 210.914062 C 127.175781 212.152344 125.5625 212.773438 123.925781 212.773438 " fill-opacity="1" fill-rule="nonzero"/><path fill="#009b9a" d="M 142.976562 238.171875 L 104.875 238.171875 C 94.359375 238.171875 85.824219 229.640625 85.824219 219.121094 L 85.824219 181.027344 C 85.824219 170.511719 94.359375 161.980469 104.875 161.980469 L 130.277344 161.980469 C 133.773438 161.980469 136.628906 164.832031 136.628906 168.328125 C 136.628906 171.828125 133.773438 174.679688 130.277344 174.679688 L 104.875 174.679688 C 101.378906 174.679688 98.527344 177.53125 98.527344 181.027344 L 98.527344 219.121094 C 98.527344 222.621094 101.378906 225.472656 104.875 225.472656 L 142.976562 225.472656 C 146.476562 225.472656 149.328125 222.621094 149.328125 219.121094 L 149.328125 206.425781 C 149.328125 202.925781 152.179688 200.074219 155.679688 200.074219 C 159.175781 200.074219 162.027344 202.925781 162.027344 206.425781 L 162.027344 219.121094 C 162.027344 229.640625 153.496094 238.171875 142.976562 238.171875 " fill-opacity="1" fill-rule="nonzero"/><path fill="#000088" d="M 123.925781 301.660156 C 122.289062 301.660156 120.675781 301.042969 119.4375 299.800781 L 113.085938 293.453125 C 110.605469 290.972656 110.605469 286.953125 113.085938 284.472656 C 115.566406 281.996094 119.585938 281.996094 122.066406 284.472656 L 123.925781 286.335938 L 157.539062 252.730469 C 160.019531 250.25 164.039062 250.25 166.519531 252.730469 C 169 255.207031 169 259.226562 166.519531 261.707031 L 128.417969 299.800781 C 127.175781 301.042969 125.5625 301.660156 123.925781 301.660156 " fill-opacity="1" fill-rule="nonzero"/><path fill="#009b9a" d="M 142.976562 327.058594 L 104.875 327.058594 C 94.359375 327.058594 85.824219 318.527344 85.824219 308.011719 L 85.824219 269.917969 C 85.824219 259.398438 94.359375 250.867188 104.875 250.867188 L 130.277344 250.867188 C 133.773438 250.867188 136.628906 253.722656 136.628906 257.21875 C 136.628906 260.714844 133.773438 263.566406 130.277344 263.566406 L 104.875 263.566406 C 101.378906 263.566406 98.527344 266.417969 98.527344 269.917969 L 98.527344 308.011719 C 98.527344 311.507812 101.378906 314.359375 104.875 314.359375 L 142.976562 314.359375 C 146.476562 314.359375 149.328125 311.507812 149.328125 308.011719 L 149.328125 295.3125 C 149.328125 291.816406 152.179688 288.964844 155.679688 288.964844 C 159.175781 288.964844 162.027344 291.816406 162.027344 295.3125 L 162.027344 308.011719 C 162.027344 318.527344 153.496094 327.058594 142.976562 327.058594 " fill-opacity="1" fill-rule="nonzero"/><path fill="#009b9a" d="M 212.832031 104.839844 L 193.78125 104.839844 C 190.28125 104.839844 187.429688 101.984375 187.429688 98.488281 C 187.429688 94.992188 190.28125 92.140625 193.78125 92.140625 L 212.832031 92.140625 C 216.328125 92.140625 219.179688 94.992188 219.179688 98.488281 C 219.179688 101.984375 216.328125 104.839844 212.832031 104.839844 " fill-opacity="1" fill-rule="nonzero"/><path fill="#009b9a" d="M 282.683594 130.234375 L 193.78125 130.234375 C 190.28125 130.234375 187.429688 127.382812 187.429688 123.886719 C 187.429688 120.390625 190.28125 117.535156 193.78125 117.535156 L 282.683594 117.535156 C 286.179688 117.535156 289.035156 120.390625 289.035156 123.886719 C 289.035156 127.382812 286.179688 130.234375 282.683594 130.234375 " fill-opacity="1" fill-rule="nonzero"/><path fill="#009b9a" d="M 212.832031 193.726562 L 193.78125 193.726562 C 190.28125 193.726562 187.429688 190.875 187.429688 187.378906 C 187.429688 183.878906 190.28125 181.027344 193.78125 181.027344 L 212.832031 181.027344 C 216.328125 181.027344 219.179688 183.878906 219.179688 187.378906 C 219.179688 190.875 216.328125 193.726562 212.832031 193.726562 " fill-opacity="1" fill-rule="nonzero"/><path fill="#009b9a" d="M 282.683594 219.121094 L 193.78125 219.121094 C 190.28125 219.121094 187.429688 216.269531 187.429688 212.773438 C 187.429688 209.277344 190.28125 206.425781 193.78125 206.425781 L 282.683594 206.425781 C 286.179688 206.425781 289.035156 209.277344 289.035156 212.773438 C 289.035156 216.269531 286.179688 219.121094 282.683594 219.121094 " fill-opacity="1" fill-rule="nonzero"/><path fill="#009b9a" d="M 212.832031 282.613281 L 193.78125 282.613281 C 190.28125 282.613281 187.429688 279.761719 187.429688 276.265625 C 187.429688 272.769531 190.28125 269.917969 193.78125 269.917969 L 212.832031 269.917969 C 216.328125 269.917969 219.179688 272.769531 219.179688 276.265625 C 219.179688 279.761719 216.328125 282.613281 212.832031 282.613281 " fill-opacity="1" fill-rule="nonzero"/><path fill="#009b9a" d="M 282.683594 308.011719 L 193.78125 308.011719 C 190.28125 308.011719 187.429688 305.160156 187.429688 301.660156 C 187.429688 298.164062 190.28125 295.3125 193.78125 295.3125 L 282.683594 295.3125 C 286.179688 295.3125 289.035156 298.164062 289.035156 301.660156 C 289.035156 305.160156 286.179688 308.011719 282.683594 308.011719 " fill-opacity="1" fill-rule="nonzero"/><path fill="#285974" d="M 191.796875 34.996094 L 181.078125 34.996094 C 177.582031 34.996094 174.730469 32.144531 174.730469 28.648438 C 174.730469 25.152344 177.582031 22.300781 181.078125 22.300781 C 181.078125 22.300781 192.789062 22.300781 193.679688 22.300781 C 197.203125 22.375 200.128906 25.101562 200.128906 28.648438 C 200.128906 32.863281 197.328125 34.996094 191.796875 34.996094 " fill-opacity="1" fill-rule="nonzero"/></svg>