<svg xmlns="http://www.w3.org/2000/svg" xmlns:xlink="http://www.w3.org/1999/xlink" width="500" zoomAndPan="magnify" viewBox="0 0 375 374.999991" height="500" preserveAspectRatio="xMidYMid meet" version="1.0"><defs><clipPath id="ed27cd1df6"><path d="M 265 101 L 300.433594 101 L 300.433594 135 L 265 135 Z M 265 101 " clip-rule="nonzero"/></clipPath><clipPath id="3546565dcc"><path d="M 74.683594 66.546875 L 300.433594 66.546875 L 300.433594 308.796875 L 74.683594 308.796875 Z M 74.683594 66.546875 " clip-rule="nonzero"/></clipPath></defs><g clip-path="url(#ed27cd1df6)"><path fill="#a6a6a6" d="M 298.996094 121.367188 L 278.710938 102.601562 C 276.910156 100.941406 274.101562 101.042969 272.441406 102.847656 L 267.074219 108.652344 C 265.414062 110.457031 265.515625 113.265625 267.320312 114.925781 L 287.585938 133.691406 C 289.386719 135.355469 292.195312 135.25 293.855469 133.445312 L 299.222656 127.644531 C 300.882812 125.839844 300.78125 123.027344 298.976562 121.367188 Z M 298.996094 121.367188 " fill-opacity="1" fill-rule="evenodd"/></g><g clip-path="url(#3546565dcc)"><path fill="#009b9a" d="M 299.59375 215.585938 C 302.6875 184.433594 291.929688 153.996094 269.839844 131.828125 C 253.773438 115.707031 232.9375 105.269531 210.375 102.234375 L 208.386719 101.964844 L 208.386719 82.195312 L 222.566406 82.195312 C 225.003906 82.195312 226.992188 80.207031 226.992188 77.765625 L 226.992188 70.976562 C 226.992188 68.535156 225.003906 66.546875 222.566406 66.546875 L 172.507812 66.546875 C 170.070312 66.546875 168.082031 68.535156 168.082031 70.976562 L 168.082031 77.765625 C 168.082031 80.207031 170.070312 82.195312 172.507812 82.195312 L 185.601562 82.195312 L 185.601562 101.824219 L 183.59375 102.070312 C 167.40625 104.078125 151.996094 109.839844 138.472656 118.988281 C 133.125 122.597656 131.957031 129.980469 135.910156 135.085938 C 139.640625 139.90625 146.667969 140.335938 151.566406 137.097656 C 164.925781 128.238281 180.4375 123.601562 196.441406 123.601562 C 218.078125 123.601562 238.652344 132.175781 253.9375 147.476562 C 272.871094 166.425781 281.070312 192.902344 276.582031 219.277344 C 270.742188 253.484375 242.933594 280.535156 208.652344 285.582031 C 195.683594 287.488281 182.570312 286.382812 170.171875 282.117188 C 158.453125 278.09375 147.796875 271.429688 139.027344 262.671875 C 126.488281 250.140625 118.332031 233.917969 115.871094 216.34375 L 115.503906 213.738281 L 127.203125 213.738281 C 131.753906 213.738281 134.621094 208.777344 132.347656 204.839844 L 109.046875 164.457031 C 106.753906 160.496094 101.058594 160.496094 98.761719 164.457031 L 75.464844 204.839844 C 73.191406 208.777344 76.058594 213.738281 80.609375 213.738281 L 93.085938 213.738281 L 93.292969 215.789062 C 95.75 239.496094 106.324219 261.542969 123.144531 278.382812 C 145.113281 300.347656 175.234375 311.175781 206.15625 308.347656 C 255.066406 303.855469 294.695312 264.519531 299.53125 215.585938 Z M 299.59375 215.585938 " fill-opacity="1" fill-rule="evenodd"/></g><path fill="#a6a6a6" d="M 198.941406 220.894531 C 198.632812 220.917969 198.328125 220.9375 198.019531 220.9375 C 194.964844 220.9375 192.035156 219.726562 189.882812 217.574219 C 187.507812 215.195312 186.277344 211.871094 186.542969 208.507812 C 186.8125 205.144531 188.511719 202.050781 191.257812 200.058594 L 225.621094 175.183594 C 227.484375 173.828125 230.085938 174.054688 231.707031 175.675781 C 233.34375 177.316406 233.570312 179.898438 232.21875 181.785156 L 207.363281 216.160156 C 205.375 218.90625 202.324219 220.628906 198.941406 220.894531 Z M 260.128906 169.070312 C 266.5 180.207031 269.820312 192.738281 269.820312 205.578125 C 269.820312 218.433594 266.5 230.964844 260.105469 242.125 C 260.066406 242.246094 260.003906 242.390625 259.921875 242.492188 C 259.859375 242.59375 259.777344 242.699219 259.695312 242.800781 C 253.304688 253.710938 244.183594 262.816406 233.285156 269.214844 C 233.160156 269.316406 233.019531 269.421875 232.875 269.480469 C 232.773438 269.542969 232.667969 269.585938 232.546875 269.625 C 221.625 275.878906 209.351562 279.203125 196.769531 279.304688 C 196.6875 279.304688 196.605469 279.324219 196.523438 279.324219 C 196.460938 279.324219 196.402344 279.324219 196.339844 279.324219 C 196.257812 279.324219 196.175781 279.324219 196.09375 279.324219 C 190.539062 279.324219 184.96875 278.667969 179.558594 277.4375 C 177.015625 276.863281 175.417969 274.300781 176.011719 271.757812 C 176.605469 269.234375 179.148438 267.636719 181.6875 268.210938 C 185.007812 268.988281 188.410156 269.460938 191.8125 269.6875 L 191.8125 266.632812 C 191.8125 264.007812 193.921875 261.894531 196.542969 261.894531 C 199.167969 261.894531 201.257812 264.027344 201.257812 266.632812 L 201.257812 269.644531 C 209.1875 269.011719 216.890625 266.917969 224.042969 263.433594 L 222.527344 260.804688 C 221.214844 258.550781 221.992188 255.636719 224.246094 254.347656 C 226.5 253.035156 229.410156 253.8125 230.722656 256.089844 L 232.21875 258.695312 C 238.878906 254.140625 244.65625 248.359375 249.207031 241.691406 L 246.582031 240.195312 C 244.328125 238.882812 243.550781 235.992188 244.839844 233.734375 C 246.132812 231.457031 249.042969 230.679688 251.316406 231.992188 L 253.9375 233.507812 C 257.464844 226.230469 259.574219 218.351562 260.167969 210.273438 L 257.113281 210.273438 C 254.511719 210.273438 252.382812 208.140625 252.382812 205.535156 C 252.382812 202.929688 254.511719 200.796875 257.113281 200.796875 L 260.167969 200.796875 C 259.574219 192.71875 257.464844 184.863281 253.9375 177.582031 L 251.296875 179.121094 L 251.273438 179.140625 C 250.558594 179.53125 249.757812 179.734375 248.960938 179.734375 C 247.28125 179.734375 245.722656 178.832031 244.882812 177.375 C 243.570312 175.121094 244.347656 172.207031 246.601562 170.894531 L 249.226562 169.398438 C 244.675781 162.734375 238.898438 156.949219 232.238281 152.398438 L 230.742188 155.023438 C 229.902344 156.476562 228.347656 157.378906 226.644531 157.378906 C 225.824219 157.378906 225.027344 157.175781 224.328125 156.785156 L 224.289062 156.746094 C 222.054688 155.433594 221.277344 152.539062 222.566406 150.285156 L 224.082031 147.640625 C 216.933594 144.171875 209.226562 142.0625 201.320312 141.445312 L 201.320312 144.460938 C 201.320312 147.066406 199.1875 149.199219 196.585938 149.199219 C 193.984375 149.199219 191.851562 147.066406 191.851562 144.460938 L 191.851562 141.425781 C 191.789062 141.425781 191.707031 141.445312 191.648438 141.445312 L 188.839844 141.671875 C 186.460938 141.957031 184.085938 142.347656 181.730469 142.882812 C 179.1875 143.476562 176.648438 141.875 176.074219 139.332031 C 175.480469 136.789062 177.078125 134.246094 179.617188 133.652344 C 182.527344 132.976562 185.480469 132.484375 188.429688 132.195312 C 193.878906 131.664062 199.351562 131.664062 204.800781 132.296875 C 214.636719 133.425781 224.082031 136.585938 232.667969 141.507812 C 232.792969 141.546875 232.914062 141.609375 233.039062 141.691406 C 233.160156 141.753906 233.261719 141.835938 233.367188 141.917969 C 236.441406 143.722656 239.390625 145.730469 242.15625 147.96875 L 242.175781 147.988281 C 248.589844 153.175781 254 159.371094 258.507812 166.261719 L 258.527344 166.300781 C 258.960938 167 259.390625 167.695312 259.800781 168.414062 C 259.839844 168.457031 259.882812 168.515625 259.902344 168.558594 L 259.984375 168.660156 L 260.046875 168.785156 C 260.105469 168.886719 260.148438 168.988281 260.167969 169.089844 Z M 198.203125 211.484375 C 198.820312 211.421875 199.371094 211.113281 199.71875 210.640625 L 207.300781 200.140625 L 196.8125 207.730469 C 196.320312 208.078125 196.011719 208.652344 195.96875 209.246094 C 195.929688 209.84375 196.15625 210.4375 196.585938 210.867188 C 197.015625 211.296875 197.609375 211.503906 198.222656 211.460938 Z M 198.203125 211.484375 " fill-opacity="1" fill-rule="evenodd"/></svg>